<?xml version="1.0" encoding="UTF-8" standalone="no"?>
<!-- Created with Inkscape (http://www.inkscape.org/) -->

<svg
   xmlns:dc="http://purl.org/dc/elements/1.1/"
   xmlns:cc="http://creativecommons.org/ns#"
   xmlns:rdf="http://www.w3.org/1999/02/22-rdf-syntax-ns#"
   xmlns:svg="http://www.w3.org/2000/svg"
   xmlns="http://www.w3.org/2000/svg"
   xmlns:sodipodi="http://sodipodi.sourceforge.net/DTD/sodipodi-0.dtd"
   xmlns:inkscape="http://www.inkscape.org/namespaces/inkscape"
   width="500mm"
   height="262.87204mm"
   viewBox="0 0 500 262.87204"
   version="1.1"
   id="svg924"
   inkscape:version="0.92.4 (5da689c313, 2019-01-14)"
   sodipodi:docname="pochoir_1.svg">
  <defs
     id="defs918" />
  <sodipodi:namedview
     id="base"
     pagecolor="#ffffff"
     bordercolor="#666666"
     borderopacity="1.0"
     inkscape:pageopacity="0.0"
     inkscape:pageshadow="2"
     inkscape:zoom="0.25767182"
     inkscape:cx="580.71036"
     inkscape:cy="515.38631"
     inkscape:document-units="mm"
     inkscape:current-layer="layer1"
     showgrid="false"
     inkscape:window-width="1366"
     inkscape:window-height="740"
     inkscape:window-x="0"
     inkscape:window-y="0"
     inkscape:window-maximized="1">
    <sodipodi:guide
       position="-1.3458764e-06,-37.127961"
       orientation="0,1889.7638"
       id="guide1471"
       inkscape:locked="false" />
    <sodipodi:guide
       position="500,-37.127961"
       orientation="-1133.8583,0"
       id="guide1473"
       inkscape:locked="false" />
    <sodipodi:guide
       position="500,262.87204"
       orientation="0,-1889.7638"
       id="guide1475"
       inkscape:locked="false" />
    <sodipodi:guide
       position="-1.3458764e-06,262.87204"
       orientation="1133.8583,0"
       id="guide1477"
       inkscape:locked="false" />
    <sodipodi:guide
       position="5.0000017,-32.127961"
       orientation="0,1851.9685"
       id="guide1483"
       inkscape:locked="false" />
    <sodipodi:guide
       position="495,-32.127961"
       orientation="-1096.063,0"
       id="guide1485"
       inkscape:locked="false" />
    <sodipodi:guide
       position="495,257.87204"
       orientation="0,-1851.9685"
       id="guide1487"
       inkscape:locked="false" />
    <sodipodi:guide
       position="5.0000017,257.87204"
       orientation="1096.063,0"
       id="guide1489"
       inkscape:locked="false" />
  </sodipodi:namedview>
  <metadata
     id="metadata921">
    <rdf:RDF>
      <cc:Work
         rdf:about="">
        <dc:format>image/svg+xml</dc:format>
        <dc:type
           rdf:resource="http://purl.org/dc/dcmitype/StillImage" />
        <dc:title />
      </cc:Work>
    </rdf:RDF>
  </metadata>
  <g
     inkscape:label="Calque 1"
     inkscape:groupmode="layer"
     id="layer1"
     transform="translate(114.90475,4.5119061)">
    <rect
       style="fill:#66ac52;fill-opacity:1;stroke:none;stroke-width:0.25999999;stroke-miterlimit:4;stroke-dasharray:none;stroke-dashoffset:0.56481099;stroke-opacity:1"
       id="rect1479"
       height="246.32739"
       x="-114.90475"
       y="-4.5119057"
       width="0"
       ry="0.1" />
    <g
       aria-label="13 &amp; 14 mars : "
       style="font-style:normal;font-weight:normal;font-size:16.51035118px;line-height:1.25;font-family:sans-serif;letter-spacing:0px;word-spacing:0px;fill:none;fill-opacity:1;stroke:#000000;stroke-width:0.98459037;stroke-opacity:1;stroke-miterlimit:4;stroke-dasharray:none"
       id="text1320"
       transform="matrix(1.0156508,0,0,1.0156508,-1.5841968,0.29546748)">
      <path
         d="M -77.131818,2.8955685 V 46.393068 q 0,0.635 -0.4445,1.0795 -0.4445,0.4445 -1.0795,0.4445 h -9.525 q -0.635,0 -1.0795,-0.4445 -0.4445,-0.4445 -0.4445,-1.0795 v -22.0345 q 0,-0.635 -0.3175,-0.762 -0.3175,-0.1905 -0.762,0.254 -0.508,0.4445 -0.9525,0.889 -0.381,0.381 -0.762,0.762 -0.4445,0.4445 -1.0795,0.4445 -0.5715,0 -1.016,-0.508 l -6.604002,-6.985 q -0.4445,-0.4445 -0.4445,-1.0795 0,-0.635 0.508,-1.0795 L -86.466318,2.3875685 q 0.4445,-0.4445 1.2065,-0.6985 0.762,-0.3175 1.397,-0.3175 h 5.207 q 0.635,0 1.0795,0.4445 0.4445,0.4445 0.4445,1.0795 z"
         style="font-style:normal;font-variant:normal;font-weight:normal;font-stretch:normal;font-size:63.5px;line-height:1.14999998;font-family:Heavitas;-inkscape-font-specification:Heavitas;text-align:center;letter-spacing:0px;word-spacing:-1.66190529px;text-anchor:middle;stroke-width:0.98459037;stroke:#000000;stroke-opacity:1;fill:none;stroke-miterlimit:4;stroke-dasharray:none"
         id="path2207"
         inkscape:connector-curvature="0" />
      <path
         d="m -40.977498,42.900568 q -1.397,1.778 -3.175,2.921 -1.7145,1.0795 -3.556,1.7145 -1.8415,0.635 -3.7465,0.889 -1.8415,0.254 -3.429,0.254 -3.81,0 -6.6675,-1.3335 -2.8575,-1.397 -4.8895,-3.429 -1.9685,-2.0955 -3.2385,-4.5085 -1.27,-2.413 -2.032,-4.445 -0.1905,-0.635 0.0635,-1.143 0.3175,-0.508 0.9525,-0.635 l 8.128,-1.8415 q 0.635,-0.127 1.0795,0.254 0.508,0.3175 0.6985,0.889 0.1905,0.6985 0.5715,1.524 0.381,0.762 1.0795,1.4605 0.6985,0.635 1.7145,1.143 1.0795,0.4445 2.54,0.4445 2.159,0 3.2385,-1.0795 1.0795,-1.143 1.0795,-2.286 0,-2.032 -1.016,-3.1115 -0.9525,-1.0795 -2.3495,-1.524 -1.397,-0.508 -2.9845,-0.508 -1.5875,0 -2.7305,0.127 -0.635,0.0635 -1.0795,-0.3175 -0.381,-0.381 -0.381,-1.016 v -5.334 q 0,-0.635 0.381,-1.016 0.4445,-0.4445 1.143,-0.4445 1.3335,0.0635 3.302,-0.127 2.032,-0.1905 3.81,-1.0795 0.9525,-0.508 1.651,-1.524 0.6985,-1.016 0.5715,-2.3495 -0.3175,-3.3655 -4.6355,-3.3655 -1.4605,0 -2.4765,0.4445 -1.016,0.4445 -1.7145,1.0795 -0.6985,0.635 -1.143,1.397 -0.381,0.762 -0.5715,1.397 -0.4445,1.397 -1.778,1.2065 l -8.0645,-1.778 q -0.635,-0.127 -0.9525,-0.635 -0.254,-0.5715 -0.0635,-1.143 0.762,-2.0955 2.032,-4.4449995 1.27,-2.413 3.302,-4.445 2.032,-2.032 4.826,-3.3655 2.794,-1.39700002 6.604,-1.39700002 4.6355,0 7.874,1.33350002 3.2385,1.3335 5.207,3.429 2.032,2.0955 2.921,4.699 0.889,2.5399995 0.889,5.0164995 0,2.0955 -0.508,3.6195 -0.508,1.524 -1.3335,2.6035 -0.762,1.0795 -1.7145,1.778 -0.9525,0.635 -1.905,1.016 -1.2065,0.508 0,1.0795 0.9525,0.4445 1.905,1.27 0.9525,0.762 1.7145,1.905 0.8255,1.143 1.3335,2.667 0.508,1.4605 0.508,3.3655 0,0.6985 -0.127,1.7145 -0.0635,0.9525 -0.381,2.0955 -0.3175,1.143 -0.9525,2.413 -0.5715,1.27 -1.524,2.4765 z"
         style="font-style:normal;font-variant:normal;font-weight:normal;font-stretch:normal;font-size:63.5px;line-height:1.14999998;font-family:Heavitas;-inkscape-font-specification:Heavitas;text-align:center;letter-spacing:0px;word-spacing:-1.66190529px;text-anchor:middle;stroke-width:0.98459037;stroke:#000000;stroke-opacity:1;fill:none;stroke-miterlimit:4;stroke-dasharray:none"
         id="path2209"
         inkscape:connector-curvature="0" />
      <path
         style="font-style:normal;font-variant:normal;font-weight:normal;font-stretch:normal;font-size:63.5px;line-height:1.14999998;font-family:Heavitas;-inkscape-font-specification:Heavitas;text-align:center;letter-spacing:0px;word-spacing:-1.66190529px;text-anchor:middle;stroke-width:3.7795276;stroke:#000000;stroke-opacity:1;fill:none;stroke-miterlimit:4;stroke-dasharray:none"
         d="m 452.08203,21.414062 v 39.882813 c 1.0591,1.453147 1.66146,3.210356 1.79102,5.283203 0.1625,2.437562 -0.407,5.036258 -1.70703,7.798828 -1.13753,2.76257 -3.16868,5.120263 -6.09375,7.070313 -1.30004,0.975025 -2.84332,1.21798 -4.63086,0.730469 -1.62505,-0.487513 -2.7621,-1.463245 -3.41211,-2.925782 -0.81252,-1.950049 -1.46366,-3.981196 -1.95118,-6.09375 -0.4875,-2.112553 -0.56719,-4.062064 -0.24218,-5.849609 0.22997,-1.609825 0.60963,-2.994043 1.1289,-4.169922 V 21.679688 c -3.20918,0.524873 -6.35059,1.347012 -9.41796,2.486328 -5.68765,2.112553 -10.80536,5.037795 -15.35547,8.77539 -4.38762,3.737595 -8.12532,8.287755 -11.21289,13.650391 -2.92508,5.200132 -4.79491,10.968981 -5.60743,17.306641 -1.46253,12.512816 1.13812,24.456742 7.80079,35.832031 0.81251,1.462541 1.13711,3.005821 0.9746,4.630861 -0.11537,1.03843 -0.52222,1.95151 -1.21093,2.74414 l 29.13476,29.93555 c 0.67521,0.35971 1.28165,0.83834 1.81446,1.44726 l 14.13867,14.625 c 0.32224,0.36828 0.5934,0.75867 0.82422,1.16602 l 47.91211,49.23047 c 1.0409,0.85194 2.26371,1.27929 3.66992,1.27929 1.62504,0.16251 3.08864,-0.32536 4.38867,-1.46289 L 527,183.82617 c 1.30003,-0.97502 1.94922,-2.19371 1.94922,-3.65625 0.1625,-1.62504 -0.32341,-3.08668 -1.46094,-4.38672 -2.43756,-2.76257 -5.03821,-5.52649 -7.80078,-8.28906 -2.60007,-2.92507 -5.28235,-5.85032 -8.04492,-8.77539 -1.13753,-1.13753 -1.78672,-2.59917 -1.94922,-4.38672 0,-1.78754 0.48787,-3.33083 1.46289,-4.63086 3.73759,-5.52514 6.98743,-10.6448 9.75,-15.35742 2.92507,-4.87512 5.19918,-8.7761 6.82422,-11.70117 0.81252,-1.46254 0.89416,-2.92418 0.24414,-4.38672 -0.48751,-1.46254 -1.46324,-2.51795 -2.92578,-3.16797 l -26.56836,-11.70117 c -1.62504,-0.65002 -3.16832,-0.65002 -4.63086,0 -1.46254,0.48751 -2.60154,1.46324 -3.41406,2.92578 -0.81252,1.78755 -1.94958,3.89838 -3.41211,6.33594 -1.30004,2.43756 -2.76168,5.03821 -4.38672,7.80078 -0.81252,1.30003 -1.95153,2.11249 -3.41406,2.4375 -1.30004,0.1625 -2.51872,-0.40505 -3.65625,-1.70508 l -3.89844,-3.65625 c -1.13753,-1.30003 -1.6254,-2.60036 -1.46289,-3.90039 0.1625,-1.46254 0.89332,-2.68123 2.19336,-3.65625 4.55011,-3.57509 8.53077,-7.71902 11.94336,-12.431641 3.41258,-4.712619 5.9316,-9.750645 7.55664,-15.113281 1.78754,-5.362636 2.6,-10.970164 2.4375,-16.820312 -0.16251,-5.850149 -1.54251,-11.698682 -4.14258,-17.548828 -3.9001,-8.775223 -9.99549,-15.438166 -18.2832,-19.988282 -6.28283,-3.572584 -12.89157,-5.788096 -19.82813,-6.652344 z M 391.5,117.0293 c -4.71857,4.83877 -8.48,9.95595 -11.24219,15.36523 -3.9001,7.6377 -5.19847,16.57474 -3.89843,26.8125 1.62503,13.81285 7.47357,24.86268 17.54882,33.15039 10.07526,8.28771 23.15819,12.43164 39.2461,12.43164 2.60006,0 5.44367,-0.16327 8.53125,-0.48828 3.25008,-0.32501 6.66319,-1.05583 10.23828,-2.19336 3.57509,-1.13753 7.23115,-2.68081 10.96875,-4.63086 1.47892,-0.73946 2.95681,-1.58522 4.43554,-2.53515 l -28.27148,-29.04688 c -2.93463,0.72297 -5.79694,0.93468 -8.58398,0.625 -2.92508,-0.48751 -5.52574,-1.7062 -7.80078,-3.65625 -2.27506,-1.95005 -3.73671,-4.79365 -4.38672,-8.53125 -0.66733,-3.87051 -0.55471,-7.01551 0.3125,-9.46094 z"
         transform="matrix(0.2605062,0,0,0.2605062,-111.57433,-4.7332937)"
         id="path2211"
         inkscape:connector-curvature="0" />
      <path
         d="M 72.713321,2.8955685 V 46.393068 q 0,0.635 -0.4445,1.0795 -0.4445,0.4445 -1.0795,0.4445 h -9.525 q -0.635,0 -1.0795,-0.4445 -0.4445,-0.4445 -0.4445,-1.0795 v -22.0345 q 0,-0.635 -0.3175,-0.762 -0.3175,-0.1905 -0.762,0.254 -0.508,0.4445 -0.9525,0.889 -0.381,0.381 -0.762,0.762 -0.4445,0.4445 -1.0795,0.4445 -0.5715,0 -1.016,-0.508 l -6.604,-6.985 q -0.4445,-0.4445 -0.4445,-1.0795 0,-0.635 0.508,-1.0795 l 14.6685,-13.9064995 q 0.4445,-0.4445 1.2065,-0.6985 0.762,-0.3175 1.397,-0.3175 h 5.207 q 0.635,0 1.0795,0.4445 0.4445,0.4445 0.4445,1.0795 z"
         style="font-style:normal;font-variant:normal;font-weight:normal;font-stretch:normal;font-size:63.5px;line-height:1.14999998;font-family:Heavitas;-inkscape-font-specification:Heavitas;text-align:center;letter-spacing:0px;word-spacing:-1.66190529px;text-anchor:middle;stroke-width:0.98459037;stroke:#000000;stroke-opacity:1;fill:none;stroke-miterlimit:4;stroke-dasharray:none"
         id="path2213"
         inkscape:connector-curvature="0" />
      <path
         style="font-style:normal;font-variant:normal;font-weight:normal;font-stretch:normal;font-size:63.5px;line-height:1.14999998;font-family:Heavitas;-inkscape-font-specification:Heavitas;text-align:center;letter-spacing:0px;word-spacing:-1.66190529px;text-anchor:middle;stroke-width:3.7795276;stroke:#000000;stroke-opacity:1;fill:none;stroke-miterlimit:4;stroke-dasharray:none"
         d="m 827.19336,23.435547 c -1.62504,0 -3.41323,0.406229 -5.36328,1.21875 -1.78755,0.812521 -3.16756,1.867936 -4.14258,3.167969 l -66.88867,78.433594 h 48.52344 l 5.68945,-7.988282 c 1.13753,-1.625041 2.03162,-2.274227 2.68164,-1.949219 0.81252,0.325009 1.21875,1.380424 1.21875,3.167969 v 6.769532 h 48.26367 V 29.285156 c 0,-1.625041 -0.5695,-3.007002 -1.70703,-4.144531 -0.97502,-1.137529 -2.35699,-1.705078 -4.14453,-1.705078 z m -89.28711,97.939453 -2.12109,2.48633 c -1.13753,1.30003 -2.11326,2.92495 -2.92578,4.875 -0.65002,1.95005 -0.97461,3.73824 -0.97461,5.36328 v 26.57031 c 0,1.62504 0.5695,3.00505 1.70703,4.14258 1.13753,1.13753 2.51753,1.70703 4.14258,1.70703 h 65.32617 c 1.78754,0 3.1695,0.5695 4.14453,1.70703 1.13753,1.13753 1.70703,2.51754 1.70703,4.14258 v 23.88867 c 0,1.62504 0.56755,3.007 1.70508,4.14453 1.13752,1.13753 2.51949,1.70508 4.14453,1.70508 h 36.5625 c 1.78754,0 3.16951,-0.56755 4.14453,-1.70508 1.13753,-1.13753 1.70703,-2.51949 1.70703,-4.14453 v -23.88867 c 0,-1.62504 0.56755,-3.00505 1.70508,-4.14258 1.13753,-1.13753 2.51949,-1.70703 4.14453,-1.70703 h 8.04492 c 1.78755,0 3.16756,-0.5695 4.14258,-1.70703 1.13753,-1.13753 1.70703,-2.51754 1.70703,-4.14258 v -33.15234 c 0,-1.62504 -0.5695,-3.00505 -1.70703,-4.14258 -0.97502,-1.13753 -2.35503,-1.70703 -4.14258,-1.70703 h -8.04492 c -0.66711,0 -1.29005,-0.10127 -1.875,-0.29297 h -56.85742 c -0.61817,0.19428 -1.27187,0.29297 -1.96289,0.29297 h -7.06836 c -0.79287,0 -1.46804,-0.10114 -2.03711,-0.29297 z"
         transform="matrix(0.2605062,0,0,0.2605062,-111.57433,-4.7332937)"
         id="path2215"
         inkscape:connector-curvature="0" />
      <path
         d="M 195.19589,3.0225685 V 46.393068 q 0,0.635 -0.4445,1.0795 -0.4445,0.4445 -1.0795,0.4445 h -9.5885 q -0.635,0 -1.0795,-0.4445 -0.4445,-0.4445 -0.4445,-1.0795 v -20.447 q 0,-0.635 -0.5715,-0.6985 -0.5715,-0.0635 -0.9525,0.4445 l -10.668,17.2085 q -0.3175,0.508 -1.016,0.508 -0.6985,0 -1.0795,-0.508 l -10.668,-17.2085 q -0.3175,-0.508 -0.889,-0.4445 -0.5715,0.0635 -0.5715,0.6985 v 20.447 q 0,0.635 -0.4445,1.0795 -0.4445,0.4445 -1.0795,0.4445 h -9.5885 q -0.635,0 -1.0795,-0.4445 -0.4445,-0.4445 -0.4445,-1.0795 V 3.0225685 q 0,-0.635 0.4445,-1.0795 0.4445,-0.4445 1.0795,-0.4445 h 8.89 q 0.635,0 1.3335,0.381 0.6985,0.381 1.016,0.889 l 12.192,17.9069995 q 0.381,0.508 0.889,0.508 0.508,0 0.8255,-0.508 l 12.192,-17.9069995 q 0.381,-0.508 1.0795,-0.889 0.6985,-0.381 1.3335,-0.381 h 8.89 q 0.635,0 1.0795,0.4445 0.4445,0.4445 0.4445,1.0795 z"
         style="font-style:normal;font-variant:normal;font-weight:normal;font-stretch:normal;font-size:63.5px;line-height:1.14999998;font-family:Heavitas;-inkscape-font-specification:Heavitas;text-align:center;letter-spacing:0px;word-spacing:-1.66190529px;text-anchor:middle;stroke-width:0.98459037;stroke:#000000;stroke-opacity:1;fill:none;stroke-miterlimit:4;stroke-dasharray:none"
         id="path2217"
         inkscape:connector-curvature="0" />
      <path
         style="font-style:normal;font-variant:normal;font-weight:normal;font-stretch:normal;font-size:63.5px;line-height:1.14999998;font-family:Heavitas;-inkscape-font-specification:Heavitas;text-align:center;letter-spacing:0px;word-spacing:-1.66190529px;text-anchor:middle;stroke-width:3.7795276;stroke:#000000;stroke-opacity:1;fill:none;stroke-miterlimit:4;stroke-dasharray:none"
         d="m 1273.6172,23.921875 c -1.7876,0 -3.4941,0.569502 -5.1192,1.707031 -1.4625,0.975025 -2.5179,2.193713 -3.1679,3.65625 l -70.6895,165.023434 c -0.65,1.30004 -0.8929,2.43709 -0.7304,3.41211 0.1625,0.97503 0.5687,1.78749 1.2187,2.4375 0.4875,0.65002 1.2183,1.13789 2.1934,1.46289 0.8125,0.32501 1.6249,0.48633 2.4375,0.48633 h 41.9257 c 1.6251,0 3.1684,-0.48786 4.6309,-1.46289 1.625,-1.13753 2.7621,-2.4359 3.4121,-3.89844 l 0.9649,-2.0664 24.8847,-62.5 c -0.028,-0.6946 0.1258,-1.43341 0.4766,-2.22266 l 11.2148,-27.14258 28.9121,-72.611325 -0.3945,-0.917969 c -0.65,-1.462537 -1.7871,-2.681225 -3.4121,-3.65625 -1.4625,-1.137529 -3.0058,-1.707031 -4.6309,-1.707031 z m 51.0078,25.943359 -25.9629,65.207036 c 0.1097,0.26634 0.1962,0.47783 0.3067,0.74609 2.275,5.36264 4.2245,10.07607 5.8496,14.13867 0.8125,1.46254 0.8125,2.76091 0,3.89844 -0.6501,0.97502 -1.7871,1.46289 -3.4122,1.46289 h -10.8066 l -16.5,41.43945 h 42.1758 c 1.625,0 3.1683,0.56755 4.6308,1.70508 1.6251,0.97503 2.8438,2.19371 3.6563,3.65625 l 6.582,14.62695 c 0.8126,1.46254 1.9496,2.76091 3.4121,3.89844 1.6251,0.97503 3.3316,1.46289 5.1192,1.46289 h 41.6816 c 2.6001,0 4.3066,-0.81246 5.1192,-2.4375 0.975,-1.62504 1.1383,-3.16832 0.4882,-4.63086 z"
         transform="matrix(0.2605062,0,0,0.2605062,-111.57433,-4.7332937)"
         id="path2219"
         inkscape:connector-curvature="0" />
      <path
         style="font-style:normal;font-variant:normal;font-weight:normal;font-stretch:normal;font-size:63.5px;line-height:1.14999998;font-family:Heavitas;-inkscape-font-specification:Heavitas;text-align:center;letter-spacing:0px;word-spacing:-1.66190529px;text-anchor:middle;stroke-width:3.7795276;stroke:#000000;stroke-opacity:1;fill:none;stroke-miterlimit:4;stroke-dasharray:none"
         d="m 1400.6367,23.677734 c -1.625,0 -3.005,0.569503 -4.1426,1.707032 -1.1375,1.137529 -1.707,2.51949 -1.707,4.144531 V 196.25781 c 0,1.62504 0.5695,3.007 1.707,4.14453 1.1376,1.13753 2.5176,1.70508 4.1426,1.70508 h 36.3203 c 1.6251,0 3.007,-0.56755 4.1446,-1.70508 1.1375,-1.13753 1.705,-2.51949 1.705,-4.14453 v -39.48828 c 0,-0.11617 0.01,-0.22812 0.016,-0.3418 v -55.86718 c -0.01,-0.11368 -0.016,-0.22563 -0.016,-0.3418 V 74.378906 c 0,-0.116169 0.01,-0.228119 0.016,-0.341797 V 23.677734 Z m 61.0821,0 v 44.851563 h 12.7773 c 3.4126,0 6.2562,0.730822 8.5312,2.193359 2.4376,1.300033 4.3055,3.006587 5.6055,5.119141 1.4625,1.950049 2.4383,4.062833 2.9258,6.337891 0.65,2.112553 0.9746,3.98238 0.9746,5.607421 0,3.087579 -0.5695,5.767911 -1.707,8.042969 -1.1376,2.275058 -2.5992,4.224572 -4.3867,5.849612 -1.7876,1.46253 -3.7371,2.60154 -5.8497,3.41406 -2.1125,0.65002 -4.1437,0.97461 -6.0937,0.97461 h -12.7773 v 47.89258 c 0.5982,0.48371 1.1286,1.00871 1.5644,1.58984 5.0376,7.15018 10.0757,14.21935 15.1133,21.20703 5.2001,6.98768 10.3995,13.89358 15.5996,20.71875 0.975,1.30004 2.357,2.43709 4.1445,3.41211 1.9501,0.81252 3.7363,1.21875 5.3614,1.21875 h 45.3398 c 1.625,0 2.6805,-0.73082 3.168,-2.19336 0.4875,-1.62504 0.2445,-3.08668 -0.7305,-4.38672 -5.3626,-7.15018 -11.458,-15.03181 -18.2832,-23.64453 -6.8252,-8.61272 -13.3248,-16.98221 -19.5,-25.10742 -0.975,-1.30003 -1.2996,-2.60036 -0.9746,-3.90039 0.4875,-1.46254 1.3816,-2.68123 2.6816,-3.65625 3.9001,-2.43756 7.3929,-5.44444 10.4805,-9.01953 3.0876,-3.7376 5.7699,-7.88153 8.0449,-12.43164 2.2751,-4.55012 3.9816,-9.34323 5.1192,-14.38086 1.3,-5.200133 1.9492,-10.399479 1.9492,-15.599611 0,-9.425239 -1.6249,-18.039645 -4.875,-25.839843 -3.0876,-7.800197 -7.4745,-14.542825 -13.1621,-20.230469 -5.5252,-5.687645 -12.2698,-10.076484 -20.2325,-13.164063 -7.9627,-3.250082 -16.6567,-4.875 -26.082,-4.875 z"
         transform="matrix(0.2605062,0,0,0.2605062,-111.57433,-4.7332937)"
         id="path2221"
         inkscape:connector-curvature="0" />
      <path
         d="m 302.74803,31.978568 q 3.429,2.2225 6.7945,3.4925 3.3655,1.27 6.2865,1.27 2.794,0 4.2545,-0.762 1.4605,-0.8255 1.4605,-2.413 0,-0.8255 -0.635,-1.27 -0.635,-0.508 -1.7145,-0.8255 -1.016,-0.3175 -2.413,-0.508 -1.397,-0.1905 -2.8575,-0.508 -1.397,-0.254 -3.302,-0.5715 -1.8415,-0.381 -3.81,-1.016 -1.9685,-0.6985 -3.937,-1.7145 -1.905,-1.016 -3.429,-2.6035 -1.524,-1.5875 -2.4765,-3.7465 -0.889,-2.2225 -0.889,-5.207 0,-4.3815 1.7145,-7.2389995 1.7145,-2.8575 4.318,-4.5085 2.667,-1.7145 5.9055,-2.3495 3.2385,-0.69850002 6.2865,-0.69850002 5.334,0 9.525,1.58750002 4.2545,1.524 8.128,4.5085 0.508,0.4445 0.5715,1.0795 0.0635,0.635 -0.3175,1.143 l -4.953,7.0484995 q -0.381,0.508 -1.016,0.635 -0.635,0.127 -1.143,-0.254 -3.2385,-2.032 -6.0325,-2.8575 -2.794,-0.889 -5.1435,-0.889 -0.6985,0 -1.651,0.0635 -0.889,0 -1.7145,0.254 -0.8255,0.1905 -1.397,0.6985 -0.508,0.508 -0.508,1.397 0,0.889 1.3335,1.5875 1.3335,0.6985 3.048,1.2065 1.7145,0.508 3.302,0.8255 1.5875,0.254 2.032,0.3175 2.286,0.4445 5.0165,1.3335 2.7305,0.8255 5.08,2.54 2.413,1.651 4.0005,4.3815 1.651,2.667 1.651,6.731 0,3.81 -1.3335,6.604 -1.3335,2.7305 -3.7465,4.5085 -2.3495,1.778 -5.715,2.667 -3.302,0.8255 -7.366,0.8255 -3.302,0 -6.1595,-0.5715 -2.8575,-0.508 -5.334,-1.4605 -2.4765,-0.9525 -4.6355,-2.2225 -2.0955,-1.3335 -3.8735,-2.794 -0.508,-0.381 -0.5715,-1.016 -0.0635,-0.6985 0.3175,-1.2065 l 4.8895,-7.0485 q 0.381,-0.508 1.016,-0.635 0.635,-0.127 1.143,0.1905 z"
         style="font-style:normal;font-variant:normal;font-weight:normal;font-stretch:normal;font-size:63.5px;line-height:1.14999998;font-family:Heavitas;-inkscape-font-specification:Heavitas;text-align:center;letter-spacing:0px;word-spacing:-1.66190529px;text-anchor:middle;stroke-width:0.98459037;stroke:#000000;stroke-opacity:1;fill:none;stroke-miterlimit:4;stroke-dasharray:none"
         id="path2223"
         inkscape:connector-curvature="0" />
      <path
         d="m 364.61689,32.169068 q -1.3335,0 -2.54,-0.508 -1.2065,-0.508 -2.0955,-1.397 -0.8255,-0.889 -1.3335,-2.032 -0.508,-1.2065 -0.508,-2.54 0,-1.3335 0.508,-2.54 0.508,-1.2065 1.3335,-2.0955 0.889,-0.889 2.0955,-1.397 1.2065,-0.508 2.54,-0.508 1.3335,0 2.54,0.508 1.2065,0.508 2.0955,1.397 0.889,0.889 1.397,2.0955 0.508,1.2065 0.508,2.54 0,1.3335 -0.508,2.54 -0.508,1.143 -1.397,2.032 -0.889,0.889 -2.0955,1.397 -1.2065,0.508 -2.54,0.508 z m 0,16.1925 q -1.3335,0 -2.54,-0.508 -1.2065,-0.508 -2.0955,-1.397 -0.8255,-0.889 -1.3335,-2.0955 -0.508,-1.2065 -0.508,-2.54 0,-1.3335 0.508,-2.4765 0.508,-1.143 1.3335,-2.032 0.889,-0.889 2.0955,-1.397 1.2065,-0.508 2.54,-0.508 1.3335,0 2.54,0.508 1.2065,0.508 2.0955,1.397 0.889,0.889 1.397,2.032 0.508,1.143 0.508,2.4765 0,1.3335 -0.508,2.54 -0.508,1.2065 -1.397,2.0955 -0.889,0.889 -2.0955,1.397 -1.2065,0.508 -2.54,0.508 z"
         style="font-style:normal;font-variant:normal;font-weight:normal;font-stretch:normal;font-size:63.5px;line-height:1.14999998;font-family:Heavitas;-inkscape-font-specification:Heavitas;text-align:center;letter-spacing:0px;word-spacing:-1.66190529px;text-anchor:middle;stroke-width:0.98459037;stroke:#000000;stroke-opacity:1;fill:none;stroke-miterlimit:4;stroke-dasharray:none"
         id="path2225"
         inkscape:connector-curvature="0" />
    </g>
    <g
       aria-label="MObilisation pour l'avenir "
       style="font-style:normal;font-weight:normal;font-size:10.58333302px;line-height:1.25;font-family:sans-serif;letter-spacing:0px;word-spacing:0px;fill:none;fill-opacity:1;stroke:#000000;stroke-width:1;stroke-miterlimit:4;stroke-dasharray:none;stroke-opacity:1"
       id="text2189"
       transform="matrix(1.0371078,0,0,1.0371078,-7.4503025,1.7247469)">
       
      <path
         d="m -15.316577,86.232617 v 34.696403 q 0,0.508 -0.3556,0.8636 -0.3556,0.3556 -0.8636,0.3556 h -7.670799 q -0.508,0 -0.8636,-0.3556 -0.3556,-0.3556 -0.3556,-0.8636 v -16.3576 q 0,-0.508 -0.4572,-0.5588 -0.4572,-0.0508 -0.762,0.3556 l -8.5344,13.7668 q -0.254,0.4064 -0.8128,0.4064 -0.5588,0 -0.8636,-0.4064 l -8.5344,-13.7668 q -0.254,-0.4064 -0.7112,-0.3556 -0.4572,0.0508 -0.4572,0.5588 v 16.3576 q 0,0.508 -0.3556,0.8636 -0.3556,0.3556 -0.8636,0.3556 h -7.6708 q -0.508,0 -0.8636,-0.3556 -0.3556,-0.3556 -0.3556,-0.8636 V 86.232617 q 0,-0.508 0.3556,-0.8636 0.3556,-0.3556 0.8636,-0.3556 h 7.112 q 0.508,0 1.0668,0.3048 0.5588,0.3048 0.8128,0.7112 l 9.7536,14.325603 q 0.3048,0.4064 0.7112,0.4064 0.4064,0 0.6604,-0.4064 l 9.7536,-14.325603 q 0.3048,-0.4064 0.8636,-0.7112 0.5588,-0.3048 1.066799,-0.3048 h 7.112 q 0.508,0 0.8636,0.3556 0.3556,0.3556 0.3556,0.8636 z"
         style="font-style:normal;font-variant:normal;font-weight:normal;font-stretch:normal;font-size:50.79999924px;line-height:1.14999998;font-family:Heavitas;-inkscape-font-specification:Heavitas;text-align:center;text-anchor:middle;fill:none;stroke:#000000;stroke-width:1;stroke-miterlimit:4;stroke-dasharray:none;stroke-opacity:1"
         id="path2398"
         inkscape:connector-curvature="0" />
      <path
         style="font-style:normal;font-variant:normal;font-weight:normal;font-stretch:normal;font-size:50.79999924px;line-height:1.14999998;font-family:Heavitas;-inkscape-font-specification:Heavitas;text-align:center;text-anchor:middle;fill:none;stroke:#000000;stroke-width:3.77952766;stroke-miterlimit:4;stroke-dasharray:none;stroke-opacity:1"
         d="m 471.625,335.93555 v 37.00586 c 2.54872,0.50341 5.01887,1.32194 7.4043,2.47851 4.224,1.92 7.93672,4.5431 11.13672,7.8711 3.2,3.2 5.69432,7.03953 7.48632,11.51953 1.792,4.352 2.68946,8.89681 2.68946,13.63281 0,4.864 -0.89746,9.47222 -2.68946,13.82422 -1.792,4.352 -4.28632,8.19153 -7.48632,11.51953 -3.2,3.328 -6.91272,6.01645 -11.13672,8.06445 -2.3854,1.08427 -4.85562,1.85031 -7.4043,2.32227 v 36.77734 c 7.75879,-0.62385 15.15839,-2.44386 22.1875,-5.5 8.832,-3.84 16.51302,-9.02278 23.04102,-15.55078 6.656,-6.656 11.90414,-14.40042 15.74414,-23.23242 3.84,-8.832 5.75976,-18.24061 5.75976,-28.22461 0,-9.98401 -1.91976,-19.39261 -5.75976,-28.22461 -3.84,-8.832 -9.08814,-16.51106 -15.74414,-23.03906 -6.528,-6.656 -14.20902,-11.90414 -23.04102,-15.74414 -7.02911,-3.05614 -14.42871,-4.87615 -22.1875,-5.5 z m -15.11719,0.3125 c -6.65384,0.81979 -13.03892,2.53373 -19.14258,5.1875 -8.832,3.84 -16.51106,9.08814 -23.03906,15.74414 -6.528,6.528 -11.71273,14.20706 -15.55273,23.03906 -3.84,8.832 -5.75977,18.2406 -5.75977,28.22461 0,9.984 1.91977,19.39261 5.75977,28.22461 3.84,8.832 9.02473,16.57642 15.55273,23.23242 6.528,6.528 14.20706,11.71078 23.03906,15.55078 6.1037,2.65378 12.48869,4.36967 19.14258,5.18945 v -37.18554 c -1.48097,-0.4289 -2.93649,-0.95675 -4.35937,-1.60352 -4.224,-2.048 -7.93477,-4.73645 -11.13477,-8.06445 -3.072,-3.328 -5.50487,-7.16753 -7.29687,-11.51953 -1.792,-4.352 -2.6875,-8.96022 -2.6875,-13.82422 0,-4.736 0.8955,-9.28081 2.6875,-13.63281 1.792,-4.48 4.22487,-8.31953 7.29687,-11.51953 3.2,-3.328 6.91077,-5.9511 11.13477,-7.8711 1.42279,-0.68984 2.87849,-1.25346 4.35937,-1.71094 z"
         transform="matrix(0.26458333,0,0,0.26458333,-114.90475,-4.5119061)"
         id="path2400"
         inkscape:connector-curvature="0" />
      <path
         style="font-style:normal;font-variant:normal;font-weight:normal;font-stretch:normal;font-size:50.79999924px;line-height:1.14999998;font-family:Heavitas;-inkscape-font-specification:Heavitas;text-align:center;text-anchor:middle;fill:none;stroke:#000000;stroke-width:3.77952766;stroke-miterlimit:4;stroke-dasharray:none;stroke-opacity:1"
         d="m 562.76562,338.17188 c -1.28,0 -2.36767,0.44775 -3.26367,1.34374 -0.896,0.89601 -1.34375,1.98368 -1.34375,3.26368 v 131.32812 c 0,1.28 0.44775,2.36767 1.34375,3.26367 0.896,0.896 1.98367,1.34375 3.26367,1.34375 h 33.33594 V 338.17188 Z m 48.45508,0 V 373.5 h 7.80078 c 1.664,0 3.3916,0.83209 5.1836,2.49609 1.92,1.664 2.88086,3.64718 2.88086,5.95118 0,2.432 -0.76869,4.6727 -2.30469,6.7207 -1.536,1.92 -3.58453,2.87891 -6.14453,2.87891 h -7.41602 v 31.67968 h 9.72071 c 3.328,0 5.95109,1.21644 7.87109,3.64844 2.048,2.304 3.07227,4.60811 3.07227,6.91211 0,2.56 -1.02427,4.8007 -3.07227,6.7207 -2.048,1.92 -4.22334,2.87891 -6.52734,2.87891 H 611.2207 v 35.32812 h 12.40821 c 6.4,0 12.48023,-0.63992 18.24023,-1.91992 5.888,-1.408 11.07274,-3.71211 15.55274,-6.91211 4.47999,-3.328 7.99859,-7.67868 10.55859,-13.05469 2.688,-5.50399 4.0332,-12.41632 4.0332,-20.73632 0,-4.096 -0.57651,-7.74532 -1.72851,-10.94532 -1.024,-3.2 -2.43261,-6.01526 -4.22461,-8.44726 -1.664,-2.432 -3.51841,-4.48053 -5.56641,-6.14453 -2.048,-1.664 -4.09653,-3.07066 -6.14453,-4.22266 -2.56,-1.28 -2.68877,-2.75201 -0.38477,-4.41601 3.328,-2.432 6.4008,-5.76037 9.2168,-9.98438 2.944,-4.224 4.41602,-9.21656 4.41602,-14.97656 0,-7.168 -1.34521,-13.18288 -4.03321,-18.04688 -2.56,-4.992 -6.01518,-9.02565 -10.36718,-12.09765 -4.224,-3.072 -9.15121,-5.24735 -14.78321,-6.52735 -5.632,-1.408 -11.52006,-2.11132 -17.66406,-2.11132 z"
         transform="matrix(0.26458333,0,0,0.26458333,-114.90475,-4.5119061)"
         id="path2402"
         inkscape:connector-curvature="0" />
      <path
         d="m 77.690282,122.14822 h -7.6708 q -0.5588,0 -0.9144,-0.3556 -0.3048,-0.3556 -0.3048,-0.8636 V 86.232617 q 0,-0.508 0.3048,-0.8636 0.3556,-0.3556 0.9144,-0.3556 h 7.6708 q 0.508,0 0.8636,0.3556 0.3556,0.3556 0.3556,0.8636 v 34.696403 q 0,0.508 -0.3556,0.8636 -0.3556,0.3556 -0.8636,0.3556 z"
         style="font-style:normal;font-variant:normal;font-weight:normal;font-stretch:normal;font-size:50.79999924px;line-height:1.14999998;font-family:Heavitas;-inkscape-font-specification:Heavitas;text-align:center;text-anchor:middle;fill:none;stroke:#000000;stroke-width:1;stroke-miterlimit:4;stroke-dasharray:none;stroke-opacity:1"
         id="path2404"
         inkscape:connector-curvature="0" />
      <path
         d="m 113.39474,114.02022 v 6.9088 q 0,0.508 -0.3556,0.8636 -0.3556,0.3556 -0.8636,0.3556 H 86.826343 q -0.5588,0 -0.9144,-0.3556 -0.3048,-0.3556 -0.3048,-0.8636 V 86.181817 q 0,-0.508 0.3048,-0.8636 0.3556,-0.3556 0.9144,-0.3556 h 7.62 q 0.508,0 0.8636,0.3556 0.3556,0.3556 0.3556,0.8636 v 25.400003 q 0,0.508 0.3048,0.8636 0.3556,0.3556 0.9144,0.3556 h 15.290797 q 0.508,0 0.8636,0.3556 0.3556,0.3556 0.3556,0.8636 z"
         style="font-style:normal;font-variant:normal;font-weight:normal;font-stretch:normal;font-size:50.79999924px;line-height:1.14999998;font-family:Heavitas;-inkscape-font-specification:Heavitas;text-align:center;text-anchor:middle;fill:none;stroke:#000000;stroke-width:1;stroke-miterlimit:4;stroke-dasharray:none;stroke-opacity:1"
         id="path2406"
         inkscape:connector-curvature="0" />
      <path
         d="m 126.20825,122.14822 h -7.6708 q -0.5588,0 -0.9144,-0.3556 -0.3048,-0.3556 -0.3048,-0.8636 V 86.232617 q 0,-0.508 0.3048,-0.8636 0.3556,-0.3556 0.9144,-0.3556 h 7.6708 q 0.508,0 0.8636,0.3556 0.3556,0.3556 0.3556,0.8636 v 34.696403 q 0,0.508 -0.3556,0.8636 -0.3556,0.3556 -0.8636,0.3556 z"
         style="font-style:normal;font-variant:normal;font-weight:normal;font-stretch:normal;font-size:50.79999924px;line-height:1.14999998;font-family:Heavitas;-inkscape-font-specification:Heavitas;text-align:center;text-anchor:middle;fill:none;stroke:#000000;stroke-width:1;stroke-miterlimit:4;stroke-dasharray:none;stroke-opacity:1"
         id="path2408"
         inkscape:connector-curvature="0" />
      <path
         d="m 138.39232,109.39742 q 2.7432,1.778 5.4356,2.794 2.6924,1.016 5.0292,1.016 2.2352,0 3.4036,-0.6096 1.1684,-0.6604 1.1684,-1.9304 0,-0.6604 -0.508,-1.016 -0.508,-0.4064 -1.3716,-0.6604 -0.8128,-0.254 -1.9304,-0.4064 -1.1176,-0.1524 -2.286,-0.4064 -1.1176,-0.2032 -2.6416,-0.4572 -1.4732,-0.3048 -3.048,-0.8128 -1.5748,-0.5588 -3.1496,-1.3716 -1.524,-0.8128 -2.7432,-2.0828 -1.2192,-1.27 -1.9812,-2.9972 -0.7112,-1.778003 -0.7112,-4.165603 0,-3.5052 1.3716,-5.7912 1.3716,-2.286 3.4544,-3.6068 2.1336,-1.3716 4.7244,-1.8796 2.5908,-0.5588 5.0292,-0.5588 4.2672,0 7.62,1.27 3.4036,1.2192 6.5024,3.6068 0.4064,0.3556 0.4572,0.8636 0.0508,0.508 -0.254,0.9144 l -3.9624,5.6388 q -0.3048,0.4064 -0.8128,0.508 -0.508,0.1016 -0.9144,-0.2032 -2.5908,-1.6256 -4.826,-2.286 -2.2352,-0.7112 -4.1148,-0.7112 -0.5588,0 -1.3208,0.0508 -0.7112,0 -1.3716,0.2032 -0.6604,0.1524 -1.1176,0.5588 -0.4064,0.4064 -0.4064,1.1176 0,0.7112 1.0668,1.27 1.0668,0.5588 2.4384,0.9652 1.3716,0.4064 2.6416,0.6604 1.27,0.2032 1.6256,0.254 1.8288,0.3556 4.0132,1.066803 2.1844,0.6604 4.064,2.032 1.9304,1.3208 3.2004,3.5052 1.3208,2.1336 1.3208,5.3848 0,3.048 -1.0668,5.2832 -1.0668,2.1844 -2.9972,3.6068 -1.8796,1.4224 -4.572,2.1336 -2.6416,0.6604 -5.8928,0.6604 -2.6416,0 -4.9276,-0.4572 -2.286,-0.4064 -4.2672,-1.1684 -1.9812,-0.762 -3.7084,-1.778 -1.6764,-1.0668 -3.0988,-2.2352 -0.4064,-0.3048 -0.4572,-0.8128 -0.0508,-0.5588 0.254,-0.9652 l 3.9116,-5.6388 q 0.3048,-0.4064 0.8128,-0.508 0.508,-0.1016 0.9144,0.1524 z"
         style="font-style:normal;font-variant:normal;font-weight:normal;font-stretch:normal;font-size:50.79999924px;line-height:1.14999998;font-family:Heavitas;-inkscape-font-specification:Heavitas;text-align:center;text-anchor:middle;fill:none;stroke:#000000;stroke-width:1;stroke-miterlimit:4;stroke-dasharray:none;stroke-opacity:1"
         id="path2410"
         inkscape:connector-curvature="0" />
      <path
         style="font-style:normal;font-variant:normal;font-weight:normal;font-stretch:normal;font-size:50.79999924px;line-height:1.14999998;font-family:Heavitas;-inkscape-font-specification:Heavitas;text-align:center;text-anchor:middle;fill:none;stroke:#000000;stroke-width:3.77952766;stroke-miterlimit:4;stroke-dasharray:none;stroke-opacity:1"
         d="m 1115.4062,338.36328 c -1.408,0 -2.7512,0.44775 -4.0312,1.34375 -1.152,0.768 -1.9841,1.72886 -2.4961,2.88086 l -55.6797,129.98438 c -0.512,1.024 -0.7042,1.9195 -0.5762,2.6875 0.128,0.768 0.449,1.40792 0.961,1.91992 0.384,0.512 0.9585,0.89634 1.7265,1.15234 0.64,0.256 1.28,0.38281 1.92,0.38281 h 33.0254 c 1.28,0 2.4944,-0.38434 3.6464,-1.15234 1.0226,-0.71582 1.7899,-1.51532 2.3223,-2.39453 l 20.7852,-52.20508 c 0.058,-0.3481 0.1515,-0.70481 0.3183,-1.08008 l 3.0684,-7.42383 28.4277,-71.40039 -0.2012,-0.4707 c -0.512,-1.152 -1.4075,-2.11286 -2.6875,-2.88086 -1.152,-0.896 -2.3684,-1.34375 -3.6484,-1.34375 z m 41.8614,24.35742 -20.4707,51.41602 c 1.1775,2.81278 2.27,5.45721 3.1855,7.74609 0.64,1.152 0.64,2.17627 0,3.07227 -0.512,0.768 -1.4075,1.15234 -2.6875,1.15234 h -5.2656 l -12.9961,32.64063 h 29.9746 c 1.28,0 2.4945,0.44775 3.6465,1.34375 1.28,0.768 2.2409,1.7269 2.8809,2.8789 l 5.1836,11.52149 c 0.64,1.152 1.5354,2.17431 2.6874,3.07031 1.28,0.768 2.6253,1.15234 4.0333,1.15234 h 32.832 c 2.048,0 3.3912,-0.63992 4.0312,-1.91992 0.768,-1.28 0.8968,-2.49644 0.3848,-3.64844 z"
         transform="matrix(0.26458333,0,0,0.26458333,-114.90475,-4.5119061)"
         id="path2412"
         inkscape:connector-curvature="0" />
      <path
         d="m 227.91301,94.309817 h -7.112 q -0.508,0 -0.8636,0.3556 -0.3556,0.3556 -0.3556,0.8636 v 25.400003 q 0,0.508 -0.3556,0.8636 -0.3048,0.3556 -0.8636,0.3556 h -7.62 q -0.508,0 -0.8636,-0.3556 -0.3556,-0.3556 -0.3556,-0.8636 V 95.529017 q 0,-0.508 -0.3556,-0.8636 -0.3048,-0.3556 -0.8636,-0.3556 h -7.2136 q -0.508,0 -0.8636,-0.3556 -0.3556,-0.3556 -0.3556,-0.8636 v -6.9088 q 0,-0.508 0.3556,-0.8636 0.3556,-0.3556 0.8636,-0.3556 h 26.8224 q 0.5588,0 0.8636,0.3556 0.3556,0.3556 0.3556,0.8636 v 6.9088 q 0,0.508 -0.3556,0.8636 -0.3048,0.3556 -0.8636,0.3556 z"
         style="font-style:normal;font-variant:normal;font-weight:normal;font-stretch:normal;font-size:50.79999924px;line-height:1.14999998;font-family:Heavitas;-inkscape-font-specification:Heavitas;text-align:center;text-anchor:middle;fill:none;stroke:#000000;stroke-width:1;stroke-miterlimit:4;stroke-dasharray:none;stroke-opacity:1"
         id="path2414"
         inkscape:connector-curvature="0" />
      <path
         d="m 242.29419,122.14822 h -7.6708 q -0.5588,0 -0.9144,-0.3556 -0.3048,-0.3556 -0.3048,-0.8636 V 86.232617 q 0,-0.508 0.3048,-0.8636 0.3556,-0.3556 0.9144,-0.3556 h 7.6708 q 0.508,0 0.8636,0.3556 0.3556,0.3556 0.3556,0.8636 v 34.696403 q 0,0.508 -0.3556,0.8636 -0.3556,0.3556 -0.8636,0.3556 z"
         style="font-style:normal;font-variant:normal;font-weight:normal;font-stretch:normal;font-size:50.79999924px;line-height:1.14999998;font-family:Heavitas;-inkscape-font-specification:Heavitas;text-align:center;text-anchor:middle;fill:none;stroke:#000000;stroke-width:1;stroke-miterlimit:4;stroke-dasharray:none;stroke-opacity:1"
         id="path2416"
         inkscape:connector-curvature="0" />
      <path
         style="font-style:normal;font-variant:normal;font-weight:normal;font-stretch:normal;font-size:50.79999924px;line-height:1.14999998;font-family:Heavitas;-inkscape-font-specification:Heavitas;text-align:center;text-anchor:middle;fill:none;stroke:#000000;stroke-width:3.77952766;stroke-miterlimit:4;stroke-dasharray:none;stroke-opacity:1"
         d="m 1439.5879,336.00781 c -7.4087,0.69454 -14.4845,2.4981 -21.2227,5.42774 -8.832,3.84 -16.511,9.08814 -23.039,15.74414 -6.528,6.528 -11.7128,14.20706 -15.5528,23.03906 -3.84,8.832 -5.7597,18.2406 -5.7597,28.22461 0,9.984 1.9197,19.39261 5.7597,28.22461 3.84,8.832 9.0248,16.57642 15.5528,23.23242 6.528,6.528 14.207,11.71078 23.039,15.55078 6.7382,2.92963 13.814,4.73319 21.2227,5.42774 v -36.88868 c -2.2082,-0.47991 -4.3559,-1.19158 -6.4395,-2.13867 -4.224,-2.048 -7.9347,-4.73645 -11.1347,-8.06445 -3.072,-3.328 -5.5049,-7.16753 -7.2969,-11.51953 -1.792,-4.352 -2.6875,-8.96022 -2.6875,-13.82422 0,-4.736 0.8955,-9.28081 2.6875,-13.63281 1.792,-4.48 4.2249,-8.31953 7.2969,-11.51953 3.2,-3.328 6.9107,-5.9511 11.1347,-7.8711 2.0836,-1.0102 4.2314,-1.76934 6.4395,-2.28125 z m 15.1172,0.11914 v 37.29883 c 1.8172,0.49536 3.593,1.15477 5.3242,1.99414 4.224,1.92 7.9367,4.5431 11.1367,7.8711 3.2,3.2 5.6943,7.03953 7.4863,11.51953 1.792,4.352 2.6895,8.89681 2.6895,13.63281 0,4.864 -0.8975,9.47222 -2.6895,13.82422 -1.792,4.352 -4.2863,8.19153 -7.4863,11.51953 -3.2,3.328 -6.9127,6.01645 -11.1367,8.06445 -1.7312,0.78689 -3.5071,1.4028 -5.3242,1.86719 v 37.04102 c 7.0034,-0.76647 13.7086,-2.52652 20.1074,-5.3086 8.832,-3.84 16.513,-9.02278 23.041,-15.55078 6.656,-6.656 11.9042,-14.40042 15.7442,-23.23242 3.84,-8.832 5.7597,-18.24061 5.7597,-28.22461 0,-9.98401 -1.9197,-19.39261 -5.7597,-28.22461 -3.84,-8.832 -9.0882,-16.51106 -15.7442,-23.03906 -6.528,-6.656 -14.209,-11.90414 -23.041,-15.74414 -6.3988,-2.78209 -13.1039,-4.54213 -20.1074,-5.3086 z"
         transform="matrix(0.26458333,0,0,0.26458333,-114.90475,-4.5119061)"
         id="path2418"
         inkscape:connector-curvature="0" />
      <path
         d="m 327.28098,86.181817 v 34.747203 q 0,0.508 -0.3556,0.8636 -0.3556,0.3556 -0.8636,0.3556 h -7.5184 q -0.508,0 -1.0668,-0.3048 -0.5588,-0.3048 -0.8636,-0.7112 l -13.2588,-18.6436 q -0.3048,-0.4064 -0.6604,-0.3048 -0.3048,0.0508 -0.3048,0.5588 v 18.1864 q 0,0.508 -0.3556,0.8636 -0.3556,0.3556 -0.8636,0.3556 h -7.5692 q -0.508,0 -0.8636,-0.3556 -0.3556,-0.3556 -0.3556,-0.8636 V 86.181817 q 0,-0.508 0.3556,-0.8636 0.3556,-0.3556 0.8636,-0.3556 h 7.62 q 0.508,0 1.0668,0.3048 0.5588,0.254 0.8636,0.6604 l 13.208,18.643603 q 0.3048,0.4064 0.6096,0.3556 0.3556,-0.0508 0.3556,-0.5588 V 86.181817 q 0,-0.508 0.3556,-0.8636 0.3556,-0.3556 0.8636,-0.3556 h 7.5184 q 0.508,0 0.8636,0.3556 0.3556,0.3556 0.3556,0.8636 z"
         style="font-style:normal;font-variant:normal;font-weight:normal;font-stretch:normal;font-size:50.79999924px;line-height:1.14999998;font-family:Heavitas;-inkscape-font-specification:Heavitas;text-align:center;text-anchor:middle;fill:none;stroke:#000000;stroke-width:1;stroke-miterlimit:4;stroke-dasharray:none;stroke-opacity:1"
         id="path2420"
         inkscape:connector-curvature="0" />
      <path
         style="font-style:normal;font-variant:normal;font-weight:normal;font-stretch:normal;font-size:50.79999924px;line-height:1.14999998;font-family:Heavitas;-inkscape-font-specification:Heavitas;text-align:center;text-anchor:middle;fill:none;stroke:#000000;stroke-width:3.77952766;stroke-miterlimit:4;stroke-dasharray:none;stroke-opacity:1"
         d="m 175.57422,558.9707 c -1.28,0 -2.36963,0.44775 -3.26563,1.34375 -0.896,0.896 -1.34375,1.98563 -1.34375,3.26563 V 694.9082 c 0,1.28 0.44775,2.36768 1.34375,3.26368 0.896,0.89599 1.98563,1.34374 3.26563,1.34374 h 28.99023 c 1.28,0 2.36963,-0.44775 3.26563,-1.34374 0.86995,-0.86996 1.30869,-1.9243 1.33398,-3.15626 V 558.9707 Z m 52.48828,0 v 35.32813 h 3.76758 c 2.688,0 5.05551,0.51311 7.10351,1.53711 2.048,0.896 3.7756,2.11243 5.1836,3.64844 1.408,1.536 2.43226,3.32699 3.07226,5.375 0.768,1.91999 1.15235,3.90317 1.15235,5.95117 0,3.968 -1.15303,7.55195 -3.45703,10.75195 -2.176,3.072 -5.6946,4.60938 -10.5586,4.60938 h -6.26367 v 35.51953 h 2.42188 c 9.34399,0 17.47276,-1.27985 24.38476,-3.83985 7.04,-2.688 12.86466,-6.27195 17.47266,-10.75195 4.736,-4.608 8.25459,-9.98491 10.55859,-16.12891 2.304,-6.272 3.45703,-12.99215 3.45703,-20.16015 0,-7.168 -1.40861,-13.88621 -4.22461,-20.15821 -2.688,-6.272 -6.39876,-11.77767 -11.13476,-16.51367 -4.608,-4.736 -10.11368,-8.44676 -16.51367,-11.13476 -6.272,-2.688 -12.99021,-4.03321 -20.15821,-4.03321 z"
         transform="matrix(0.26458333,0,0,0.26458333,-114.90475,-4.5119061)"
         id="path2422"
         inkscape:connector-curvature="0" />
      <path
         style="font-style:normal;font-variant:normal;font-weight:normal;font-stretch:normal;font-size:50.79999924px;line-height:1.14999998;font-family:Heavitas;-inkscape-font-specification:Heavitas;text-align:center;text-anchor:middle;fill:none;stroke:#000000;stroke-width:3.77952766;stroke-miterlimit:4;stroke-dasharray:none;stroke-opacity:1"
         d="m 375.13086,556.83984 v 37.20704 c 2.06184,0.50907 4.07098,1.22523 6.02344,2.17187 4.224,1.92 7.93672,4.54505 11.13672,7.87305 3.19999,3.2 5.69432,7.03953 7.48632,11.51953 1.792,4.352 2.68946,8.89681 2.68946,13.63281 0,4.864 -0.89746,9.47222 -2.68946,13.82422 -1.792,4.352 -4.28633,8.19153 -7.48632,11.51953 -3.2,3.328 -6.91272,6.01645 -11.13672,8.06445 -1.95242,0.88747 -3.96163,1.5579 -6.02344,2.03516 v 36.96094 c 7.25846,-0.72246 14.19396,-2.52141 20.80664,-5.39649 8.832,-3.84 16.51302,-9.02473 23.04102,-15.55273 6.656,-6.656 11.90414,-14.40042 15.74414,-23.23242 3.84,-8.832 5.75976,-18.23866 5.75976,-28.22266 0,-9.984 -1.91976,-19.39261 -5.75976,-28.22461 -3.84,-8.832 -9.08814,-16.51301 -15.74414,-23.04101 -6.528,-6.656 -14.20902,-11.90219 -23.04102,-15.74219 -6.61268,-2.87508 -13.54818,-4.67403 -20.80664,-5.39649 z m -15.11914,0.0371 c -7.15425,0.74096 -13.99609,2.52225 -20.52149,5.35938 -8.832,3.84 -16.51106,9.08619 -23.03906,15.74219 -6.528,6.528 -11.71273,14.20901 -15.55273,23.04101 -3.84,8.832 -5.75977,18.24061 -5.75977,28.22461 0,9.984 1.91977,19.39066 5.75977,28.22266 3.84,8.832 9.02473,16.57642 15.55273,23.23242 6.528,6.528 14.20706,11.71273 23.03906,15.55273 6.52541,2.83713 13.36724,4.61842 20.52149,5.35938 v -36.99219 c -1.96108,-0.47325 -3.87666,-1.1206 -5.73828,-1.9668 -4.224,-2.048 -7.93477,-4.73645 -11.13477,-8.06445 -3.072,-3.328 -5.50487,-7.16753 -7.29687,-11.51953 -1.792,-4.352 -2.6875,-8.96022 -2.6875,-13.82422 0,-4.736 0.8955,-9.28081 2.6875,-13.63281 1.792,-4.48 4.22487,-8.31953 7.29687,-11.51953 3.2,-3.328 6.91077,-5.95305 11.13477,-7.87305 1.86157,-0.90258 3.77726,-1.59285 5.73828,-2.09766 z"
         transform="matrix(0.26458333,0,0,0.26458333,-114.90475,-4.5119061)"
         id="path2424"
         inkscape:connector-curvature="0" />
      <path
         d="m 6.8782556,144.65261 q 0,-0.508 0.3556,-0.8636 0.3556,-0.3556 0.8636,-0.3556 h 7.6707994 q 0.508,0 0.8636,0.3556 0.3556,0.3556 0.3556,0.8636 v 20.574 q 0,1.9812 0.6096,3.302 0.6604,1.27 1.5748,2.032 0.9652,0.7112 2.032,1.016 1.0668,0.3048 1.9304,0.3048 0.8636,0 1.9304,-0.3048 1.0668,-0.3048 1.9812,-1.016 0.9144,-0.762 1.524,-2.032 0.6604,-1.3208 0.6604,-3.302 v -20.574 q 0,-0.508 0.3556,-0.8636 0.3556,-0.3556 0.8636,-0.3556 h 7.6708 q 0.508,0 0.8636,0.3556 0.3556,0.3556 0.3556,0.8636 v 20.574 q 0,3.6068 -1.1684,6.5532 -1.1176,2.9464 -3.2512,5.0292 -2.1336,2.0828 -5.1308,3.2512 -2.9972,1.1176 -6.6548,1.1176 -3.6576,0 -6.6548,-1.1176 -2.9972,-1.1684 -5.130799,-3.2512 -2.1336005,-2.0828 -3.3020004,-5.0292 -1.1684,-2.9464 -1.1684,-6.5532 z"
         style="font-style:normal;font-variant:normal;font-weight:normal;font-stretch:normal;font-size:50.79999924px;line-height:1.14999998;font-family:Heavitas;-inkscape-font-specification:Heavitas;text-align:center;text-anchor:middle;fill:none;stroke:#000000;stroke-width:1;stroke-miterlimit:4;stroke-dasharray:none;stroke-opacity:1"
         id="path2426"
         inkscape:connector-curvature="0" />
      <path
         style="font-style:normal;font-variant:normal;font-weight:normal;font-stretch:normal;font-size:50.79999924px;line-height:1.14999998;font-family:Heavitas;-inkscape-font-specification:Heavitas;text-align:center;text-anchor:middle;fill:none;stroke:#000000;stroke-width:3.77952766;stroke-miterlimit:4;stroke-dasharray:none;stroke-opacity:1"
         d="m 616.20703,558.9707 c -1.28,0 -2.36767,0.44775 -3.26367,1.34375 -0.896,0.896 -1.34375,1.98563 -1.34375,3.26563 V 694.9082 c 0,1.28 0.44775,2.36768 1.34375,3.26368 0.896,0.89599 1.98367,1.34374 3.26367,1.34374 h 28.60742 c 1.28,10e-6 2.36963,-0.44774 3.26563,-1.34374 0.87516,-0.87517 1.31558,-1.93623 1.33594,-3.17774 V 558.9707 Z m 52.10547,0 v 35.32813 h 6.07031 c 2.688,0 4.92871,0.57651 6.72071,1.72851 1.92,1.024 3.39201,2.36725 4.41601,4.03125 1.152,1.536 1.91874,3.20019 2.30274,4.99219 0.512,1.664 0.76953,3.13602 0.76953,4.41602 0,2.432 -0.44775,4.54393 -1.34375,6.33593 -0.896,1.792 -2.04903,3.32938 -3.45703,4.60938 -1.408,1.152 -2.94343,2.0475 -4.60743,2.6875 -1.664,0.512 -3.26478,0.76758 -4.80078,0.76758 h -6.07031 v 42.87304 c 3.04769,4.30295 6.09489,8.57921 9.14258,12.80665 4.096,5.504 8.19306,10.94431 12.28906,16.32031 0.768,1.024 1.85567,1.9195 3.26367,2.6875 1.536,0.64 2.94266,0.96093 4.22266,0.96093 h 35.71289 c 1.28,0 2.11209,-0.57651 2.49609,-1.72851 0.384,-1.28 0.19183,-2.43108 -0.57617,-3.45508 -4.224,-5.632 -9.02439,-11.841 -14.40039,-18.625 -5.376,-6.784 -10.49537,-13.37539 -15.35937,-19.77539 -0.768,-1.024 -1.02358,-2.04827 -0.76758,-3.07226 0.384,-1.152 1.08733,-2.11286 2.11133,-2.88086 3.072,-1.92 5.82385,-4.28752 8.25585,-7.10352 2.43201,-2.944 4.54394,-6.20702 6.33594,-9.79102 1.792,-3.584 3.13525,-7.36012 4.03125,-11.32812 1.024,-4.096 1.53711,-8.19306 1.53711,-12.28906 0,-7.424 -1.27984,-14.20757 -3.83984,-20.35157 -2.432,-6.144 -5.88914,-11.45554 -10.36914,-15.93554 -4.352,-4.48 -9.66355,-7.93714 -15.93555,-10.36914 -6.272,-2.56 -13.11897,-3.83985 -20.54297,-3.83985 z"
         transform="matrix(0.26458333,0,0,0.26458333,-114.90475,-4.5119061)"
         id="path2428"
         inkscape:connector-curvature="0" />
      <path
         d="m 128.57521,172.44021 v 6.9088 q 0,0.508 -0.3556,0.8636 -0.3556,0.3556 -0.8636,0.3556 h -25.3492 q -0.5588,0 -0.9144,-0.3556 -0.3048,-0.3556 -0.3048,-0.8636 v -34.7472 q 0,-0.508 0.3048,-0.8636 0.3556,-0.3556 0.9144,-0.3556 h 7.62 q 0.508,0 0.8636,0.3556 0.3556,0.3556 0.3556,0.8636 v 25.4 q 0,0.508 0.3048,0.8636 0.3556,0.3556 0.9144,0.3556 h 15.2908 q 0.508,0 0.8636,0.3556 0.3556,0.3556 0.3556,0.8636 z"
         style="font-style:normal;font-variant:normal;font-weight:normal;font-stretch:normal;font-size:50.79999924px;line-height:1.14999998;font-family:Heavitas;-inkscape-font-specification:Heavitas;text-align:center;text-anchor:middle;fill:none;stroke:#000000;stroke-width:1;stroke-miterlimit:4;stroke-dasharray:none;stroke-opacity:1"
         id="path2430"
         inkscape:connector-curvature="0" />
      <path
         d="m 137.68032,156.59061 h -5.588 q -0.508,0 -0.9144,-0.3556 -0.3556,-0.3556 -0.4064,-0.8636 l -0.8636,-11.2268 q -0.0508,-0.508 0.254,-0.8636 0.3556,-0.3556 0.8636,-0.3556 h 7.6708 q 0.508,0 0.8128,0.3556 0.3556,0.3556 0.3048,0.8636 l -0.8128,11.2268 q -0.0508,0.508 -0.4572,0.8636 -0.3556,0.3556 -0.8636,0.3556 z"
         style="font-style:normal;font-variant:normal;font-weight:normal;font-stretch:normal;font-size:50.79999924px;line-height:1.14999998;font-family:Heavitas;-inkscape-font-specification:Heavitas;text-align:center;text-anchor:middle;fill:none;stroke:#000000;stroke-width:1;stroke-miterlimit:4;stroke-dasharray:none;stroke-opacity:1"
         id="path2432"
         inkscape:connector-curvature="0" />
      <path
         style="font-style:normal;font-variant:normal;font-weight:normal;font-stretch:normal;font-size:50.79999924px;line-height:1.14999998;font-family:Heavitas;-inkscape-font-specification:Heavitas;text-align:center;text-anchor:middle;fill:none;stroke:#000000;stroke-width:3.77952766;stroke-miterlimit:4;stroke-dasharray:none;stroke-opacity:1"
         d="m 1007.7812,559.16406 c -1.4079,0 -2.7512,0.44775 -4.0312,1.34375 -1.152,0.768 -1.9841,1.72691 -2.4961,2.87891 l -55.67968,129.98437 c -0.512,1.024 -0.70417,1.9195 -0.57617,2.6875 0.128,0.768 0.44893,1.40793 0.96093,1.91993 0.384,0.512 0.95857,0.89634 1.72657,1.15234 0.64,0.256 1.27992,0.38476 1.91992,0.38476 h 33.02539 c 1.28,0 2.49448,-0.38434 3.64648,-1.15234 1.20102,-0.84071 2.0513,-1.79914 2.57618,-2.86523 l 20.50198,-51.49024 c 0.04,-0.42276 0.1412,-0.85986 0.3476,-1.32422 l 4.9395,-11.95312 26.5937,-66.79102 -0.2383,-0.55273 c -0.512,-1.152 -1.4075,-2.11091 -2.6875,-2.87891 -1.152,-0.896 -2.3684,-1.34375 -3.6484,-1.34375 z m 41.8965,24.4375 -20.4707,51.41797 c 1.1635,2.78031 2.2438,5.39749 3.1504,7.66406 0.64,1.152 0.64,2.17627 0,3.07227 -0.512,0.768 -1.4075,1.15234 -2.6875,1.15234 h -5.1972 l -12.9961,32.63868 h 29.9062 c 1.28,-10e-6 2.4945,0.44775 3.6465,1.34374 1.28,0.76801 2.2409,1.72886 2.8809,2.88086 l 5.1836,11.51954 c 0.64,1.152 1.5354,2.17626 2.6874,3.07226 1.2801,0.768 2.6253,1.15234 4.0333,1.15234 h 32.832 c 2.048,0 3.3912,-0.63992 4.0312,-1.91992 0.768,-1.28 0.8968,-2.49643 0.3848,-3.64843 z"
         transform="matrix(0.26458333,0,0,0.26458333,-114.90475,-4.5119061)"
         id="path2434"
         inkscape:connector-curvature="0" />
      <path
         d="m 186.7547,179.45061 -15.3416,-34.5948 q -0.254,-0.5588 0,-1.016 0.2032,-0.4572 0.8636,-0.4572 h 8.2804 q 0.508,0 0.9652,0.3556 0.508,0.3048 0.762,0.762 l 8.9408,20.4216 q 0.254,0.4572 0.6604,0.4572 0.4064,0 0.6604,-0.4572 l 8.89,-20.4216 q 0.254,-0.4572 0.7112,-0.762 0.508,-0.3556 1.016,-0.3556 h 8.4328 q 0.5588,0 0.8128,0.4572 0.254,0.4064 0.0508,0.8128 l -15.494,34.798 q -0.254,0.4572 -0.762,0.8128 -0.4572,0.3048 -0.9652,0.3048 h -6.7564 q -0.508,0 -1.016,-0.3048 -0.4572,-0.3556 -0.7112,-0.8128 z"
         style="font-style:normal;font-variant:normal;font-weight:normal;font-stretch:normal;font-size:50.79999924px;line-height:1.14999998;font-family:Heavitas;-inkscape-font-specification:Heavitas;text-align:center;text-anchor:middle;fill:none;stroke:#000000;stroke-width:1;stroke-miterlimit:4;stroke-dasharray:none;stroke-opacity:1"
         id="path2436"
         inkscape:connector-curvature="0" />
      <path
         d="m 226.53509,153.94901 v 2.1336 q 0,0.508 0.3556,0.8636 0.3556,0.3556 0.8636,0.3556 h 13.7668 q 0.508,0 0.8636,0.3556 0.3556,0.3556 0.3556,0.8636 v 7.0104 q 0,0.508 -0.3556,0.8636 -0.3556,0.3556 -0.8636,0.3556 h -13.7668 q -0.508,0 -0.8636,0.3556 -0.3556,0.3556 -0.3556,0.8636 v 1.9304 q 0,0.508 0.3556,0.8636 0.3556,0.3556 0.8636,0.3556 h 15.7988 q 0.508,0 0.8636,0.3556 0.3556,0.3556 0.3556,0.8636 v 7.0104 q 0,0.508 -0.3556,0.8636 -0.3556,0.3556 -0.8636,0.3556 h -25.8572 q -0.508,0 -0.8636,-0.3556 -0.3556,-0.3556 -0.3556,-0.8636 v -34.7472 q 0,-0.508 0.3556,-0.8636 0.3556,-0.3556 0.8636,-0.3556 h 25.8572 q 0.508,0 0.8636,0.3556 0.3556,0.3556 0.3556,0.8636 v 6.9088 q 0,0.508 -0.3556,0.8636 -0.3556,0.3556 -0.8636,0.3556 h -15.7988 q -0.508,0 -0.8636,0.3556 -0.3556,0.3556 -0.3556,0.8636 z"
         style="font-style:normal;font-variant:normal;font-weight:normal;font-stretch:normal;font-size:50.79999924px;line-height:1.14999998;font-family:Heavitas;-inkscape-font-specification:Heavitas;text-align:center;text-anchor:middle;fill:none;stroke:#000000;stroke-width:1;stroke-miterlimit:4;stroke-dasharray:none;stroke-opacity:1"
         id="path2438"
         inkscape:connector-curvature="0" />
      <path
         d="m 286.20445,144.60181 v 34.7472 q 0,0.508 -0.3556,0.8636 -0.3556,0.3556 -0.8636,0.3556 h -7.5184 q -0.508,0 -1.0668,-0.3048 -0.5588,-0.3048 -0.8636,-0.7112 l -13.2588,-18.6436 q -0.3048,-0.4064 -0.6604,-0.3048 -0.3048,0.0508 -0.3048,0.5588 v 18.1864 q 0,0.508 -0.3556,0.8636 -0.3556,0.3556 -0.8636,0.3556 h -7.5692 q -0.508,0 -0.8636,-0.3556 -0.3556,-0.3556 -0.3556,-0.8636 v -34.7472 q 0,-0.508 0.3556,-0.8636 0.3556,-0.3556 0.8636,-0.3556 h 7.62 q 0.508,0 1.0668,0.3048 0.5588,0.254 0.8636,0.6604 l 13.208,18.6436 q 0.3048,0.4064 0.6096,0.3556 0.3556,-0.0508 0.3556,-0.5588 v -18.1864 q 0,-0.508 0.3556,-0.8636 0.3556,-0.3556 0.8636,-0.3556 h 7.5184 q 0.508,0 0.8636,0.3556 0.3556,0.3556 0.3556,0.8636 z"
         style="font-style:normal;font-variant:normal;font-weight:normal;font-stretch:normal;font-size:50.79999924px;line-height:1.14999998;font-family:Heavitas;-inkscape-font-specification:Heavitas;text-align:center;text-anchor:middle;fill:none;stroke:#000000;stroke-width:1;stroke-miterlimit:4;stroke-dasharray:none;stroke-opacity:1"
         id="path2440"
         inkscape:connector-curvature="0" />
      <path
         d="m 303.11527,180.56821 h -7.6708 q -0.5588,0 -0.9144,-0.3556 -0.3048,-0.3556 -0.3048,-0.8636 v -34.6964 q 0,-0.508 0.3048,-0.8636 0.3556,-0.3556 0.9144,-0.3556 h 7.6708 q 0.508,0 0.8636,0.3556 0.3556,0.3556 0.3556,0.8636 v 34.6964 q 0,0.508 -0.3556,0.8636 -0.3556,0.3556 -0.8636,0.3556 z"
         style="font-style:normal;font-variant:normal;font-weight:normal;font-stretch:normal;font-size:50.79999924px;line-height:1.14999998;font-family:Heavitas;-inkscape-font-specification:Heavitas;text-align:center;text-anchor:middle;fill:none;stroke:#000000;stroke-width:1;stroke-miterlimit:4;stroke-dasharray:none;stroke-opacity:1"
         id="path2442"
         inkscape:connector-curvature="0" />
      <path
         style="font-style:normal;font-variant:normal;font-weight:normal;font-stretch:normal;font-size:50.79999924px;line-height:1.14999998;font-family:Heavitas;-inkscape-font-specification:Heavitas;text-align:center;text-anchor:middle;fill:none;stroke:#000000;stroke-width:3.77952766;stroke-miterlimit:4;stroke-dasharray:none;stroke-opacity:1"
         d="m 1614.832,558.9707 c -1.28,0 -2.3676,0.44775 -3.2636,1.34375 -0.896,0.896 -1.3438,1.98563 -1.3438,3.26563 V 694.9082 c 0,1.28 0.4478,2.36768 1.3438,3.26368 0.896,0.89599 1.9836,1.34374 3.2636,1.34374 h 28.6075 c 1.28,10e-6 2.3696,-0.44774 3.2656,-1.34374 0.5903,-0.59032 0.9666,-1.2723 1.1679,-2.0293 V 558.9707 Z m 51.9375,0 v 35.32813 h 6.2383 c 2.688,0 4.9287,0.57651 6.7207,1.72851 1.92,1.024 3.392,2.36725 4.416,4.03125 1.152,1.536 1.9188,3.20019 2.3028,4.99219 0.512,1.664 0.7695,3.13602 0.7695,4.41602 0,2.432 -0.4478,4.54393 -1.3438,6.33593 -0.896,1.792 -2.049,3.32938 -3.457,4.60938 -1.408,1.152 -2.9434,2.0475 -4.6074,2.6875 -1.664,0.512 -3.2648,0.76758 -4.8008,0.76758 h -6.2383 v 42.63672 c 3.1036,4.38324 6.207,8.73803 9.3106,13.04297 4.096,5.504 8.193,10.94431 12.289,16.32031 0.768,1.024 1.8557,1.9195 3.2637,2.6875 1.536,0.64 2.9427,0.96093 4.2227,0.96093 h 35.7129 c 1.28,0 2.1121,-0.57651 2.4961,-1.72851 0.384,-1.28 0.1918,-2.43108 -0.5762,-3.45508 -4.224,-5.632 -9.0244,-11.841 -14.4004,-18.625 -5.376,-6.784 -10.4954,-13.37539 -15.3594,-19.77539 -0.768,-1.024 -1.0236,-2.04827 -0.7676,-3.07226 0.384,-1.152 1.0874,-2.11286 2.1114,-2.88086 3.072,-1.92 5.8238,-4.28752 8.2558,-7.10352 2.432,-2.944 4.544,-6.20702 6.336,-9.79102 1.792,-3.584 3.1352,-7.36012 4.0312,-11.32812 1.024,-4.096 1.5371,-8.19306 1.5371,-12.28906 0,-7.424 -1.2798,-14.20757 -3.8398,-20.35157 -2.432,-6.144 -5.8892,-11.45554 -10.3692,-15.93554 -4.352,-4.48 -9.6635,-7.93714 -15.9355,-10.36914 -6.272,-2.56 -13.119,-3.83985 -20.543,-3.83985 z"
         transform="matrix(0.26458333,0,0,0.26458333,-114.90475,-4.5119061)"
         id="path2444"
         inkscape:connector-curvature="0" />
    </g>
    <g
       aria-label="www.lc.cx/13-mars"
       style="font-style:normal;font-weight:normal;font-size:13.42885017px;line-height:1.25;font-family:sans-serif;letter-spacing:0px;word-spacing:0px;fill:none;fill-opacity:1;stroke:#000000;stroke-width:1;stroke-miterlimit:4;stroke-dasharray:none;stroke-opacity:1"
       id="text2205"
       transform="translate(-30.742361,-0.98292164)">
      <g
         style="font-style:normal;font-weight:normal;font-size:40px;line-height:1.25;font-family:sans-serif;letter-spacing:0px;word-spacing:0px;fill:none;fill-opacity:1;stroke:#000000;stroke-width:1;stroke-miterlimit:4;stroke-dasharray:none;stroke-opacity:1"
         id="flowRoot3573" />
      <g
         aria-label="YOUTH FOR CLIMATE {{ title }}"
         style="font-style:normal;font-weight:normal;font-size:29.10026169px;line-height:1.25;font-family:sans-serif;letter-spacing:0px;word-spacing:0px;fill:none;fill-opacity:1;stroke:#000000;stroke-width:1;stroke-miterlimit:4;stroke-dasharray:none;stroke-opacity:1"
         id="text3583">
         {{ title }}
        <path
           d="m -24.334117,223.30974 -7.275065,11.78561 q -0.145501,0.2619 -0.261903,0.6402 -0.116401,0.37831 -0.116401,0.66931 v 6.66396 q 0,0.291 -0.203701,0.49471 -0.203702,0.2037 -0.494705,0.2037 h -4.394139 q -0.291003,0 -0.494705,-0.2037 -0.203702,-0.20371 -0.203702,-0.49471 v -6.63486 q 0,-0.291 -0.116401,-0.6693 -0.0873,-0.40741 -0.232802,-0.64021 -1.746015,-2.99733 -3.579332,-5.87825 -1.804216,-2.88093 -3.608432,-5.93646 -0.145502,-0.2619 -0.0582,-0.5238 0.0873,-0.291 0.378303,-0.291 h 5.179847 q 0.291003,0 0.582005,0.1746 0.320103,0.1746 0.465604,0.4365 l 3.579333,6.22746 q 0.145501,0.2328 0.349203,0.2328 0.203702,0 0.349203,-0.2328 l 3.550232,-6.22746 q 0.145501,-0.2619 0.436504,-0.4365 0.320103,-0.1746 0.611105,-0.1746 h 5.238047 q 0.291003,0 0.407404,0.2037 0.145501,0.2037 -0.0873,0.6111 z"
           style="font-style:normal;font-variant:normal;font-weight:normal;font-stretch:normal;font-family:Heavitas;-inkscape-font-specification:Heavitas;fill:none;stroke:#000000;stroke-width:1;stroke-miterlimit:4;stroke-dasharray:none;stroke-opacity:1"
           id="path3671"
           inkscape:connector-curvature="0" />
        <path
           style="font-style:normal;font-variant:normal;font-weight:normal;font-stretch:normal;font-family:Heavitas;-inkscape-font-specification:Heavitas;fill:none;stroke:#000000;stroke-width:3.77952766;stroke-miterlimit:4;stroke-dasharray:none;stroke-opacity:1"
           d="m 388.71484,853.38477 v 21.97461 c 0.0962,0.0446 0.19335,0.0845 0.28907,0.13085 2.41967,1.09985 4.54582,2.60335 6.3789,4.50977 1.83309,1.83307 3.26254,4.03328 4.28907,6.59961 1.02652,2.493 1.54101,5.09562 1.54101,7.80859 0,2.7863 -0.51449,5.42692 -1.54101,7.91992 -1.02653,2.49301 -2.45598,4.69124 -4.28907,6.59766 -1.83308,1.90639 -3.95923,3.44595 -6.3789,4.61914 -0.0957,0.0435 -0.19287,0.0812 -0.28907,0.12305 v 21.76367 c 3.02031,-0.54289 5.94193,-1.41437 8.75782,-2.63867 5.05932,-2.19971 9.45972,-5.16871 13.19922,-8.9082 3.81282,-3.81282 6.81787,-8.24927 9.01757,-13.3086 2.19971,-5.05932 3.30078,-10.44874 3.30078,-16.16797 0,-5.71923 -1.10107,-11.10864 -3.30078,-16.16797 -2.1997,-5.05932 -5.20475,-9.45777 -9.01757,-13.19726 -3.7395,-3.81281 -8.1399,-6.81982 -13.19922,-9.01953 -2.81589,-1.2243 -5.73751,-2.09579 -8.75782,-2.63867 z m -15.11718,0.0527 c -2.91498,0.54669 -5.73723,1.40171 -8.46094,2.58594 -5.05932,2.19971 -9.45777,5.20672 -13.19727,9.01953 -3.7395,3.73949 -6.71045,8.13794 -8.91015,13.19726 -2.19971,5.05933 -3.29883,10.44874 -3.29883,16.16797 0,5.71923 1.09912,11.10865 3.29883,16.16797 2.1997,5.05933 5.17065,9.49578 8.91015,13.3086 3.7395,3.73949 8.13795,6.70849 13.19727,8.9082 2.72371,1.18423 5.54596,2.03924 8.46094,2.58594 v -21.83789 c -2.41639,-1.17271 -4.54001,-2.71093 -6.3711,-4.61524 -1.75976,-1.90642 -3.15316,-4.10465 -4.17968,-6.59766 -1.02653,-2.493 -1.53907,-5.13362 -1.53907,-7.91992 0,-2.71297 0.51254,-5.31559 1.53907,-7.80859 1.02652,-2.56633 2.41992,-4.76654 4.17968,-6.59961 1.83107,-1.90431 3.95474,-3.40634 6.3711,-4.50586 z"
           transform="matrix(0.26458333,0,0,0.26458333,-114.85407,-3.5289845)"
           id="path3673"
           inkscape:connector-curvature="0" />
        <path
           d="m 0.0628158,223.19334 q 0,-0.291 0.20370184,-0.4947 0.20370183,-0.2037 0.49470444,-0.2037 H 5.1553616 q 0.2910026,0 0.4947044,0.2037 0.2037019,0.2037 0.2037019,0.4947 v 11.78561 q 0,1.13491 0.3492031,1.89152 0.3783034,0.7275 0.9021081,1.16401 0.552905,0.4074 1.1640105,0.582 0.6111055,0.1746 1.1058099,0.1746 0.4947045,0 1.1058095,-0.1746 0.611106,-0.1746 1.134911,-0.582 0.523804,-0.43651 0.873008,-1.16401 0.378303,-0.75661 0.378303,-1.89152 v -11.78561 q 0,-0.291 0.203702,-0.4947 0.203702,-0.2037 0.494704,-0.2037 h 4.39414 q 0.291002,0 0.494704,0.2037 0.203702,0.2037 0.203702,0.4947 v 11.78561 q 0,2.06612 -0.669306,3.75393 -0.640206,1.68782 -1.862417,2.88093 -1.222211,1.19311 -2.939126,1.86241 -1.716916,0.64021 -3.8121345,0.64021 -2.0952188,0 -3.8121342,-0.64021 -1.7169155,-0.6693 -2.9391265,-1.86241 -1.222211,-1.19311 -1.89151698,-2.88093 -0.66930602,-1.68781 -0.66930602,-3.75393 z"
           style="font-style:normal;font-variant:normal;font-weight:normal;font-stretch:normal;font-family:Heavitas;-inkscape-font-specification:Heavitas;fill:none;stroke:#000000;stroke-width:1;stroke-miterlimit:4;stroke-dasharray:none;stroke-opacity:1"
           id="path3675"
           inkscape:connector-curvature="0" />
        <path
           d="M 36.935577,227.82028 H 32.86154 q -0.291002,0 -0.494704,0.20371 -0.203702,0.2037 -0.203702,0.4947 v 14.55013 q 0,0.291 -0.203702,0.49471 -0.174601,0.2037 -0.494704,0.2037 h -4.365039 q -0.291003,0 -0.494705,-0.2037 -0.203702,-0.20371 -0.203702,-0.49471 v -14.55013 q 0,-0.291 -0.203701,-0.4947 -0.174602,-0.20371 -0.494705,-0.20371 h -4.132237 q -0.291003,0 -0.494705,-0.2037 -0.203701,-0.2037 -0.203701,-0.4947 v -3.95764 q 0,-0.291 0.203701,-0.4947 0.203702,-0.2037 0.494705,-0.2037 h 15.364938 q 0.320103,0 0.494705,0.2037 0.203701,0.2037 0.203701,0.4947 v 3.95764 q 0,0.291 -0.203701,0.4947 -0.174602,0.2037 -0.494705,0.2037 z"
           style="font-style:normal;font-variant:normal;font-weight:normal;font-stretch:normal;font-family:Heavitas;-inkscape-font-specification:Heavitas;fill:none;stroke:#000000;stroke-width:1;stroke-miterlimit:4;stroke-dasharray:none;stroke-opacity:1"
           id="path3677"
           inkscape:connector-curvature="0" />
        <path
           d="m 58.821701,223.16424 v 19.90458 q 0,0.291 -0.203702,0.49471 -0.203701,0.2037 -0.494704,0.2037 h -4.365039 q -0.320103,0 -0.523805,-0.2037 -0.174602,-0.20371 -0.174602,-0.49471 v -6.22746 q 0,-0.291 -0.203701,-0.4947 -0.203702,-0.2037 -0.494705,-0.2037 h -5.994654 q -0.320103,0 -0.523804,0.2037 -0.174602,0.2037 -0.174602,0.4947 v 6.22746 q 0,0.291 -0.203702,0.49471 -0.203702,0.2037 -0.494704,0.2037 h -4.335939 q -0.320103,0 -0.523805,-0.2037 -0.174602,-0.20371 -0.174602,-0.49471 v -19.90458 q 0,-0.291 0.174602,-0.4947 0.203702,-0.2037 0.523805,-0.2037 h 4.335939 q 0.291002,0 0.494704,0.2037 0.203702,0.2037 0.203702,0.4947 v 6.89676 q 0,0.29101 0.174602,0.49471 0.203701,0.2037 0.523804,0.2037 h 5.994654 q 0.291003,0 0.494705,-0.2037 0.203701,-0.2037 0.203701,-0.49471 v -6.89676 q 0,-0.291 0.174602,-0.4947 0.203702,-0.2037 0.523805,-0.2037 h 4.365039 q 0.291003,0 0.494704,0.2037 0.203702,0.2037 0.203702,0.4947 z"
           style="font-style:normal;font-variant:normal;font-weight:normal;font-stretch:normal;font-family:Heavitas;-inkscape-font-specification:Heavitas;fill:none;stroke:#000000;stroke-width:1;stroke-miterlimit:4;stroke-dasharray:none;stroke-opacity:1"
           id="path3679"
           inkscape:connector-curvature="0" />
        <path
           d="M 78.859503,228.54779 V 229.77 q 0,0.291 0.203702,0.49471 0.203702,0.2037 0.494705,0.2037 h 7.85707 q 0.291003,0 0.494705,0.2037 0.203702,0.2037 0.203702,0.4947 v 4.07404 q 0,0.291 -0.203702,0.4947 -0.203702,0.20371 -0.494705,0.20371 h -7.85707 q -0.291003,0 -0.494705,0.2037 -0.203702,0.2037 -0.203702,0.4947 v 6.43116 q 0,0.291 -0.203701,0.49471 -0.203702,0.2037 -0.494705,0.2037 h -4.394139 q -0.291003,0 -0.494705,-0.2037 -0.203702,-0.20371 -0.203702,-0.49471 v -19.90458 q 0,-0.291 0.203702,-0.4947 0.203702,-0.2037 0.494705,-0.2037 h 14.812033 q 0.291002,0 0.494704,0.2037 0.203702,0.2037 0.203702,0.4947 v 3.98674 q 0,0.291 -0.203702,0.4947 -0.203702,0.2037 -0.494704,0.2037 H 79.55791 q -0.291003,0 -0.494705,0.20371 -0.203702,0.2037 -0.203702,0.4947 z"
           style="font-style:normal;font-variant:normal;font-weight:normal;font-stretch:normal;font-family:Heavitas;-inkscape-font-specification:Heavitas;fill:none;stroke:#000000;stroke-width:1;stroke-miterlimit:4;stroke-dasharray:none;stroke-opacity:1"
           id="path3681"
           inkscape:connector-curvature="0" />
        <path
           style="font-style:normal;font-variant:normal;font-weight:normal;font-stretch:normal;font-family:Heavitas;-inkscape-font-specification:Heavitas;fill:none;stroke:#000000;stroke-width:3.77952766;stroke-miterlimit:4;stroke-dasharray:none;stroke-opacity:1"
           d="m 813.25,853.29883 c -3.19445,0.53346 -6.27866,1.43442 -9.24609,2.72461 -5.05932,2.19971 -9.45777,5.20672 -13.19727,9.01953 -3.7395,3.73949 -6.71045,8.13794 -8.91016,13.19726 -2.1997,5.05933 -3.29882,10.44874 -3.29882,16.16797 0,5.71923 1.09912,11.10865 3.29882,16.16797 2.19971,5.05933 5.17066,9.49578 8.91016,13.3086 3.7395,3.73949 8.13795,6.70849 13.19727,8.9082 2.96743,1.29019 6.05164,2.19115 9.24609,2.72461 v -21.64453 c -0.26044,-0.10446 -0.52021,-0.21125 -0.77734,-0.32813 -2.41968,-1.17319 -4.54582,-2.71275 -6.37891,-4.61914 -1.75976,-1.90642 -3.15316,-4.10465 -4.17969,-6.59766 -1.02652,-2.493 -1.53906,-5.13362 -1.53906,-7.91992 0,-2.71297 0.51254,-5.31559 1.53906,-7.80859 1.02653,-2.56633 2.41993,-4.76654 4.17969,-6.59961 1.83309,-1.90642 3.95923,-3.40992 6.37891,-4.50977 0.25711,-0.12466 0.51691,-0.23819 0.77734,-0.34961 z m 15.11914,0.22656 v 22.21875 c 2.21004,1.07508 4.17737,2.48423 5.88086,4.25586 1.8331,1.83307 3.26254,4.03328 4.28906,6.59961 1.02655,2.493 1.54102,5.09562 1.54102,7.80859 0,2.7863 -0.51447,5.42692 -1.54102,7.91992 -1.02652,2.49301 -2.45596,4.69124 -4.28906,6.59766 -1.70345,1.77157 -3.67088,3.21316 -5.88086,4.35156 v 22.01368 c 2.74195,-0.54978 5.39923,-1.38002 7.9707,-2.49805 5.0593,-2.19971 9.45775,-5.16871 13.19727,-8.9082 3.81281,-3.81282 6.81982,-8.24927 9.01953,-13.3086 2.19971,-5.05932 3.29883,-10.44874 3.29883,-16.16797 0,-5.71923 -1.09912,-11.10864 -3.29883,-16.16797 -2.19971,-5.05932 -5.20672,-9.45777 -9.01953,-13.19726 -3.73952,-3.81281 -8.13797,-6.81982 -13.19727,-9.01953 -2.57147,-1.11804 -5.22875,-1.94827 -7.9707,-2.49805 z"
           transform="matrix(0.26458333,0,0,0.26458333,-114.85407,-3.5289845)"
           id="path3683"
           inkscape:connector-curvature="0" />
        <path
           style="font-style:normal;font-variant:normal;font-weight:normal;font-stretch:normal;font-family:Heavitas;-inkscape-font-specification:Heavitas;fill:none;stroke:#000000;stroke-width:3.77952766;stroke-miterlimit:4;stroke-dasharray:none;stroke-opacity:1"
           d="m 875.94727,854.1543 c -0.73323,0 -1.35589,0.25627 -1.86915,0.76953 -0.51325,0.51326 -0.76953,1.13591 -0.76953,1.86914 v 75.23047 c 0,0.73323 0.25628,1.35585 0.76953,1.86914 0.51326,0.51326 1.13592,0.76953 1.86915,0.76953 h 16.38867 c 0.73323,0 1.35585,-0.25627 1.86914,-0.76953 0.51326,-0.51329 0.76953,-1.13591 0.76953,-1.86914 v -17.81836 c 0,-0.0514 0.0112,-0.0981 0.0137,-0.14844 v -25.21875 c -0.003,-0.0503 -0.0137,-0.097 -0.0137,-0.14844 v -11.6582 c 0,-0.0514 0.0112,-0.0981 0.0137,-0.14844 V 854.1543 Z m 34.1582,0 v 20.2832 c 1.17228,0.10067 2.18387,0.40738 3.01758,0.94336 1.09984,0.58658 1.94269,1.35735 2.52929,2.31055 0.65991,0.87987 1.10035,1.83283 1.32032,2.85937 0.29329,0.9532 0.43945,1.79607 0.43945,2.5293 0,1.39316 -0.25627,2.60238 -0.76953,3.6289 -0.51326,1.02655 -1.17389,1.9074 -1.98047,2.64063 -0.80655,0.6599 -1.68548,1.17245 -2.63867,1.53906 -0.6569,0.20212 -1.29591,0.32975 -1.91797,0.39258 v 30.64063 c 0.30941,0.43053 0.61833,0.87355 0.92773,1.30273 2.34633,3.15291 4.69271,6.26807 7.03907,9.34766 0.43993,0.58658 1.06256,1.10105 1.86914,1.54101 0.87987,0.36662 1.68669,0.54883 2.41992,0.54883 h 20.45703 c 0.73323,0 1.20972,-0.32835 1.42969,-0.98828 0.21999,-0.73323 0.10988,-1.39389 -0.33008,-1.98047 -2.41968,-3.22623 -5.16846,-6.78181 -8.24805,-10.66797 -3.07958,-3.88613 -6.01253,-7.66391 -8.79883,-11.33008 -0.43993,-0.58658 -0.5861,-1.17316 -0.43945,-1.75976 0.21997,-0.65991 0.6224,-1.2085 1.20898,-1.64844 1.75978,-1.09984 3.33731,-2.45719 4.73047,-4.07031 1.39314,-1.68645 2.60239,-3.55634 3.62891,-5.60938 1.02654,-2.05306 1.79729,-4.21525 2.31055,-6.48828 0.58658,-2.34636 0.8789,-4.69271 0.8789,-7.03906 0,-4.25275 -0.73276,-8.13868 -2.19922,-11.6582 -1.39315,-3.51955 -3.37312,-6.56259 -5.93945,-9.12891 -2.493,-2.5663 -5.53606,-4.5463 -9.1289,-5.93945 -3.59285,-1.46646 -7.51481,-2.19922 -11.76758,-2.19922 z"
           transform="matrix(0.26458333,0,0,0.26458333,-114.85407,-3.5289845)"
           id="path3685"
           inkscape:connector-curvature="0" />
        <path
           d="m 167.6726,238.09268 q -0.84391,1.36771 -1.86242,2.50262 -1.01851,1.10581 -2.29892,1.89152 -1.25131,0.7857 -2.79363,1.22221 -1.54231,0.4365 -3.40473,0.4365 -2.32802,0 -4.36504,-0.87301 -2.03701,-0.87301 -3.57933,-2.35712 -1.51321,-1.48411 -2.38622,-3.49203 -0.87301,-2.00792 -0.87301,-4.27774 0,-2.26982 0.87301,-4.27774 0.87301,-2.00791 2.38622,-3.49203 1.54232,-1.48411 3.57933,-2.35712 2.03702,-0.87301 4.36504,-0.87301 1.92062,0 3.46294,0.43651 1.54231,0.4365 2.79362,1.22221 1.25131,0.7857 2.24072,1.92061 1.01851,1.10581 1.86242,2.44443 0.1455,0.2328 0.0582,0.4947 -0.0873,0.2619 -0.34921,0.3783 l -4.13223,1.62962 q -0.29101,0.1164 -0.58201,0 -0.291,-0.1164 -0.4365,-0.3492 -0.84391,-1.33862 -2.03702,-2.03702 -1.19311,-0.72751 -2.88093,-0.72751 -1.10581,0 -2.09521,0.46561 -0.96031,0.4656 -1.68782,1.25131 -0.72751,0.7566 -1.13491,1.77511 -0.4074,1.01851 -0.4074,2.09522 0,1.10581 0.4074,2.12432 0.4074,0.98941 1.13491,1.74602 0.72751,0.7566 1.68782,1.22221 0.9894,0.4656 2.09521,0.4656 1.60052,0 2.88093,-0.75661 1.30951,-0.7857 2.06612,-2.00791 0.1455,-0.23281 0.4074,-0.34921 0.291,-0.1164 0.58201,0 l 4.13223,1.62962 q 0.26191,0.1164 0.34921,0.3783 0.0873,0.2328 -0.0582,0.49471 z"
           style="font-style:normal;font-variant:normal;font-weight:normal;font-stretch:normal;font-family:Heavitas;-inkscape-font-specification:Heavitas;fill:none;stroke:#000000;stroke-width:1;stroke-miterlimit:4;stroke-dasharray:none;stroke-opacity:1"
           id="path3687"
           inkscape:connector-curvature="0" />
        <path
           d="m 185.72203,239.11119 v 3.95763 q 0,0.291 -0.2037,0.49471 -0.20371,0.2037 -0.49471,0.2037 h -14.52103 q -0.3201,0 -0.5238,-0.2037 -0.1746,-0.20371 -0.1746,-0.49471 v -19.90458 q 0,-0.291 0.1746,-0.4947 0.2037,-0.2037 0.5238,-0.2037 h 4.36504 q 0.291,0 0.49471,0.2037 0.2037,0.2037 0.2037,0.4947 v 14.55013 q 0,0.29101 0.1746,0.49471 0.2037,0.2037 0.5238,0.2037 h 8.75918 q 0.291,0 0.49471,0.2037 0.2037,0.2037 0.2037,0.49471 z"
           style="font-style:normal;font-variant:normal;font-weight:normal;font-stretch:normal;font-family:Heavitas;-inkscape-font-specification:Heavitas;fill:none;stroke:#000000;stroke-width:1;stroke-miterlimit:4;stroke-dasharray:none;stroke-opacity:1"
           id="path3689"
           inkscape:connector-curvature="0" />
        <path
           d="m 193.06211,243.76723 h -4.39414 q -0.32011,0 -0.52381,-0.2037 -0.1746,-0.20371 -0.1746,-0.49471 v -19.87548 q 0,-0.291 0.1746,-0.4947 0.2037,-0.2037 0.52381,-0.2037 h 4.39414 q 0.291,0 0.4947,0.2037 0.2037,0.2037 0.2037,0.4947 v 19.87548 q 0,0.291 -0.2037,0.49471 -0.2037,0.2037 -0.4947,0.2037 z"
           style="font-style:normal;font-variant:normal;font-weight:normal;font-stretch:normal;font-family:Heavitas;-inkscape-font-specification:Heavitas;fill:none;stroke:#000000;stroke-width:1;stroke-miterlimit:4;stroke-dasharray:none;stroke-opacity:1"
           id="path3691"
           inkscape:connector-curvature="0" />
        <path
           d="m 221.40121,223.19334 v 19.87548 q 0,0.291 -0.2037,0.49471 -0.2037,0.2037 -0.4947,0.2037 h -4.39414 q -0.291,0 -0.49471,-0.2037 -0.2037,-0.20371 -0.2037,-0.49471 v -9.37028 q 0,-0.29101 -0.2619,-0.32011 -0.2619,-0.0291 -0.4365,0.20371 l -4.88885,7.88617 q -0.1455,0.2328 -0.4656,0.2328 -0.32011,0 -0.49471,-0.2328 l -4.88884,-7.88617 q -0.1455,-0.23281 -0.4074,-0.20371 -0.26191,0.0291 -0.26191,0.32011 v 9.37028 q 0,0.291 -0.2037,0.49471 -0.2037,0.2037 -0.4947,0.2037 h -4.39414 q -0.29101,0 -0.49471,-0.2037 -0.2037,-0.20371 -0.2037,-0.49471 v -19.87548 q 0,-0.291 0.2037,-0.4947 0.2037,-0.2037 0.49471,-0.2037 h 4.07403 q 0.29101,0 0.61111,0.1746 0.3201,0.1746 0.4656,0.4074 l 5.58725,8.20627 q 0.17461,0.23281 0.40741,0.23281 0.2328,0 0.3783,-0.23281 l 5.58725,-8.20627 q 0.1746,-0.2328 0.49471,-0.4074 0.3201,-0.1746 0.6111,-0.1746 h 4.07404 q 0.291,0 0.4947,0.2037 0.2037,0.2037 0.2037,0.4947 z"
           style="font-style:normal;font-variant:normal;font-weight:normal;font-stretch:normal;font-family:Heavitas;-inkscape-font-specification:Heavitas;fill:none;stroke:#000000;stroke-width:1;stroke-miterlimit:4;stroke-dasharray:none;stroke-opacity:1"
           id="path3693"
           inkscape:connector-curvature="0" />
        <path
           style="font-style:normal;font-variant:normal;font-weight:normal;font-stretch:normal;font-family:Heavitas;-inkscape-font-specification:Heavitas;fill:none;stroke:#000000;stroke-width:3.77952766;stroke-miterlimit:4;stroke-dasharray:none;stroke-opacity:1"
           d="m 1314.2129,854.26367 c -0.8066,0 -1.5754,0.25627 -2.3086,0.76953 -0.6599,0.43994 -1.1364,0.99049 -1.4297,1.65039 l -31.8965,74.45899 c -0.2933,0.58658 -0.4034,1.10108 -0.3301,1.54101 0.073,0.43994 0.2575,0.8063 0.5508,1.09961 0.22,0.29329 0.5483,0.51351 0.9883,0.66016 0.3666,0.14665 0.735,0.21875 1.1016,0.21875 h 18.916 c 0.7332,0 1.4299,-0.21827 2.0898,-0.6582 0.1814,-0.12694 0.3495,-0.26059 0.5039,-0.39649 l 31.1387,-76.23437 -0.2969,-0.68946 c -0.2933,-0.6599 -0.8058,-1.21045 -1.539,-1.65039 -0.6599,-0.51326 -1.3566,-0.76953 -2.0899,-0.76953 z m 27.6933,22.59961 -18.9355,46.36133 h 10.4902 c 0.7333,0 1.43,0.25627 2.0899,0.76953 0.7332,0.43994 1.2838,0.99046 1.6504,1.65039 l 2.9687,6.59961 c 0.3666,0.65991 0.8792,1.24648 1.5391,1.75977 0.7332,0.43993 1.504,0.6582 2.3105,0.6582 h 18.8067 c 1.1732,0 1.9439,-0.36636 2.3105,-1.09961 0.44,-0.73323 0.514,-1.42994 0.2207,-2.08984 z"
           transform="matrix(0.26458333,0,0,0.26458333,-114.85407,-3.5289845)"
           id="path3695"
           inkscape:connector-curvature="0" />
        <path
           d="m 260.18915,227.82028 h -4.07404 q -0.291,0 -0.4947,0.20371 -0.20371,0.2037 -0.20371,0.4947 v 14.55013 q 0,0.291 -0.2037,0.49471 -0.1746,0.2037 -0.4947,0.2037 h -4.36504 q -0.291,0 -0.49471,-0.2037 -0.2037,-0.20371 -0.2037,-0.49471 v -14.55013 q 0,-0.291 -0.2037,-0.4947 -0.1746,-0.20371 -0.4947,-0.20371 h -4.13224 q -0.291,0 -0.4947,-0.2037 -0.20371,-0.2037 -0.20371,-0.4947 v -3.95764 q 0,-0.291 0.20371,-0.4947 0.2037,-0.2037 0.4947,-0.2037 h 15.36494 q 0.3201,0 0.4947,0.2037 0.2037,0.2037 0.2037,0.4947 v 3.95764 q 0,0.291 -0.2037,0.4947 -0.1746,0.2037 -0.4947,0.2037 z"
           style="font-style:normal;font-variant:normal;font-weight:normal;font-stretch:normal;font-family:Heavitas;-inkscape-font-specification:Heavitas;fill:none;stroke:#000000;stroke-width:1;stroke-miterlimit:4;stroke-dasharray:none;stroke-opacity:1"
           id="path3697"
           inkscape:connector-curvature="0" />
        <path
           d="m 268.83464,228.51869 v 1.22221 q 0,0.291 0.2037,0.49471 0.2037,0.2037 0.4947,0.2037 h 7.88617 q 0.29101,0 0.49471,0.2037 0.2037,0.2037 0.2037,0.4947 v 4.01584 q 0,0.291 -0.2037,0.4947 -0.2037,0.20371 -0.49471,0.20371 h -7.88617 q -0.291,0 -0.4947,0.2037 -0.2037,0.2037 -0.2037,0.4947 v 1.10581 q 0,0.291 0.2037,0.49471 0.2037,0.2037 0.4947,0.2037 h 9.05019 q 0.291,0 0.4947,0.2037 0.2037,0.2037 0.2037,0.4947 v 4.01584 q 0,0.291 -0.2037,0.49471 -0.2037,0.2037 -0.4947,0.2037 h -14.81204 q -0.291,0 -0.4947,-0.2037 -0.2037,-0.20371 -0.2037,-0.49471 v -19.90458 q 0,-0.291 0.2037,-0.4947 0.2037,-0.2037 0.4947,-0.2037 h 14.81204 q 0.291,0 0.4947,0.2037 0.2037,0.2037 0.2037,0.4947 v 3.95764 q 0,0.291 -0.2037,0.4947 -0.2037,0.2037 -0.4947,0.2037 h -9.05019 q -0.291,0 -0.4947,0.20371 -0.2037,0.2037 -0.2037,0.4947 z"
           style="font-style:normal;font-variant:normal;font-weight:normal;font-stretch:normal;font-family:Heavitas;-inkscape-font-specification:Heavitas;fill:none;stroke:#000000;stroke-width:1;stroke-miterlimit:4;stroke-dasharray:none;stroke-opacity:1"
           id="path3699"
           inkscape:connector-curvature="0" />
        <path
           style="font-style:normal;font-variant:normal;font-weight:normal;font-stretch:normal;font-family:Heavitas;-inkscape-font-specification:Heavitas;fill:none;stroke:#000000;stroke-width:3.77952766;stroke-miterlimit:4;stroke-dasharray:none;stroke-opacity:1"
           d="m 1543.8027,854.1543 c -0.7332,0 -1.3558,0.25627 -1.8691,0.76953 -0.5133,0.51326 -0.7715,1.13591 -0.7715,1.86914 v 75.23047 c 0,0.73323 0.2582,1.35585 0.7715,1.86914 0.5133,0.51326 1.1359,0.76953 1.8691,0.76953 h 16.6075 c 0.7332,0 1.3558,-0.25627 1.8691,-0.76953 0.5133,-0.51329 0.7715,-1.13591 0.7715,-1.86914 v -16.38867 c 0,-0.11432 0.017,-0.22111 0.029,-0.33008 v -24.96485 c -0.012,-0.10897 -0.029,-0.21576 -0.029,-0.33007 v -12.97852 c 0,-0.11432 0.017,-0.22111 0.029,-0.33008 V 854.1543 Z m 34.3946,0.0176 v 20.43945 c 0.6796,0.14665 1.3127,0.36632 1.9004,0.66015 1.1731,0.51326 2.1621,1.20997 2.9687,2.08985 0.8066,0.87987 1.3932,1.90493 1.7598,3.07812 0.4399,1.09985 0.6601,2.23697 0.6601,3.41016 0,2.27301 -0.6587,4.32706 -1.9785,6.16016 -1.1323,1.59852 -2.9077,2.4629 -5.3105,2.60937 v 20.28906 c 4.1327,-0.22399 7.8147,-0.92075 11.0293,-2.11132 4.0328,-1.53981 7.3681,-3.59386 10.0078,-6.16016 2.7129,-2.63965 4.7309,-5.71874 6.0508,-9.23828 1.3198,-3.59285 1.9785,-7.44273 1.9785,-11.54883 0,-4.10613 -0.8068,-7.95598 -2.4199,-11.54883 -1.5399,-3.59284 -3.666,-6.74601 -6.379,-9.45898 -2.6396,-2.71297 -5.7928,-4.8391 -9.4589,-6.37891 -3.3755,-1.44661 -6.9801,-2.20349 -10.8086,-2.29101 z"
           transform="matrix(0.26458333,0,0,0.26458333,-114.85407,-3.5289845)"
           id="path3701"
           inkscape:connector-curvature="0" />
        <path
           style="font-style:normal;font-variant:normal;font-weight:normal;font-stretch:normal;font-family:Heavitas;-inkscape-font-specification:Heavitas;fill:none;stroke:#000000;stroke-width:3.77952766;stroke-miterlimit:4;stroke-dasharray:none;stroke-opacity:1"
           d="m 1636.4355,854.26367 c -0.8065,0 -1.5753,0.25627 -2.3085,0.76953 -0.66,0.43994 -1.1364,0.99049 -1.4297,1.65039 l -31.8965,74.45899 c -0.2933,0.58658 -0.4034,1.10108 -0.3301,1.54101 0.073,0.43994 0.2575,0.8063 0.5508,1.09961 0.22,0.29329 0.5483,0.51351 0.9883,0.66016 0.3666,0.14665 0.733,0.21875 1.0996,0.21875 h 18.9179 c 0.7333,0 1.43,-0.21827 2.0899,-0.6582 0.2304,-0.16129 0.4322,-0.33401 0.6191,-0.50977 l 12.6934,-31.07812 c 0.032,-0.10219 0.058,-0.20263 0.1055,-0.3086 l 1.7734,-4.29297 16.4844,-40.35937 -0.3301,-0.77149 c -0.2933,-0.6599 -0.8058,-1.21045 -1.5391,-1.65039 -0.6599,-0.51326 -1.3566,-0.76953 -2.0898,-0.76953 z m 27.7286,22.68164 -18.9024,46.2793 h 10.4219 c 0.7332,0 1.4299,0.25627 2.0898,0.76953 0.7333,0.43994 1.2819,0.99046 1.6485,1.65039 l 2.9707,6.59961 c 0.3666,0.65991 0.8791,1.24648 1.539,1.75977 0.7333,0.43993 1.504,0.6582 2.3106,0.6582 h 18.8066 c 1.1732,0 1.944,-0.36636 2.3106,-1.09961 0.4399,-0.73323 0.512,-1.42994 0.2187,-2.08984 z"
           transform="matrix(0.26458333,0,0,0.26458333,-114.85407,-3.5289845)"
           id="path3703"
           inkscape:connector-curvature="0" />
        <path
           style="font-style:normal;font-variant:normal;font-weight:normal;font-stretch:normal;font-family:Heavitas;-inkscape-font-specification:Heavitas;fill:none;stroke:#000000;stroke-width:3.77952766;stroke-miterlimit:4;stroke-dasharray:none;stroke-opacity:1"
           d="m 1693.748,854.1543 c -0.7332,0 -1.3558,0.25627 -1.8691,0.76953 -0.5133,0.51326 -0.7695,1.13591 -0.7695,1.86914 v 75.23047 c 0,0.73323 0.2562,1.35585 0.7695,1.86914 0.5133,0.51326 1.1359,0.76953 1.8691,0.76953 h 16.3887 c 0.7333,0 1.3559,-0.25627 1.8692,-0.76953 0.5132,-0.51329 0.7695,-1.13591 0.7695,-1.86914 v -17.81836 c 0,-0.0514 0.011,-0.0981 0.014,-0.14844 v -25.21875 c 0,-0.0503 -0.014,-0.097 -0.014,-0.14844 v -11.6582 c 0,-0.0514 0.011,-0.0981 0.014,-0.14844 V 854.1543 Z m 34.1582,0 v 20.2832 c 1.1717,0.10081 2.1843,0.4076 3.0176,0.94336 1.0999,0.58658 1.9427,1.35735 2.5293,2.31055 0.6599,0.87987 1.1004,1.83283 1.3203,2.85937 0.2933,0.9532 0.4395,1.79607 0.4395,2.5293 0,1.39316 -0.2563,2.60238 -0.7695,3.6289 -0.5133,1.02655 -1.174,1.9074 -1.9805,2.64063 -0.8066,0.6599 -1.6855,1.17245 -2.6387,1.53906 -0.6569,0.20212 -1.2959,0.32975 -1.918,0.39258 v 30.64258 c 0.3091,0.43006 0.6187,0.87207 0.9278,1.30078 2.3463,3.15291 4.6927,6.26807 7.039,9.34766 0.44,0.58658 1.0626,1.10105 1.8692,1.54101 0.8799,0.36662 1.6867,0.54883 2.4199,0.54883 h 20.457 c 0.7333,0 1.2098,-0.32835 1.4297,-0.98828 0.22,-0.73323 0.1099,-1.39389 -0.33,-1.98047 -2.4197,-3.22623 -5.1685,-6.78181 -8.2481,-10.66797 -3.0796,-3.88613 -6.0125,-7.66391 -8.7988,-11.33008 -0.44,-0.58658 -0.5861,-1.17316 -0.4395,-1.75976 0.22,-0.65991 0.6224,-1.2085 1.209,-1.64844 1.7598,-1.09984 3.3354,-2.45719 4.7285,-4.07031 1.3932,-1.68645 2.6043,-3.55634 3.6309,-5.60938 1.0265,-2.05306 1.7953,-4.21525 2.3086,-6.48828 0.5866,-2.34636 0.8808,-4.69271 0.8808,-7.03906 0,-4.25275 -0.7327,-8.13868 -2.1992,-11.6582 -1.3931,-3.51955 -3.3731,-6.56259 -5.9394,-9.12891 -2.493,-2.5663 -5.5361,-4.5463 -9.1289,-5.93945 -3.5929,-1.46646 -7.5168,-2.19922 -11.7696,-2.19922 z"
           transform="matrix(0.26458333,0,0,0.26458333,-114.85407,-3.5289845)"
           id="path3705"
           inkscape:connector-curvature="0" />
        <path
           d="m 358.85402,243.76723 h -4.39414 q -0.3201,0 -0.5238,-0.2037 -0.1746,-0.20371 -0.1746,-0.49471 v -19.87548 q 0,-0.291 0.1746,-0.4947 0.2037,-0.2037 0.5238,-0.2037 h 4.39414 q 0.291,0 0.49471,0.2037 0.2037,0.2037 0.2037,0.4947 v 19.87548 q 0,0.291 -0.2037,0.49471 -0.20371,0.2037 -0.49471,0.2037 z"
           style="font-style:normal;font-variant:normal;font-weight:normal;font-stretch:normal;font-family:Heavitas;-inkscape-font-specification:Heavitas;fill:none;stroke:#000000;stroke-width:1;stroke-miterlimit:4;stroke-dasharray:none;stroke-opacity:1"
           id="path3707"
           inkscape:connector-curvature="0" />
        <path
           d="m 365.83355,236.46306 q 1.57142,1.01851 3.11373,1.60052 1.54231,0.582 2.88093,0.582 1.28041,0 1.94971,-0.3492 0.66931,-0.37831 0.66931,-1.10581 0,-0.37831 -0.291,-0.58201 -0.291,-0.2328 -0.78571,-0.3783 -0.4656,-0.1455 -1.10581,-0.2328 -0.64021,-0.0873 -1.30951,-0.2328 -0.64021,-0.11641 -1.51321,-0.26191 -0.84391,-0.1746 -1.74602,-0.4656 -0.90211,-0.3201 -1.80422,-0.78571 -0.873,-0.4656 -1.57141,-1.19311 -0.69841,-0.72751 -1.13491,-1.71691 -0.4074,-1.01851 -0.4074,-2.38623 0,-2.00791 0.7857,-3.31743 0.78571,-1.30951 1.97882,-2.06611 1.22221,-0.78571 2.70632,-1.07671 1.48412,-0.32011 2.88093,-0.32011 2.44442,0 4.36504,0.72751 1.94972,0.69841 3.72483,2.06612 0.23281,0.2037 0.26191,0.4947 0.0291,0.29101 -0.14551,0.52381 l -2.26982,3.23013 q -0.1746,0.2328 -0.4656,0.291 -0.291,0.0582 -0.52381,-0.1164 -1.48411,-0.93121 -2.76452,-1.30951 -1.28041,-0.40741 -2.35712,-0.40741 -0.3201,0 -0.75661,0.0291 -0.4074,0 -0.7857,0.1164 -0.37831,0.0873 -0.64021,0.32011 -0.2328,0.2328 -0.2328,0.6402 0,0.40741 0.6111,0.72751 0.61111,0.3201 1.39682,0.5529 0.7857,0.23281 1.51321,0.37831 0.72751,0.1164 0.93121,0.1455 1.04761,0.2037 2.29892,0.6111 1.25131,0.37831 2.32802,1.16401 1.10581,0.75661 1.83332,2.00792 0.7566,1.22221 0.7566,3.08463 0,1.74602 -0.6111,3.02643 -0.61111,1.25131 -1.71692,2.06612 -1.07671,0.8148 -2.61902,1.22221 -1.51322,0.3783 -3.37563,0.3783 -1.51322,0 -2.82273,-0.2619 -1.30951,-0.2328 -2.44442,-0.66931 -1.13491,-0.4365 -2.12432,-1.01851 -0.96031,-0.6111 -1.77512,-1.28041 -0.2328,-0.1746 -0.2619,-0.4656 -0.0291,-0.32011 0.1455,-0.55291 l 2.24072,-3.23013 q 0.17461,-0.2328 0.46561,-0.291 0.291,-0.0582 0.5238,0.0873 z"
           style="font-style:normal;font-variant:normal;font-weight:normal;font-stretch:normal;font-family:Heavitas;-inkscape-font-specification:Heavitas;fill:none;stroke:#000000;stroke-width:1;stroke-miterlimit:4;stroke-dasharray:none;stroke-opacity:1"
           id="path3709"
           inkscape:connector-curvature="0" />
      </g>
    </g>
    <path
       style="fill:none;fill-opacity:0.98880597;stroke:#000000;stroke-width:3.77952761;stroke-miterlimit:4;stroke-dasharray:none;stroke-dashoffset:0.56481099;stroke-opacity:1"
       d="m 19.349609,249.65625 c -0.184819,0 -0.333984,0.14935 -0.333984,0.33398 v 37.12891 c 0,0.18459 0.149165,0.33203 0.333984,0.33203 H 374.17383 v -37.79492 z m 373.720701,0 v 37.79492 H 748.3457 v -37.79492 z m 374.17383,0 v 37.79492 h 355.27536 v -37.79492 z m 374.17386,0 v 37.79492 h 355.2754 v -37.79492 z m 374.1718,0 v 37.79492 h 354.9434 c 0.1848,0 0.334,-0.1474 0.334,-0.33203 v -37.12891 c 0,-0.18459 -0.1492,-0.33398 -0.334,-0.33398 z"
       transform="matrix(0.26458333,0,0,0.26458333,-114.90475,-4.5119061)"
       id="rect2357"
       inkscape:connector-curvature="0" />
  </g>
</svg>
