<svg width="100%" height="100%" viewBox="0 0 1500 1500" version="1.1" xmlns="http://www.w3.org/2000/svg" xmlns:xlink="http://www.w3.org/1999/xlink" xml:space="preserve" xmlns:serif="http://www.serif.com/" style="fill-rule:evenodd;clip-rule:evenodd;stroke-linecap:round;stroke-linejoin:round;stroke-miterlimit:1.5;">

  <defs
   id="defs205" /><g
   transform="matrix(1.5,0,0,1.5,-5,-5)"
   id="content"
   class="main"><g
     id="circle-blue-white"><defs
       id="defs1940"><rect
         y="0"
         x="0"
         height="100%"
         width="100%"
         id="SVGID_1_" /></defs><clipPath
       id="SVGID_2_">
					<use
   height="100%"
   width="100%"
   y="0"
   x="0"
   style="overflow:visible"
   id="use1942"
   overflow="visible"
   xlink:href="#SVGID_1_" />
				</clipPath><path
       style="fill:#00559b"
       id="path1945"
       d="M 990.102,500 C 990.102,770.676 770.676,990.102 500,990.102 229.325,990.102 9.898,770.676 9.898,500 9.898,229.325 229.325,9.899 500,9.899 770.676,9.899 990.102,229.325 990.102,500"
       clip-path="url(#SVGID_2_)" /><path
       style="fill:#ffffff"
       id="path1947"
       d="m 835,506.962 c 0,185.016 -149.984,335 -335,335 -185.016,0 -335,-149.984 -335,-335 0,-185.015 149.984,-335 335,-335 185.016,0 335,149.985 335,335"
       clip-path="url(#SVGID_2_)" /></g><g
     id="stripes">
				<defs
   id="defs1952">
					<path
   d="M 171.283,498.67 C 167.096,680.216 310.874,830.782 492.42,834.969 673.965,839.157 824.531,695.377 828.716,513.832 832.904,332.286 689.126,181.72 507.58,177.534 c -2.593,-0.06 -5.147,-0.089 -7.727,-0.089 -178.057,0.017 -324.443,142.273 -328.57,321.225"
   id="SVGID_3_" />
				</defs>
				<clipPath
   id="SVGID_4_">
					<use
   height="100%"
   width="100%"
   y="0"
   x="0"
   style="overflow:visible"
   id="use1954"
   overflow="visible"
   xlink:href="#SVGID_3_" />
				</clipPath>
				<path
   style="fill:#4391c6"
   id="path1957"
   d="m 140.115,835.124 h -21.452 c 0.002,-62.925 0.006,-125.85 0.005,-188.774 -0.001,-156.279 -0.003,-312.557 -0.005,-468.834 h 21.452 z"
   clip-path="url(#SVGID_4_)" />
				<path
   style="fill:#c7dcf0"
   id="path1959"
   d="m 514.631,835.124 h -16.983 c -0.002,-17.526 -0.005,-35.053 -0.005,-52.579 l 0.005,-605.03 h 16.983 c -0.004,1.825 -0.011,3.651 -0.011,5.477 -10e-4,151.288 -0.002,302.575 0,453.863 10e-4,66.09 0.007,132.179 0.011,198.269"
   clip-path="url(#SVGID_4_)" />
				<path
   style="fill:#213565"
   id="path1961"
   d="m 378.321,835.124 h -16.983 c 0.004,-1.095 0.012,-2.19 0.012,-3.286 10e-4,-217.012 10e-4,-434.025 0,-651.037 0,-1.095 -0.008,-2.191 -0.012,-3.286 h 16.983 c 0.004,1.217 0.014,2.434 0.014,3.651 0,216.769 0,433.538 0,650.307 0,1.217 -0.009,2.434 -0.014,3.651"
   clip-path="url(#SVGID_4_)" />
				<path
   style="fill:#e73c2e"
   id="path1963"
   d="m 774.288,177.515 h 12.961 c -0.002,17.283 -0.005,34.566 -0.005,51.849 0.002,201.921 0.003,403.839 0.005,605.76 h -12.96 c -0.003,-1.704 -0.008,-3.408 -0.008,-5.111 0,-190.845 -10e-4,-381.689 0,-572.533 0,-26.655 0.005,-53.311 0.007,-79.965"
   clip-path="url(#SVGID_4_)" />
				<path
   style="fill:#4391c6"
   id="path1965"
   d="m 438.208,835.124 h -12.96 c -0.002,-103.09 -0.006,-206.18 -0.006,-309.271 0,-116.112 0.003,-232.226 0.006,-348.338 h 12.96 c -0.011,1.46 -0.031,2.92 -0.031,4.38 -0.001,216.283 -0.001,432.566 0,648.849 0,1.46 0.02,2.92 0.031,4.38"
   clip-path="url(#SVGID_4_)" />
				<path
   style="fill:#4391c6"
   id="path1967"
   d="M 204.024,835.124 H 191.063 V 177.515 h 12.961 c 0,219.203 0,438.406 0,657.609"
   clip-path="url(#SVGID_4_)" />
				<path
   style="fill:#6baed7"
   id="path1969"
   d="m 484.688,835.124 h -12.514 c -0.002,-1.704 -0.007,-3.408 -0.007,-5.111 0,-180.134 -10e-4,-360.268 0,-540.402 0,-37.365 0.004,-74.731 0.007,-112.096 h 12.514 c 0.01,1.46 0.028,2.92 0.028,4.38 10e-4,216.283 0.002,432.566 0,648.848 -0.001,1.461 -0.019,2.921 -0.028,4.381"
   clip-path="url(#SVGID_4_)" />
				<path
   style="fill:#9fcae1"
   id="path1971"
   d="m 608.482,177.515 h 12.514 c 0.002,22.882 0.006,45.764 0.005,68.646 -10e-4,196.321 -0.003,392.642 -0.004,588.963 h -12.514 c -0.004,-1.096 -0.011,-2.19 -0.011,-3.286 V 180.801 c 10e-4,-1.095 0.007,-2.191 0.01,-3.286"
   clip-path="url(#SVGID_4_)" />
				<path
   style="fill:#fce0d4"
   id="path1973"
   d="m 697.419,177.515 h 8.938 c -10e-4,117.883 -0.005,235.765 -0.005,353.646 0,101.322 0.004,202.643 0.005,303.963 h -8.49 c -0.003,-44.429 0.092,-88.857 -0.036,-133.285 -0.128,-44.401 0.372,-88.804 -0.323,-133.208 -0.317,-20.28 0.062,-40.598 0.238,-60.9 0.37,-42.838 0.219,-85.691 0.083,-128.536 -0.138,-42.941 0.46,-85.883 -0.345,-128.826 -0.348,-18.605 -0.059,-37.244 -0.055,-55.867 0,-1.212 0.033,-2.41 0.153,-3.626 0.439,-4.459 0.523,-8.928 -0.163,-13.361"
   clip-path="url(#SVGID_4_)" />
				<path
   style="fill:#681414"
   id="path1975"
   d="m 816.745,177.515 h 8.492 c 0.002,1.46 0.007,2.921 0.007,4.381 10e-4,170.884 10e-4,341.767 0,512.651 0,46.859 -0.005,93.718 -0.007,140.577 h -8.491 c 0.008,-1.46 0.024,-2.922 0.024,-4.381 10e-4,-216.282 10e-4,-432.564 0,-648.848 10e-4,-1.459 -0.016,-2.92 -0.025,-4.38"
   clip-path="url(#SVGID_4_)" />
				<path
   style="fill:#6baed7"
   id="path1977"
   d="m 557.088,177.515 h 8.491 c 0.002,1.704 0.007,3.408 0.007,5.112 0,180.012 10e-4,360.024 0,540.035 0,37.488 -0.005,74.976 -0.007,112.463 h -8.491 c 0.014,-1.581 0.041,-3.163 0.041,-4.744 0.002,-216.04 0.002,-432.08 0,-648.12 0,-1.583 -0.027,-3.164 -0.041,-4.746"
   clip-path="url(#SVGID_4_)" />
				<path
   style="fill:#4391c6"
   id="path1979"
   d="m 187.042,835.124 h -8.492 c -0.014,-1.581 -0.041,-3.163 -0.041,-4.744 -10e-4,-216.04 -0.002,-432.08 0,-648.12 0,-1.582 0.027,-3.163 0.041,-4.745 h 8.492 c 0,219.203 0,438.406 0,657.609"
   clip-path="url(#SVGID_4_)" />
				<path
   style="fill:#e73c2e"
   id="path1981"
   d="m 812.724,835.124 h -8.491 c -0.003,-1.704 -0.009,-3.408 -0.009,-5.111 -0.001,-215.796 -0.001,-431.591 0,-647.387 0,-1.703 0.005,-3.407 0.008,-5.111 h 8.492 c -0.003,115.991 -0.007,231.983 -0.007,347.974 0,103.212 0.004,206.423 0.007,309.635"
   clip-path="url(#SVGID_4_)" />
				<path
   style="fill:#0b529c"
   id="path1983"
   d="m 378.321,835.124 c 0.005,-1.217 0.014,-2.434 0.014,-3.651 0,-216.769 0,-433.538 0,-650.307 0,-1.217 -0.01,-2.434 -0.014,-3.651 h 8.491 c 0.009,1.46 0.025,2.921 0.025,4.381 0.001,216.282 0.001,432.565 0,648.847 0,1.46 -0.016,2.921 -0.024,4.381 z"
   clip-path="url(#SVGID_4_)" />
				<path
   style="fill:#c7dcf0"
   id="path1985"
   d="m 620.997,835.124 c 0.001,-196.321 0.003,-392.643 0.004,-588.964 10e-4,-22.882 -0.003,-45.764 -0.005,-68.645 h 8.492 c 0.01,1.46 0.028,2.92 0.028,4.38 0.001,216.283 0.001,432.566 0,648.848 0,1.461 -0.019,2.921 -0.028,4.381 z"
   clip-path="url(#SVGID_4_)" />
				<path
   style="fill:#c7dcf0"
   id="path1987"
   d="m 527.591,177.515 h 8.491 c 0,219.203 10e-4,438.406 10e-4,657.609 h -8.492 c -0.002,-75.948 -0.005,-151.896 -0.005,-227.845 0,-143.255 0.003,-286.509 0.005,-429.764"
   clip-path="url(#SVGID_4_)" />
				<path
   style="fill:#2272b6"
   id="path1989"
   d="m 221.007,835.124 h -8.491 c -0.002,-103.212 -0.006,-206.423 -0.006,-309.635 0,-115.991 0.003,-231.983 0.006,-347.974 h 8.491 c -0.002,65.116 -0.006,130.232 -0.005,195.347 10e-4,154.088 0.003,308.175 0.005,462.262"
   clip-path="url(#SVGID_4_)" />
				<path
   style="fill:#0b529c"
   id="path1991"
   d="m 221.007,835.124 c -0.002,-154.087 -0.004,-308.174 -0.005,-462.262 -0.001,-65.115 0.003,-130.231 0.005,-195.347 h 8.491 c -0.02,1.459 -0.059,2.918 -0.059,4.377 -0.003,216.285 -0.003,432.57 0,648.855 0,1.459 0.039,2.918 0.06,4.377 z"
   clip-path="url(#SVGID_4_)" />
				<path
   style="fill:#c7dcf0"
   id="path1993"
   d="m 484.688,835.124 c 0.01,-1.46 0.028,-2.92 0.028,-4.381 0.002,-216.282 10e-4,-432.565 0,-648.848 0,-1.46 -0.018,-2.92 -0.028,-4.38 h 8.491 c 0.002,14.857 0.005,29.714 0.005,44.571 -0.001,204.346 -0.003,408.692 -0.005,613.038 z"
   clip-path="url(#SVGID_4_)" />
				<path
   style="fill:#ddebf8"
   id="path1995"
   d="m 663.453,177.515 h 8.491 c 0.002,66.004 0.006,132.009 0.006,198.014 -0.001,153.198 -0.003,306.397 -0.005,459.595 h -8.492 c 0.005,-1.339 0.015,-2.678 0.015,-4.017 0,-216.525 0,-433.051 -10e-4,-649.576 0,-1.339 -0.009,-2.677 -0.014,-4.016"
   clip-path="url(#SVGID_4_)" />
				<path
   style="fill:#4391c6"
   id="path1997"
   d="m 237.99,177.515 h 8.491 c -0.002,65.237 -0.006,130.475 -0.006,195.712 0.001,153.966 0.004,307.931 0.007,461.897 h -8.492 c -0.017,-1.459 -0.049,-2.919 -0.049,-4.378 -0.002,-216.284 -0.002,-432.568 0,-648.853 0,-1.459 0.032,-2.919 0.049,-4.378"
   clip-path="url(#SVGID_4_)" />
				<path
   style="fill:#6baed7"
   id="path1999"
   d="m 450.722,835.124 h -8.491 c 0.003,-1.217 0.011,-2.434 0.011,-3.651 0,-216.769 0,-433.538 -0.001,-650.307 0,-1.217 -0.007,-2.434 -0.011,-3.651 h 8.492 c 0.009,1.46 0.026,2.921 0.026,4.381 0.001,216.282 0.001,432.565 0,648.847 0,1.461 -0.018,2.921 -0.026,4.381"
   clip-path="url(#SVGID_4_)" />
				<path
   style="fill:#4391c6"
   id="path2001"
   d="m 250.95,177.515 c 2.831,0 5.661,0 8.491,0 -0.008,1.46 -0.024,2.92 -0.024,4.381 -10e-4,216.282 -10e-4,432.565 0,648.847 0,1.461 0.016,2.921 0.025,4.381 h -8.492 c -0.002,-120.494 -0.006,-240.989 -0.006,-361.484 0,-98.708 0.004,-197.417 0.006,-296.125"
   clip-path="url(#SVGID_4_)" />
				<path
   style="fill:#0b529c"
   id="path2003"
   d="m 259.442,835.124 c -0.008,-1.46 -0.024,-2.92 -0.024,-4.381 -0.001,-216.282 -0.001,-432.565 0,-648.847 0,-1.46 0.015,-2.921 0.024,-4.381 h 8.491 v 657.609 z"
   clip-path="url(#SVGID_4_)" />
				<path
   style="fill:#c7dcf0"
   id="path2005"
   d="m 693.396,835.124 h -8.491 c -0.003,-1.339 -0.01,-2.678 -0.01,-4.017 V 181.531 c 0,-1.339 0.007,-2.678 0.01,-4.016 h 8.491 z"
   clip-path="url(#SVGID_4_)" />
				<path
   style="fill:#4391c6"
   id="path2007"
   d="m 416.756,835.124 h -8.492 c -0.002,-103.09 -0.006,-206.18 -0.006,-309.271 0,-116.112 0.004,-232.226 0.006,-348.338 h 8.492 c -0.003,1.825 -0.008,3.651 -0.008,5.477 -10e-4,205.449 -10e-4,410.899 0,616.349 0,11.928 0.005,23.855 0.008,35.783"
   clip-path="url(#SVGID_4_)" />
				<path
   style="fill:#c7dcf0"
   id="path2009"
   d="m 595.522,835.124 h -8.491 c -0.002,-78.261 -0.006,-156.521 -0.006,-234.782 10e-4,-140.943 0.004,-281.885 0.006,-422.827 h 8.491 z"
   clip-path="url(#SVGID_4_)" />
				<path
   style="fill:#fce0d4"
   id="path2011"
   d="m 731.832,835.124 h -8.492 c -0.002,-2.069 -0.007,-4.138 -0.007,-6.207 -10e-4,-176.36 -10e-4,-352.721 0,-529.082 0,-40.773 0.005,-81.547 0.007,-122.32 h 8.491 c -0.012,1.582 -0.036,3.163 -0.036,4.745 -0.002,216.04 -10e-4,432.079 0,648.119 0,1.582 0.024,3.163 0.037,4.745"
   clip-path="url(#SVGID_4_)" />
				<path
   style="fill:#e73c2e"
   id="path2013"
   d="m 769.819,835.124 h -8.491 c 0.002,-26.168 0.005,-52.336 0.005,-78.504 -10e-4,-193.035 -0.003,-386.07 -0.005,-579.105 h 8.491 c 0.003,1.582 0.008,3.164 0.008,4.746 v 572.898 c 0,26.655 -0.005,53.31 -0.008,79.965"
   clip-path="url(#SVGID_4_)" />
				<path
   style="fill:#213565"
   id="path2015"
   d="m 348.825,835.124 h -8.491 c -0.005,-1.217 -0.014,-2.434 -0.014,-3.651 0,-216.769 0,-433.538 0,-650.307 0,-1.217 0.009,-2.434 0.014,-3.651 h 8.491 c -0.009,1.46 -0.026,2.921 -0.026,4.381 -10e-4,216.282 -10e-4,432.565 0.001,648.847 0,1.461 0.016,2.921 0.025,4.381"
   clip-path="url(#SVGID_4_)" />
				<path
   style="fill:#f28f73"
   id="path2017"
   d="m 748.814,177.515 h 8.491 c -0.002,19.961 -0.005,39.921 -0.005,59.882 0.001,199.243 0.003,398.485 0.005,597.728 h -8.491 c -0.011,-1.46 -0.029,-2.921 -0.029,-4.381 -0.002,-216.282 -0.002,-432.564 -10e-4,-648.848 0,-1.461 0.02,-2.921 0.03,-4.381"
   clip-path="url(#SVGID_4_)" />
				<path
   style="fill:#6baed7"
   id="path2019"
   d="m 318.881,835.124 h -8.491 c -0.015,-1.581 -0.044,-3.163 -0.044,-4.744 -0.002,-216.04 -0.002,-432.081 0,-648.121 0,-1.581 0.029,-3.163 0.044,-4.744 h 8.491 c -0.016,1.581 -0.045,3.163 -0.045,4.744 -0.002,216.04 -0.002,432.081 0,648.121 0,1.582 0.029,3.163 0.045,4.744"
   clip-path="url(#SVGID_4_)" />
				<path
   style="fill:#0b529c"
   id="path2021"
   d="m 310.39,177.515 c -0.015,1.582 -0.044,3.163 -0.044,4.745 -0.002,216.04 -0.002,432.08 10e-4,648.12 0,1.581 0.028,3.163 0.043,4.744 h -8.491 c -0.005,-1.095 -0.012,-2.19 -0.012,-3.286 -10e-4,-217.012 -10e-4,-434.024 0,-651.037 0,-1.095 0.007,-2.19 0.011,-3.286 z"
   clip-path="url(#SVGID_4_)" />
				<path
   style="fill:#213565"
   id="path2023"
   d="m 301.898,177.515 c -0.004,1.096 -0.012,2.191 -0.012,3.286 0,217.013 0,434.025 0,651.037 0,1.096 0.008,2.191 0.012,3.286 h -4.469 c 0.003,-1.582 0.008,-3.164 0.008,-4.746 0,-194.374 0,-388.749 0,-583.122 0,-23.247 -0.005,-46.494 -0.008,-69.741 z"
   clip-path="url(#SVGID_4_)" />
				<path
   style="fill:#e73c2e"
   id="path2025"
   d="m 748.814,177.515 c -0.011,1.46 -0.03,2.92 -0.03,4.381 -10e-4,216.283 -10e-4,432.565 10e-4,648.848 0,1.46 0.019,2.921 0.029,4.381 h -4.469 c 0.003,-1.704 0.008,-3.408 0.008,-5.111 0.001,-215.796 0,-431.591 0,-647.386 0,-1.704 -0.006,-3.408 -0.009,-5.112 h 4.47 z"
   clip-path="url(#SVGID_4_)" />
				<path
   style="fill:#4391c6"
   id="path2027"
   d="m 322.904,177.515 h 4.469 c 0,219.203 0,438.406 0,657.609 h -4.469 c 0.008,-1.46 0.024,-2.922 0.024,-4.381 10e-4,-216.282 10e-4,-432.564 0,-648.848 0,-1.459 -0.016,-2.92 -0.024,-4.38"
   clip-path="url(#SVGID_4_)" />
				<path
   style="fill:#fce0d4"
   id="path2029"
   d="m 735.854,177.515 h 4.47 c -0.02,1.459 -0.057,2.918 -0.057,4.377 -0.002,216.286 -0.002,432.57 10e-4,648.854 0,1.459 0.036,2.919 0.056,4.378 h -4.47 c 0.013,-1.582 0.037,-3.163 0.037,-4.745 0.001,-216.04 0.001,-432.079 0,-648.119 0,-1.581 -0.025,-3.163 -0.037,-4.745"
   clip-path="url(#SVGID_4_)" />
				<path
   style="fill:#4391c6"
   id="path2031"
   d="m 335.864,835.124 h -4.469 V 177.515 h 4.469 c -0.008,1.46 -0.024,2.921 -0.024,4.381 -10e-4,216.282 -10e-4,432.565 0,648.847 0,1.46 0.016,2.921 0.024,4.381"
   clip-path="url(#SVGID_4_)" />
				<path
   style="fill:#0b529c"
   id="path2033"
   d="m 335.864,835.124 c -0.008,-1.46 -0.024,-2.921 -0.024,-4.381 -10e-4,-216.282 -10e-4,-432.565 0,-648.847 0,-1.46 0.016,-2.921 0.024,-4.381 h 4.469 c -0.005,1.217 -0.013,2.434 -0.013,3.651 -10e-4,216.769 -10e-4,433.538 0,650.307 0,1.218 0.008,2.435 0.013,3.651 z"
   clip-path="url(#SVGID_4_)" />
				<path
   style="fill:#2272b6"
   id="path2035"
   d="m 293.407,835.124 h -4.469 c 0.002,-137.777 0.006,-275.556 0.006,-413.333 10e-4,-81.426 -0.004,-162.851 -0.006,-244.276 h 4.469 z"
   clip-path="url(#SVGID_4_)" />
				<path
   style="fill:#6baed7"
   id="path2037"
   d="m 280.447,177.515 h 4.469 c -0.016,1.582 -0.045,3.163 -0.045,4.745 -0.002,216.04 -0.002,432.08 0,648.12 0,1.582 0.03,3.163 0.045,4.744 h -4.469 c 0.009,-1.46 0.026,-2.921 0.026,-4.381 10e-4,-216.282 10e-4,-432.564 0,-648.848 0,-1.459 -0.017,-2.92 -0.026,-4.38"
   clip-path="url(#SVGID_4_)" />
				<path
   style="fill:#4391c6"
   id="path2039"
   d="m 352.847,177.515 h 4.469 c -0.009,1.46 -0.024,2.921 -0.024,4.381 -10e-4,216.283 -10e-4,432.565 0,648.848 0,1.459 0.016,2.921 0.024,4.381 h -4.469 c 0.002,-141.794 0.006,-283.589 0.006,-425.382 10e-4,-77.41 -0.004,-154.819 -0.006,-232.228"
   clip-path="url(#SVGID_4_)" />
				<path
   style="fill:#ddebf8"
   id="path2041"
   d="m 723.34,177.515 c -0.002,40.773 -0.007,81.547 -0.007,122.32 -10e-4,176.361 -10e-4,352.722 0,529.083 0,2.069 0.005,4.138 0.007,6.207 h -4.469 c 0.009,-1.46 0.026,-2.922 0.026,-4.381 10e-4,-216.282 10e-4,-432.564 0,-648.848 0,-1.461 -0.018,-2.921 -0.026,-4.381 z"
   clip-path="url(#SVGID_4_)" />
				<path
   style="fill:#f28f73"
   id="path2043"
   d="m 710.38,177.515 h 4.469 c -0.005,1.217 -0.013,2.434 -0.013,3.651 -10e-4,216.769 -10e-4,433.538 0,650.307 0,1.218 0.009,2.435 0.013,3.651 h -4.469 c 0.018,-1.459 0.052,-2.919 0.052,-4.378 0.002,-216.284 0.002,-432.568 -10e-4,-648.854 0,-1.458 -0.034,-2.918 -0.051,-4.377"
   clip-path="url(#SVGID_4_)" />
				<path
   style="fill:#ed694e"
   id="path2045"
   d="m 769.819,835.124 c 0.003,-26.655 0.008,-53.31 0.008,-79.965 V 182.261 c 0,-1.582 -0.005,-3.164 -0.008,-4.746 h 4.469 c -0.002,26.654 -0.007,53.31 -0.007,79.964 -10e-4,190.845 0,381.689 0,572.534 0,1.703 0.005,3.407 0.008,5.111 z"
   clip-path="url(#SVGID_4_)" />
				<path
   style="fill:#4391c6"
   id="path2047"
   d="m 386.813,835.124 c 0.008,-1.46 0.024,-2.921 0.024,-4.381 0.001,-216.282 0.001,-432.565 0,-648.847 0,-1.46 -0.016,-2.921 -0.024,-4.381 h 4.469 c -0.003,1.825 -0.008,3.651 -0.008,5.477 -10e-4,205.449 -10e-4,410.899 0,616.349 0,11.928 0.005,23.855 0.008,35.783 z"
   clip-path="url(#SVGID_4_)" />
				<path
   style="fill:#213565"
   id="path2049"
   d="m 165.589,177.515 h 4.469 c -0.014,1.582 -0.041,3.163 -0.041,4.745 -0.002,216.04 -0.002,432.08 0,648.12 0,1.581 0.027,3.163 0.041,4.744 h -4.469 c 0.003,-1.582 0.008,-3.164 0.008,-4.746 0,-194.496 0,-388.992 -0.001,-583.488 0,-23.125 -0.005,-46.25 -0.007,-69.375"
   clip-path="url(#SVGID_4_)" />
				<path
   style="fill:#0b529c"
   id="path2051"
   d="m 399.773,835.124 h -4.469 c 0.015,-1.581 0.043,-3.163 0.043,-4.744 0.002,-216.04 0.002,-432.081 0,-648.121 0,-1.581 -0.028,-3.163 -0.043,-4.744 h 4.469 c -0.005,1.217 -0.014,2.434 -0.014,3.651 -0.001,216.769 0,433.538 0,650.307 0,1.217 0.01,2.434 0.014,3.651"
   clip-path="url(#SVGID_4_)" />
				<path
   style="fill:#fce0d4"
   id="path2053"
   d="m 514.631,835.124 c -0.004,-66.09 -0.01,-132.179 -0.011,-198.269 -0.002,-151.289 -10e-4,-302.575 0,-453.863 0,-1.826 0.007,-3.652 0.011,-5.477 h 4.469 c -0.002,99.317 -0.006,198.633 -0.006,297.95 0,119.887 0.004,239.773 0.006,359.659 z"
   clip-path="url(#SVGID_4_)" />
				<path
   style="fill:#2272b6"
   id="path2055"
   d="m 408.265,177.515 c -0.002,116.113 -0.006,232.227 -0.006,348.34 0,103.09 0.004,206.18 0.006,309.27 h -4.469 c 0.009,-1.46 0.027,-2.921 0.027,-4.381 0.001,-216.282 0.001,-432.564 0,-648.848 0,-1.46 -0.018,-2.921 -0.027,-4.381 z"
   clip-path="url(#SVGID_4_)" />
				<path
   style="fill:#0b529c"
   id="path2057"
   d="m 271.955,177.515 h 4.469 c -0.002,124.215 -0.006,248.431 -0.006,372.646 0,94.988 0.004,189.976 0.007,284.964 h -4.47 c 0,-219.204 0,-438.407 0,-657.61"
   clip-path="url(#SVGID_4_)" />
				<path
   style="fill:#2272b6"
   id="path2059"
   d="m 118.663,177.515 c 0.002,156.278 0.004,312.556 0.005,468.833 10e-4,62.926 -0.003,125.851 -0.005,188.775 h -4.469 c 0,-219.203 0,-438.406 0,-657.609 h 4.469 z"
   clip-path="url(#SVGID_4_)" />
				<path
   style="fill:#2272b6"
   id="path2061"
   d="m 425.248,177.515 c -0.002,116.113 -0.006,232.227 -0.006,348.34 0,103.09 0.004,206.18 0.006,309.27 h -4.469 c 0.009,-1.46 0.026,-2.922 0.026,-4.381 10e-4,-216.282 10e-4,-432.564 0,-648.848 0,-1.46 -0.017,-2.921 -0.026,-4.381 z"
   clip-path="url(#SVGID_4_)" />
				<path
   style="fill:#0b529c"
   id="path2063"
   d="m 144.137,177.515 h 4.469 c -0.005,1.217 -0.013,2.434 -0.013,3.651 -10e-4,216.769 -10e-4,433.538 0,650.307 0,1.218 0.009,2.435 0.013,3.651 h -4.469 c 0,-219.203 0,-438.406 0,-657.609"
   clip-path="url(#SVGID_4_)" />
				<path
   style="fill:#fce0d4"
   id="path2065"
   d="m 684.905,177.515 c -0.003,1.339 -0.01,2.678 -0.01,4.017 v 649.576 c 0,1.339 0.007,2.678 0.01,4.017 h -4.469 c 0.002,-133.64 0.006,-267.279 0.006,-400.919 10e-4,-85.563 -0.004,-171.127 -0.006,-256.69 h 4.469 z"
   clip-path="url(#SVGID_4_)" />
				<path
   style="fill:#6baed7"
   id="path2067"
   d="m 250.95,177.515 c -0.002,98.708 -0.006,197.417 -0.006,296.125 0,120.495 0.004,240.99 0.006,361.484 h -4.469 c -0.002,-153.966 -0.005,-307.931 -0.006,-461.897 -0.001,-65.237 0.004,-130.475 0.006,-195.712 z"
   clip-path="url(#SVGID_4_)" />
				<path
   style="fill:#2272b6"
   id="path2069"
   d="m 450.722,835.124 c 0.009,-1.46 0.026,-2.92 0.026,-4.381 0.001,-216.282 0.001,-432.565 0,-648.847 0,-1.46 -0.017,-2.921 -0.026,-4.381 h 4.469 c -0.009,1.46 -0.026,2.921 -0.026,4.381 -0.001,216.282 -0.001,432.565 0,648.847 0,1.461 0.017,2.921 0.026,4.381 z"
   clip-path="url(#SVGID_4_)" />
				<path
   style="fill:#fce0d4"
   id="path2071"
   d="m 671.945,835.124 c 0.002,-153.198 0.004,-306.397 0.005,-459.596 0,-66.004 -0.004,-132.009 -0.006,-198.013 h 4.47 c -0.002,120.616 -0.006,241.233 -0.006,361.849 -10e-4,98.587 0.004,197.173 0.006,295.76 z"
   clip-path="url(#SVGID_4_)" />
				<path
   style="fill:#9fcae1"
   id="path2073"
   d="m 459.213,177.515 h 4.469 c -0.002,135.344 -0.006,270.687 -0.006,406.031 -10e-4,83.859 0.004,167.719 0.006,251.578 h -4.469 c 0.004,-1.217 0.011,-2.434 0.011,-3.651 0,-216.77 0,-433.538 0,-650.307 0,-1.216 -0.007,-2.435 -0.011,-3.651"
   clip-path="url(#SVGID_4_)" />
				<path
   style="fill:#c7dcf0"
   id="path2075"
   d="m 237.99,177.515 c -0.017,1.459 -0.049,2.919 -0.049,4.378 -0.002,216.285 -0.002,432.569 0,648.853 0,1.459 0.032,2.919 0.049,4.378 h -4.469 c 0.002,-119.886 0.006,-239.772 0.006,-359.658 0,-99.317 -0.004,-198.634 -0.006,-297.951 z"
   clip-path="url(#SVGID_4_)" />
				<path
   style="fill:#4391c6"
   id="path2077"
   d="m 472.173,177.515 c -0.002,37.366 -0.007,74.731 -0.007,112.097 -10e-4,180.133 0,360.267 0,540.401 0,1.703 0.005,3.407 0.007,5.111 h -4.469 c 0.002,-34.688 0.005,-69.376 0.005,-104.063 -10e-4,-184.516 -0.003,-369.03 -0.005,-553.546 z"
   clip-path="url(#SVGID_4_)" />
				<path
   style="fill:#2272b6"
   id="path2079"
   d="m 157.098,177.515 h 4.469 c 0,219.203 0.001,438.406 0.001,657.609 h -4.47 c -0.001,-103.576 -0.005,-207.153 -0.005,-310.731 0,-115.626 0.003,-231.252 0.005,-346.878"
   clip-path="url(#SVGID_4_)" />
				<path
   style="fill:#e73c2e"
   id="path2081"
   d="m 795.74,835.124 h -4.469 c 0.002,-26.168 0.005,-52.336 0.005,-78.504 -10e-4,-193.035 -0.003,-386.07 -0.005,-579.105 h 4.469 c -0.002,115.991 -0.006,231.983 -0.006,347.974 0,103.212 0.004,206.423 0.006,309.635"
   clip-path="url(#SVGID_4_)" />
				<path
   style="fill:#9fcae1"
   id="path2083"
   d="m 493.179,835.124 c 0.001,-204.346 0.003,-408.692 0.004,-613.038 0,-14.857 -0.003,-29.714 -0.004,-44.571 h 4.469 l -0.005,605.03 c 0,17.526 0.003,35.053 0.005,52.579 z"
   clip-path="url(#SVGID_4_)" />
				<path
   style="fill:#ddebf8"
   id="path2085"
   d="m 659.432,835.124 h -4.47 c 0.02,-1.459 0.056,-2.918 0.056,-4.378 0.002,-216.284 0.002,-432.569 0,-648.853 0,-1.46 -0.036,-2.919 -0.056,-4.378 h 4.47 c -0.005,1.338 -0.015,2.677 -0.015,4.016 0,216.526 0,433.051 10e-4,649.576 0,1.339 0.009,2.678 0.014,4.017"
   clip-path="url(#SVGID_4_)" />
				<path
   style="fill:#6baed7"
   id="path2087"
   d="m 646.471,177.515 h 4.469 c -0.003,2.069 -0.008,4.138 -0.008,6.208 -10e-4,203.502 -10e-4,407.004 0,610.506 0,13.632 0.005,27.264 0.009,40.896 h -4.47 c 0.003,-2.069 0.009,-4.138 0.009,-6.207 V 200.884 c -10e-4,-7.79 -0.006,-15.579 -0.009,-23.369"
   clip-path="url(#SVGID_4_)" />
				<path
   style="fill:#ddebf8"
   id="path2089"
   d="m 642.448,835.124 h -4.469 c 0.004,-1.096 0.012,-2.19 0.012,-3.286 10e-4,-217.013 10e-4,-434.025 0,-651.037 0,-1.095 -0.008,-2.191 -0.012,-3.286 h 4.469 c -0.021,1.459 -0.056,2.918 -0.056,4.377 -0.002,216.285 -0.002,432.57 10e-4,648.854 10e-4,1.46 0.036,2.919 0.055,4.378"
   clip-path="url(#SVGID_4_)" />
				<path
   style="fill:#9fcae1"
   id="path2091"
   d="m 527.591,177.515 c -0.002,143.255 -0.005,286.51 -0.005,429.765 0,75.948 0.003,151.896 0.005,227.845 h -4.469 v -657.61 z"
   clip-path="url(#SVGID_4_)" />
				<path
   style="fill:#4391c6"
   id="path2093"
   d="m 212.516,177.515 c -0.002,115.991 -0.006,231.982 -0.006,347.974 0,103.212 0.004,206.423 0.006,309.635 h -4.469 V 177.515 Z"
   clip-path="url(#SVGID_4_)" />
				<path
   style="fill:#6baed7"
   id="path2095"
   d="m 629.488,835.124 c 0.01,-1.46 0.028,-2.92 0.028,-4.381 0.001,-216.282 0.001,-432.565 0,-648.848 0,-1.46 -0.019,-2.92 -0.028,-4.38 h 4.469 c -0.003,1.582 -0.009,3.164 -0.009,4.746 0,216.039 0,432.078 10e-4,648.117 0,1.582 0.005,3.164 0.008,4.746 z"
   clip-path="url(#SVGID_4_)" />
				<path
   style="fill:#6baed7"
   id="path2097"
   d="m 540.104,177.515 h 4.47 c -0.003,108.202 -0.007,216.404 -0.007,324.604 0,111.002 0.004,222.004 0.007,333.005 h -4.47 c 0.003,-126.702 0.006,-253.404 0.007,-380.106 0,-92.501 -0.005,-185.002 -0.007,-277.503"
   clip-path="url(#SVGID_4_)" />
				<path
   style="fill:#ed694e"
   id="path2099"
   d="m 804.231,177.515 c -0.003,1.704 -0.008,3.408 -0.008,5.112 -10e-4,215.795 -10e-4,431.59 0,647.386 0,1.703 0.006,3.407 0.009,5.111 h -4.47 c 0.009,-1.46 0.025,-2.922 0.026,-4.381 10e-4,-216.282 10e-4,-432.564 -10e-4,-648.848 0,-1.461 -0.017,-2.921 -0.025,-4.381 h 4.469 z"
   clip-path="url(#SVGID_4_)" />
				<path
   style="fill:#c7dcf0"
   id="path2101"
   d="m 553.065,835.124 h -4.469 c -10e-4,-219.203 -10e-4,-438.406 -10e-4,-657.609 h 4.47 z"
   clip-path="url(#SVGID_4_)" />
				<path
   style="fill:#4391c6"
   id="path2103"
   d="m 157.098,177.515 c -0.002,115.626 -0.005,231.252 -0.005,346.877 0,103.578 0.004,207.155 0.005,310.731 h -4.469 c 0.015,-1.581 0.042,-3.163 0.042,-4.744 0.002,-216.04 0.002,-432.081 0,-648.12 0,-1.582 -0.028,-3.163 -0.042,-4.745 h 4.469 z"
   clip-path="url(#SVGID_4_)" />
				<path
   style="fill:#213565"
   id="path2105"
   d="m 178.55,177.515 c -0.014,1.582 -0.041,3.163 -0.041,4.745 -0.002,216.04 -10e-4,432.08 0,648.12 0,1.581 0.027,3.163 0.041,4.744 h -4.469 c 0.014,-1.581 0.041,-3.163 0.041,-4.744 0.002,-216.04 0.002,-432.08 0,-648.12 0,-1.582 -0.027,-3.163 -0.041,-4.745 z"
   clip-path="url(#SVGID_4_)" />
				<path
   style="fill:#4391c6"
   id="path2107"
   d="m 565.579,835.124 c 0.002,-37.487 0.007,-74.975 0.007,-112.462 10e-4,-180.012 0,-360.023 0,-540.036 0,-1.703 -0.005,-3.407 -0.007,-5.111 h 4.469 c -0.017,1.459 -0.049,2.919 -0.049,4.379 -0.002,216.283 -0.002,432.568 0,648.851 0,1.46 0.032,2.92 0.049,4.379 z"
   clip-path="url(#SVGID_4_)" />
				<path
   style="fill:#6baed7"
   id="path2109"
   d="m 608.482,177.515 c -0.003,1.096 -0.01,2.191 -0.01,3.286 v 651.037 c 0,1.096 0.007,2.19 0.011,3.286 h -4.47 c -0.003,-1.825 -0.008,-3.651 -0.008,-5.477 V 268.434 c 0,-30.306 0.005,-60.613 0.008,-90.919 z"
   clip-path="url(#SVGID_4_)" />
				<path
   style="fill:#ddebf8"
   id="path2111"
   d="m 574.07,177.515 h 4.469 c 0,219.203 0,438.406 10e-4,657.609 h -4.47 z"
   clip-path="url(#SVGID_4_)" />
				<path
   style="fill:#4391c6"
   id="path2113"
   d="m 604.014,177.515 c -0.003,30.306 -0.008,60.613 -0.008,90.919 v 561.214 c 0,1.825 0.005,3.651 0.008,5.477 h -4.469 c 0.021,-1.459 0.059,-2.919 0.059,-4.378 0.003,-216.284 0.003,-432.569 0,-648.854 0,-1.459 -0.038,-2.918 -0.059,-4.377 h 4.469 z"
   clip-path="url(#SVGID_4_)" />
				<path
   style="fill:#9fcae1"
   id="path2115"
   d="m 587.031,177.515 c -0.002,140.942 -0.005,281.885 -0.006,422.827 0,78.261 0.004,156.521 0.006,234.782 h -4.47 V 177.515 Z"
   clip-path="url(#SVGID_4_)" />
				<path
   style="fill:#ddebf8"
   id="path2117"
   d="M 693.396,835.124 V 177.515 h 4.021 c 0.688,4.432 0.603,8.901 0.164,13.36 -0.121,1.216 -0.153,2.415 -0.153,3.626 -0.004,18.624 -0.293,37.262 0.056,55.868 0.804,42.943 0.207,85.885 0.344,128.825 0.136,42.846 0.287,85.699 -0.083,128.537 -0.176,20.303 -0.555,40.62 -0.238,60.9 0.695,44.405 0.195,88.807 0.323,133.208 0.128,44.428 0.033,88.856 0.036,133.285 z"
   clip-path="url(#SVGID_4_)" />
				<path
   style="fill:#ddebf8"
   id="path2119"
   d="m 599.545,177.515 c 0.021,1.459 0.059,2.918 0.059,4.377 0.003,216.285 0.003,432.57 0,648.854 0,1.459 -0.037,2.919 -0.059,4.378 h -4.022 V 177.515 Z"
   clip-path="url(#SVGID_4_)" />
				<path
   style="fill:#c7dcf0"
   id="path2121"
   d="m 582.562,177.515 v 657.609 h -4.021 C 578.54,615.921 578.54,396.718 578.54,177.515 Z"
   clip-path="url(#SVGID_4_)" />
				<path
   style="fill:#c7dcf0"
   id="path2123"
   d="m 574.07,177.515 v 657.609 h -4.022 c -0.017,-1.459 -0.049,-2.919 -0.049,-4.38 -0.002,-216.282 -0.002,-432.566 0,-648.851 0,-1.46 0.032,-2.92 0.049,-4.379 h 4.022 z"
   clip-path="url(#SVGID_4_)" />
				<path
   style="fill:#ddebf8"
   id="path2125"
   d="M 553.065,835.124 V 177.515 h 4.022 c 0.014,1.581 0.041,3.163 0.041,4.744 0.002,216.04 0.002,432.081 0,648.121 0,1.581 -0.027,3.163 -0.041,4.744 z"
   clip-path="url(#SVGID_4_)" />
				<path
   style="fill:#9fcae1"
   id="path2127"
   d="m 548.596,177.515 c 0,219.203 0,438.406 10e-4,657.609 h -4.022 c -0.003,-111.001 -0.007,-222.003 -0.007,-333.005 0,-108.201 0.004,-216.402 0.007,-324.604 z"
   clip-path="url(#SVGID_4_)" />
				<path
   style="fill:#9fcae1"
   id="path2129"
   d="m 540.104,177.515 c 0.002,92.501 0.007,185.002 0.007,277.503 -10e-4,126.702 -0.004,253.404 -0.007,380.106 h -4.021 c 0,-219.203 -10e-4,-438.406 -10e-4,-657.609 z"
   clip-path="url(#SVGID_4_)" />
				<path
   style="fill:#9fcae1"
   id="path2131"
   d="m 633.957,835.124 c -0.003,-1.582 -0.008,-3.164 -0.008,-4.746 -10e-4,-216.039 -10e-4,-432.078 -10e-4,-648.117 0,-1.582 0.006,-3.164 0.009,-4.746 h 4.021 c 0.004,1.095 0.013,2.191 0.013,3.286 10e-4,217.012 10e-4,434.024 0,651.037 0,1.096 -0.009,2.19 -0.013,3.286 z"
   clip-path="url(#SVGID_4_)" />
				<path
   style="fill:#c7dcf0"
   id="path2133"
   d="M 523.122,177.515 V 835.124 H 519.1 c -0.002,-119.886 -0.006,-239.772 -0.006,-359.658 0,-99.317 0.004,-198.634 0.006,-297.951 z"
   clip-path="url(#SVGID_4_)" />
				<path
   style="fill:#4391c6"
   id="path2135"
   d="m 642.448,835.124 c -0.02,-1.459 -0.055,-2.918 -0.055,-4.378 -0.003,-216.284 -0.003,-432.569 -10e-4,-648.854 0,-1.459 0.035,-2.918 0.056,-4.377 h 4.021 c 0.003,7.789 0.01,15.579 0.01,23.368 v 628.034 c 0,2.069 -0.007,4.138 -0.01,6.207 z"
   clip-path="url(#SVGID_4_)" />
				<path
   style="fill:#0b529c"
   id="path2137"
   d="m 161.567,835.124 c 0,-219.203 0,-438.406 0,-657.609 h 4.022 c 0.002,23.125 0.007,46.251 0.007,69.376 0.001,194.495 0.001,388.991 0.001,583.487 0,1.582 -0.005,3.164 -0.008,4.746 z"
   clip-path="url(#SVGID_4_)" />
				<path
   style="fill:#4391c6"
   id="path2139"
   d="m 650.94,835.124 c -0.004,-13.632 -0.009,-27.264 -0.009,-40.896 -0.001,-203.501 -0.001,-407.002 0,-610.505 0,-2.069 0.005,-4.138 0.008,-6.207 h 4.021 c 0.021,1.459 0.057,2.918 0.057,4.378 0.002,216.284 0.002,432.569 0,648.853 0,1.46 -0.036,2.919 -0.057,4.378 h -4.02 z"
   clip-path="url(#SVGID_4_)" />
				<path
   style="fill:#2272b6"
   id="path2141"
   d="m 144.137,177.515 c 0,219.203 0,438.406 0,657.609 h -4.022 V 177.515 Z"
   clip-path="url(#SVGID_4_)" />
				<path
   style="fill:#9fcae1"
   id="path2143"
   d="m 659.432,835.124 c -0.005,-1.339 -0.014,-2.678 -0.014,-4.017 -10e-4,-216.525 -10e-4,-433.05 -10e-4,-649.576 0,-1.339 0.01,-2.678 0.015,-4.016 h 4.021 c 0.005,1.338 0.015,2.677 0.015,4.016 0.001,216.526 0.001,433.051 0.001,649.576 0,1.339 -0.011,2.678 -0.016,4.017 z"
   clip-path="url(#SVGID_4_)" />
				<path
   style="fill:#6baed7"
   id="path2145"
   d="m 467.704,177.515 c 0.002,184.516 0.004,369.03 0.005,553.546 0,34.688 -0.003,69.376 -0.005,104.063 h -4.022 c -0.002,-83.859 -0.007,-167.719 -0.006,-251.578 0,-135.344 0.004,-270.688 0.006,-406.031 z"
   clip-path="url(#SVGID_4_)" />
				<path
   style="fill:#6baed7"
   id="path2147"
   d="m 459.213,177.515 c 0.004,1.217 0.011,2.435 0.011,3.651 0,216.769 0,433.538 0,650.307 0,1.218 -0.007,2.435 -0.011,3.651 h -4.022 c -0.009,-1.46 -0.026,-2.921 -0.026,-4.381 -0.001,-216.282 -0.001,-432.564 0,-648.848 0,-1.46 0.017,-2.921 0.026,-4.381 h 4.022 z"
   clip-path="url(#SVGID_4_)" />
				<path
   style="fill:#c7dcf0"
   id="path2149"
   d="m 676.414,835.124 c -0.002,-98.587 -0.007,-197.173 -0.006,-295.76 0,-120.616 0.004,-241.233 0.006,-361.849 h 4.022 c 0.002,85.563 0.007,171.127 0.006,256.69 0,133.64 -0.004,267.279 -0.006,400.919 z"
   clip-path="url(#SVGID_4_)" />
				<path
   style="fill:#9fcae1"
   id="path2151"
   d="m 442.23,177.515 c 0.004,1.217 0.011,2.435 0.011,3.651 0.001,216.769 0.001,433.538 0,650.307 0,1.218 -0.007,2.435 -0.011,3.651 h -4.022 c -0.011,-1.46 -0.031,-2.921 -0.031,-4.381 -0.001,-216.282 -0.001,-432.564 0,-648.848 0,-1.461 0.02,-2.921 0.031,-4.381 h 4.022 z"
   clip-path="url(#SVGID_4_)" />
				<path
   style="fill:#6baed7"
   id="path2153"
   d="m 420.778,177.515 c 0.009,1.46 0.026,2.921 0.026,4.381 0.001,216.283 0.001,432.565 0,648.848 0,1.459 -0.017,2.921 -0.026,4.381 h -4.022 c -0.003,-11.928 -0.008,-23.855 -0.008,-35.783 -10e-4,-205.449 -10e-4,-410.899 0,-616.349 0,-1.826 0.005,-3.651 0.008,-5.477 h 4.022 z"
   clip-path="url(#SVGID_4_)" />
				<path
   style="fill:#213565"
   id="path2155"
   d="m 403.795,177.515 c 0.009,1.46 0.027,2.921 0.027,4.381 10e-4,216.283 10e-4,432.565 0,648.848 0,1.46 -0.018,2.921 -0.027,4.381 h -4.022 c -0.005,-1.217 -0.014,-2.434 -0.014,-3.651 0,-216.77 -0.001,-433.538 0,-650.307 0,-1.217 0.009,-2.434 0.014,-3.651 h 4.022 z"
   clip-path="url(#SVGID_4_)" />
				<path
   style="fill:#6baed7"
   id="path2157"
   d="m 395.304,177.515 c 0.015,1.582 0.043,3.163 0.043,4.745 0.002,216.04 0.002,432.08 0,648.12 0,1.581 -0.028,3.163 -0.043,4.744 h -4.022 c -0.003,-11.928 -0.008,-23.855 -0.008,-35.783 -10e-4,-205.449 -10e-4,-410.899 0,-616.349 0,-1.826 0.005,-3.651 0.008,-5.477 z"
   clip-path="url(#SVGID_4_)" />
				<path
   style="fill:#ddebf8"
   id="path2159"
   d="m 710.38,177.515 c 0.018,1.459 0.051,2.919 0.051,4.378 0.003,216.285 0.003,432.569 10e-4,648.854 0,1.459 -0.034,2.919 -0.052,4.378 h -4.022 c -0.002,-101.32 -0.006,-202.641 -0.006,-303.963 0,-117.881 0.004,-235.764 0.006,-353.646 h 4.022 z"
   clip-path="url(#SVGID_4_)" />
				<path
   style="fill:#213565"
   id="path2161"
   d="m 152.629,177.515 c 0.014,1.582 0.042,3.163 0.042,4.745 0.001,216.039 0.001,432.08 0,648.12 0,1.581 -0.027,3.163 -0.042,4.744 h -4.022 c -0.005,-1.217 -0.014,-2.434 -0.014,-3.651 -10e-4,-216.769 -10e-4,-433.538 0,-650.307 0,-1.217 0.009,-2.434 0.014,-3.651 z"
   clip-path="url(#SVGID_4_)" />
				<path
   style="fill:#f8baa2"
   id="path2163"
   d="m 714.849,835.124 c -0.004,-1.217 -0.013,-2.434 -0.013,-3.651 -10e-4,-216.769 -10e-4,-433.538 0,-650.307 0,-1.217 0.008,-2.434 0.013,-3.651 h 4.021 c 0.01,1.46 0.027,2.92 0.027,4.38 10e-4,216.283 10e-4,432.566 0,648.848 0,1.46 -0.018,2.921 -0.027,4.381 z"
   clip-path="url(#SVGID_4_)" />
				<path
   style="fill:#0b529c"
   id="path2165"
   d="m 357.316,835.124 c -0.008,-1.46 -0.024,-2.921 -0.024,-4.381 -10e-4,-216.282 -10e-4,-432.565 0,-648.847 0,-1.46 0.015,-2.921 0.024,-4.381 h 4.022 c 0.004,1.095 0.012,2.191 0.012,3.286 10e-4,217.012 10e-4,434.025 0,651.037 0,1.096 -0.008,2.191 -0.012,3.286 z"
   clip-path="url(#SVGID_4_)" />
				<path
   style="fill:#2272b6"
   id="path2167"
   d="m 352.847,177.515 c 0.002,77.409 0.007,154.818 0.006,232.227 0,141.793 -0.004,283.588 -0.006,425.382 h -4.022 c -0.009,-1.46 -0.026,-2.921 -0.026,-4.381 -10e-4,-216.282 -10e-4,-432.564 0,-648.848 0,-1.46 0.017,-2.921 0.026,-4.381 h 4.022 z"
   clip-path="url(#SVGID_4_)" />
				<path
   style="fill:#f28f73"
   id="path2169"
   d="m 735.854,177.515 c 0.013,1.582 0.037,3.164 0.037,4.745 0.001,216.04 0.001,432.079 0,648.119 0,1.582 -0.024,3.163 -0.037,4.745 h -4.021 c -0.013,-1.582 -0.037,-3.163 -0.037,-4.745 -0.002,-216.04 -0.002,-432.079 0,-648.119 0,-1.581 0.024,-3.163 0.036,-4.745 z"
   clip-path="url(#SVGID_4_)" />
				<path
   style="fill:#6baed7"
   id="path2171"
   d="m 331.395,177.515 v 657.609 h -4.022 c 0,-219.203 0,-438.406 0,-657.609 z"
   clip-path="url(#SVGID_4_)" />
				<path
   style="fill:#ed694e"
   id="path2173"
   d="m 740.323,835.124 c -0.021,-1.459 -0.056,-2.918 -0.056,-4.378 -0.004,-216.284 -0.004,-432.569 -0.001,-648.854 0,-1.459 0.036,-2.918 0.057,-4.377 h 4.021 c 0.004,1.704 0.01,3.408 0.01,5.111 0,215.796 10e-4,431.591 0,647.387 0,1.703 -0.006,3.407 -0.009,5.111 z"
   clip-path="url(#SVGID_4_)" />
				<path
   style="fill:#0b529c"
   id="path2175"
   d="m 322.904,177.515 c 0.008,1.46 0.024,2.921 0.024,4.381 10e-4,216.283 10e-4,432.565 0,648.848 0,1.459 -0.016,2.921 -0.024,4.381 h -4.022 c -0.016,-1.581 -0.045,-3.162 -0.045,-4.744 -0.002,-216.04 -0.002,-432.08 0,-648.12 0,-1.582 0.029,-3.163 0.045,-4.745 h 4.022 z"
   clip-path="url(#SVGID_4_)" />
				<path
   style="fill:#0b529c"
   id="path2177"
   d="M 293.407,835.124 V 177.515 h 4.022 c 0.003,23.247 0.008,46.494 0.008,69.741 0,194.374 0,388.748 0,583.122 0,1.582 -0.005,3.164 -0.008,4.746 z"
   clip-path="url(#SVGID_4_)" />
				<path
   style="fill:#ed694e"
   id="path2179"
   d="m 757.306,835.124 c -0.002,-199.242 -0.004,-398.485 -0.005,-597.727 0,-19.961 0.003,-39.921 0.005,-59.882 h 4.022 c 0.002,193.035 0.004,386.07 0.005,579.105 0,26.168 -0.003,52.336 -0.005,78.504 z"
   clip-path="url(#SVGID_4_)" />
				<path
   style="fill:#0b529c"
   id="path2181"
   d="m 284.916,835.124 c -0.016,-1.581 -0.045,-3.162 -0.045,-4.744 -0.002,-216.04 -0.002,-432.081 0,-648.121 0,-1.581 0.029,-3.163 0.045,-4.744 h 4.022 c 0.002,81.425 0.007,162.85 0.006,244.276 0,137.777 -0.004,275.556 -0.006,413.333 z"
   clip-path="url(#SVGID_4_)" />
				<path
   style="fill:#2272b6"
   id="path2183"
   d="m 276.425,835.124 c -0.002,-94.988 -0.007,-189.976 -0.006,-284.964 0,-124.215 0.004,-248.43 0.006,-372.645 h 4.022 c 0.009,1.46 0.026,2.921 0.026,4.38 10e-4,216.283 10e-4,432.566 0,648.848 0,1.461 -0.017,2.921 -0.026,4.381 z"
   clip-path="url(#SVGID_4_)" />
				<path
   style="fill:#2272b6"
   id="path2185"
   d="m 271.955,177.515 c 0,219.203 0,438.406 0,657.609 h -4.022 V 177.515 Z"
   clip-path="url(#SVGID_4_)" />
				<path
   style="fill:#ed694e"
   id="path2187"
   d="m 791.271,177.515 c 0.002,193.035 0.004,386.07 0.005,579.104 0,26.168 -0.003,52.336 -0.005,78.505 h -4.022 c -0.002,-201.921 -0.003,-403.839 -0.005,-605.76 0,-17.283 0.003,-34.566 0.005,-51.849 z"
   clip-path="url(#SVGID_4_)" />
				<path
   style="fill:#9fcae1"
   id="path2189"
   d="m 233.521,177.515 c 0.002,99.317 0.006,198.634 0.006,297.951 0,119.886 -0.004,239.772 -0.006,359.658 h -4.022 c -0.021,-1.459 -0.06,-2.918 -0.06,-4.377 -0.003,-216.285 -0.003,-432.57 0,-648.856 0,-1.459 0.039,-2.918 0.06,-4.376 z"
   clip-path="url(#SVGID_4_)" />
				<path
   style="fill:#cc181e"
   id="path2191"
   d="m 799.763,177.515 c 0.009,1.46 0.025,2.92 0.025,4.381 0.002,216.283 0.002,432.565 10e-4,648.848 -10e-4,1.459 -0.018,2.921 -0.026,4.381 h -4.022 c -0.002,-103.213 -0.006,-206.423 -0.006,-309.635 0,-115.992 0.004,-231.982 0.006,-347.975 z"
   clip-path="url(#SVGID_4_)" />
				<path
   style="fill:#2272b6"
   id="path2193"
   d="m 208.046,177.515 v 657.609 h -4.022 c 0,-219.203 0,-438.406 0,-657.609 z"
   clip-path="url(#SVGID_4_)" />
				<path
   style="fill:#2272b6"
   id="path2195"
   d="m 187.042,835.124 c 0,-219.203 0,-438.406 0,-657.609 h 4.022 v 657.609 z"
   clip-path="url(#SVGID_4_)" />
				<path
   style="fill:#cc181e"
   id="path2197"
   d="m 812.724,835.124 c -0.003,-103.212 -0.007,-206.423 -0.007,-309.635 0,-115.991 0.004,-231.983 0.007,-347.974 h 4.021 c 0.01,1.46 0.026,2.921 0.026,4.38 0.001,216.283 0.001,432.566 0,648.848 0,1.46 -0.017,2.921 -0.025,4.381 z"
   clip-path="url(#SVGID_4_)" />
				<path
   style="fill:#4391c6"
   id="path2199"
   d="m 174.081,177.515 c 0.014,1.582 0.041,3.163 0.041,4.745 0.002,216.04 0.002,432.08 10e-4,648.12 0,1.581 -0.027,3.163 -0.042,4.744 h -4.022 c -0.014,-1.581 -0.041,-3.163 -0.041,-4.744 -0.002,-216.04 -0.002,-432.08 0,-648.12 0,-1.582 0.026,-3.163 0.041,-4.745 z"
   clip-path="url(#SVGID_4_)" />
				<path
   style="fill:#a41a18"
   id="path2201"
   d="m 825.237,835.124 c 0.002,-46.859 0.007,-93.718 0.007,-140.577 10e-4,-170.884 10e-4,-341.767 0,-512.651 0,-1.46 -0.005,-2.921 -0.007,-4.381 h 4.021 c 0,219.203 0,438.406 0.002,657.609 z"
   clip-path="url(#SVGID_4_)" />
			</g><g
     id="sffletters">
			<path
   style="fill:#ffffff"
   id="path2229"
   d="m 113.319,685.408 c 1.685,0.857 3.435,0.889 5.247,0.096 1.815,-0.793 2.898,-2.239 3.254,-4.344 0.355,-2.103 -0.031,-6.432 -1.162,-12.984 -1.128,-6.554 -0.952,-12.104 0.531,-16.647 1.485,-4.544 5.021,-8.038 10.61,-10.482 5.59,-2.444 11.04,-2.329 16.352,0.341 5.312,2.672 9.462,7.428 12.452,14.264 4.315,9.873 4.546,20.362 0.688,31.467 l -13.795,-3.85 c 2.949,-9.293 3.176,-16.793 0.681,-22.502 -1.118,-2.556 -2.545,-4.323 -4.283,-5.299 -1.736,-0.977 -3.542,-1.055 -5.415,-0.235 -1.873,0.82 -3.021,2.242 -3.445,4.269 -0.424,2.028 -0.2,5.577 0.672,10.65 1.447,8.008 1.522,14.298 0.226,18.865 -1.295,4.569 -4.901,8.146 -10.819,10.732 -5.916,2.587 -11.409,2.457 -16.479,-0.391 -5.069,-2.848 -8.995,-7.452 -11.777,-13.816 -1.819,-4.161 -2.927,-8.637 -3.319,-13.424 -0.392,-4.784 0.044,-9.297 1.308,-13.533 l 13.25,2.6 c -1.737,7.207 -1.345,13.693 1.176,19.461 1.012,2.319 2.362,3.905 4.047,4.762 z" />
			<path
   style="fill:#ffffff"
   id="path2231"
   d="m 127.129,600.832 c -1.871,-7.223 -6.259,-12.391 -13.165,-15.495 l 7.266,-11.938 c 10.356,5.296 16.848,13.018 19.475,23.162 2.629,10.148 1.59,19.334 -3.118,27.559 -4.707,8.225 -11.945,13.602 -21.716,16.133 -9.768,2.531 -18.786,1.297 -27.054,-3.701 -8.267,-4.998 -13.654,-12.334 -16.161,-22.01 -2.799,-10.806 -1.026,-20.918 5.315,-30.34 l 12.734,6.457 c -4.575,6.146 -5.969,12.676 -4.179,19.586 1.433,5.529 4.464,9.789 9.093,12.778 4.631,2.992 10.008,3.692 16.133,2.106 6.126,-1.587 10.562,-4.713 13.308,-9.381 2.748,-4.666 3.436,-9.639 2.069,-14.916 z" />
			<path
   style="fill:#ffffff"
   id="path2233"
   d="m 66.071,573.893 -2.032,-15.051 67.434,-9.105 2.033,15.051 z" />
			<path
   style="fill:#ffffff"
   id="path2235"
   d="m 60.49,492.312 13.527,-0.355 0.891,33.866 14.013,-0.369 -0.801,-30.459 12.943,-0.34 0.8,30.46 14.11,-0.371 -0.918,-34.937 13.43,-0.353 1.317,50.116 -68.023,1.788 z" />
			<path
   style="fill:#ffffff"
   id="path2237"
   d="m 67.876,426.406 2.168,-15.031 67.35,9.716 -2.168,15.031 -46.831,25.997 42.202,6.088 -2.168,15.031 -67.35,-9.715 2.029,-14.068 48.125,-26.793 z" />
			<path
   style="fill:#ffffff"
   id="path2239"
   d="m 96.774,367.95 52.309,16.685 -4.615,14.468 -52.309,-16.686 -5.857,18.364 -12.52,-3.994 16.33,-51.195 12.521,3.994 z" />
			<path
   style="fill:#ffffff"
   id="path2241"
   d="m 95.235,334.876 6.098,-13.908 62.319,27.327 -6.099,13.908 z" />
			<path
   style="fill:#ffffff"
   id="path2243"
   d="m 128.251,297.814 c 0.315,1.864 1.331,3.289 3.047,4.274 1.718,0.986 3.525,0.995 5.428,0.028 1.901,-0.966 5.149,-3.854 9.742,-8.664 4.594,-4.809 9.157,-7.97 13.692,-9.484 4.534,-1.512 9.448,-0.75 14.738,2.285 5.292,3.037 8.445,7.484 9.461,13.342 1.015,5.858 -0.335,12.024 -4.049,18.497 -5.362,9.344 -13.653,15.773 -24.873,19.286 l -5.119,-13.376 c 9.223,-3.163 15.385,-7.446 18.485,-12.85 1.389,-2.42 1.959,-4.618 1.709,-6.596 -0.25,-1.976 -1.262,-3.474 -3.035,-4.491 -1.773,-1.017 -3.6,-1.092 -5.481,-0.227 -1.881,0.867 -4.6,3.16 -8.156,6.879 -5.573,5.932 -10.582,9.736 -15.024,11.413 -4.442,1.679 -9.463,0.911 -15.064,-2.304 -5.601,-3.214 -8.767,-7.705 -9.497,-13.474 -0.729,-5.769 0.633,-11.664 4.09,-17.688 2.261,-3.939 5.197,-7.493 8.811,-10.658 3.611,-3.164 7.496,-5.5 11.652,-7.006 l 5.798,12.194 c -6.824,2.894 -11.803,7.071 -14.936,12.53 -1.261,2.195 -1.732,4.226 -1.419,6.09 z" />
			<path
   style="fill:#ffffff"
   id="path2245"
   d="m 169.741,235.32 43.333,33.716 -9.326,11.986 -43.332,-33.717 -11.837,15.212 -10.373,-8.07 33,-42.411 10.372,8.071 z" />
			<path
   style="fill:#ffffff"
   id="path2247"
   d="m 201.063,201.146 c -0.213,1.878 0.369,3.529 1.746,4.95 1.378,1.422 3.112,1.931 5.208,1.528 2.095,-0.403 6.014,-2.279 11.758,-5.631 5.745,-3.351 11.005,-5.126 15.781,-5.328 4.776,-0.199 9.288,1.891 13.532,6.272 4.245,4.381 6.046,9.527 5.401,15.438 -0.644,5.91 -3.646,11.463 -9.006,16.656 -7.737,7.497 -17.483,11.383 -29.236,11.655 l -1.221,-14.271 c 9.737,-0.488 16.844,-2.9 21.318,-7.236 2.003,-1.94 3.16,-3.896 3.466,-5.866 0.307,-1.968 -0.252,-3.687 -1.674,-5.155 -1.423,-1.468 -3.157,-2.045 -5.205,-1.734 -2.047,0.312 -5.295,1.764 -9.741,4.355 -6.997,4.159 -12.862,6.43 -17.594,6.813 -4.734,0.385 -9.347,-1.741 -13.841,-6.379 -4.493,-4.638 -6.294,-9.83 -5.399,-15.576 0.893,-5.745 3.834,-11.034 8.821,-15.867 3.263,-3.161 7.067,-5.763 11.414,-7.806 4.346,-2.042 8.726,-3.211 13.136,-3.51 l 2.199,13.322 c -7.358,0.894 -13.298,3.531 -17.817,7.911 -1.817,1.761 -2.832,3.581 -3.046,5.459 z" />
			<path
   style="fill:#ffffff"
   id="path2249"
   d="m 285.912,118.71 7.242,11.199 -26.486,17.126 7.981,12.344 25.179,-16.28 7.241,11.199 -25.179,16.28 14.483,22.399 -12.753,8.246 -36.947,-57.142 z" />
			<path
   style="fill:#ffffff"
   id="path2251"
   d="m 376.312,141.465 c -3.656,8.893 -10.103,15.332 -19.339,19.316 -9.237,3.985 -18.344,4.256 -27.32,0.813 -8.979,-3.442 -15.446,-9.751 -19.405,-18.929 -3.959,-9.176 -4.111,-18.211 -0.455,-27.104 3.655,-8.893 10.101,-15.331 19.338,-19.316 9.236,-3.984 18.344,-4.255 27.321,-0.813 8.977,3.442 15.446,9.752 19.404,18.928 3.96,9.178 4.111,18.213 0.456,27.105 z m -14.648,-20.928 c -2.403,-5.571 -6.242,-9.552 -11.514,-11.943 -5.272,-2.391 -10.516,-2.461 -15.729,-0.211 -5.215,2.25 -8.761,6.112 -10.64,11.587 -1.879,5.476 -1.615,11 0.788,16.571 2.403,5.572 6.235,9.539 11.494,11.898 5.26,2.361 10.495,2.417 15.71,0.167 5.214,-2.249 8.768,-6.097 10.658,-11.542 1.893,-5.446 1.636,-10.954 -0.767,-16.527 z" />
			<path
   style="fill:#ffffff"
   id="path2253"
   d="m 438.42,88.429 c 2.442,10.626 -0.187,18.457 -7.886,23.488 l 22.244,19.859 -18.216,4.187 -19.568,-17.777 -10.246,2.355 4.863,21.156 -14.801,3.402 -15.243,-66.317 25.142,-5.779 c 10.309,-2.37 18.062,-2.319 23.258,0.147 5.194,2.471 8.679,7.563 10.453,15.279 z m -16.026,11.975 c 1.456,-2.065 1.774,-4.886 0.953,-8.459 -0.822,-3.573 -2.334,-5.807 -4.537,-6.699 -2.202,-0.892 -5.676,-0.793 -10.419,0.298 l -11.101,2.551 4.514,19.639 10.816,-2.486 c 5.059,-1.164 8.317,-2.777 9.774,-4.844 z" />
			<path
   style="fill:#ffffff"
   id="path2255"
   d="m 522.457,60.951 0.273,13.334 -31.534,0.645 0.301,14.697 29.977,-0.613 0.272,13.334 -29.977,0.613 0.546,26.668 -15.184,0.311 -1.392,-68.032 z" />
			<path
   style="fill:#ffffff"
   id="path2257"
   d="m 549.762,114.098 c 2.081,3.462 5.245,5.482 9.488,6.062 4.244,0.58 7.816,-0.52 10.718,-3.301 2.901,-2.78 4.722,-6.872 5.459,-12.273 l 5.085,-37.23 15.047,2.055 -5.15,37.713 c -1.336,9.775 -5.062,16.913 -11.179,21.415 -6.117,4.504 -13.389,6.18 -21.811,5.029 -8.425,-1.15 -14.992,-4.732 -19.706,-10.748 -4.715,-6.014 -6.407,-13.876 -5.08,-23.586 l 5.149,-37.713 15.046,2.055 -5.084,37.23 c -0.737,5.401 -0.065,9.832 2.018,13.292 z" />
			<path
   style="fill:#ffffff"
   id="path2259"
   d="m 638.045,95.02 -15.857,52.564 -14.539,-4.386 15.856,-52.565 -18.453,-5.567 3.795,-12.582 51.447,15.52 -3.796,12.583 z" />
			<path
   style="fill:#ffffff"
   id="path2261"
   d="m 668.19,146.493 c 0.91,3.937 3.294,6.835 7.15,8.698 3.857,1.862 7.595,1.921 11.215,0.173 3.617,-1.748 6.613,-5.076 8.984,-9.985 l 16.344,-33.836 13.675,6.605 -16.555,34.274 c -4.292,8.884 -10.041,14.521 -17.251,16.912 -7.209,2.393 -14.642,1.739 -22.296,-1.959 -7.657,-3.698 -12.797,-9.134 -15.42,-16.312 -2.625,-7.177 -1.804,-15.178 2.458,-24.002 l 16.555,-34.275 13.675,6.605 -16.343,33.836 c -2.37,4.909 -3.101,9.332 -2.191,13.266 z" />
			<path
   style="fill:#ffffff"
   id="path2263"
   d="m 774.437,178.988 c -6.341,8.87 -13.947,12.088 -22.818,9.655 l -0.136,29.819 -15.206,-10.87 0.352,-26.436 -8.554,-6.114 -12.624,17.66 -12.355,-8.832 39.574,-55.356 20.986,15.003 c 8.604,6.151 13.703,11.992 15.299,17.519 1.592,5.527 0.086,11.511 -4.518,17.952 z m -19.587,-4.071 c 2.511,-0.277 4.835,-1.908 6.967,-4.892 2.132,-2.982 2.804,-5.595 2.012,-7.835 -0.791,-2.242 -3.167,-4.777 -7.126,-7.608 l -9.266,-6.624 -11.719,16.394 9.027,6.454 c 4.224,3.019 7.591,4.39 10.105,4.111 z" />
			<path
   style="fill:#ffffff"
   id="path2265"
   d="m 836.868,207.655 -9.503,9.632 -24.115,-23.792 -9.846,9.979 21.691,21.399 -9.094,9.217 -21.69,-21.399 -9.913,10.048 24.879,24.544 -9.436,9.563 -35.689,-35.209 47.789,-48.441 z" />
		      </g>


<g
    id="additional"
    transform="matrix(0.64,-0.23,0.23,0.64,-150,200)">



      <defs
   id="defs991">
        <path
   id="circlePath"
   d="m 130,750 a 620,620 0 0 0 1240,0"
   style="fill:none;stroke:#ff0000;stroke-width:10px" />

      </defs>

      <text font-variant="small-caps" v-bind:transform="'rotate(' + (-125 + textInfo(title, { fontFamily: 'Montserrat', fontVariant: 'small-caps', fontSize: ([ { max: 1500, value: 170 }, { max: 1700, value: 160 }, { max: 1870, value: 130 }, { max: 2050, value: 120 }, { max: 2385, value: 110 }, { max: 2650, value: 100 }, { max: 2840, value: 90 }, { max: Infinity, value: 80 } ].filter(record => textInfo(title, { fontFamily: 'Montserrat', fontSize: '160px' }).width <= record.max)[0].value) + 'px' }).width / 17.5) + ', 750, 750)'" v-bind:data-size="textInfo(title, { fontFamily: 'Montserrat', fontSize: '160px' }).width" v-bind:data-length="textInfo(title, { fontFamily: 'Montserrat', fontSize: '160px' }).width" v-bind:style="{ 'fill': '#fff' }">
        <textPath alignment-baseline="middle" text-anchor="middles" xlink:href="#circlePath" style="font-family: 'Montserrat'; font-weight: bold; font-variant: small-caps; font-variant-caps:small-caps; font-size: 160px;" v-bind:style="{ 'font-size': ([ { max: 1500, value: 170 }, { max: 1700, value: 160 }, { max: 1870, value: 130 }, { max: 2050, value: 120 }, { max: 2385, value: 110 }, { max: 2650, value: 100 }, { max: 2840, value: 90 }, { max: Infinity, value: 80 } ].filter(record => textInfo(title, { fontFamily: 'Montserrat', fontSize: '160px' }).width <= record.max)[0].value) + 'px' }">
          {{ title }}
        </textPath>
      </text>


        </g></g>
      </svg>
