<?xml version="1.0" encoding="UTF-8" standalone="no"?>
<!-- Generator: Adobe Illustrator 14.0.0, SVG Export Plug-In . SVG Version: 6.00 Build 43363)  -->

<svg
   xmlns:dc="http://purl.org/dc/elements/1.1/"
   xmlns:cc="http://creativecommons.org/ns#"
   xmlns:rdf="http://www.w3.org/1999/02/22-rdf-syntax-ns#"
   xmlns:svg="http://www.w3.org/2000/svg"
   xmlns="http://www.w3.org/2000/svg"
   xmlns:sodipodi="http://sodipodi.sourceforge.net/DTD/sodipodi-0.dtd"
   xmlns:inkscape="http://www.inkscape.org/namespaces/inkscape"
   version="1.1"
   id="Calque_1"
   x="0px"
   y="0px"
   width="470px"
   height="470px"
   viewBox="0 0 470 470"
   enable-background="new 0 0 470 470"
   xml:space="preserve"
   sodipodi:docname="yfd.svg"
   inkscape:version="0.92.3 (2405546, 2018-03-11)"><metadata
   id="metadata135"><rdf:RDF><cc:Work
       rdf:about=""><dc:format>image/svg+xml</dc:format><dc:type
         rdf:resource="http://purl.org/dc/dcmitype/StillImage" /><dc:title></dc:title></cc:Work></rdf:RDF></metadata><defs
   id="defs133" /><sodipodi:namedview
   pagecolor="#ffffff"
   bordercolor="#666666"
   borderopacity="1"
   objecttolerance="10"
   gridtolerance="10"
   guidetolerance="10"
   inkscape:pageopacity="0"
   inkscape:pageshadow="2"
   inkscape:window-width="1920"
   inkscape:window-height="987"
   id="namedview131"
   showgrid="false"
   inkscape:snap-text-baseline="true"
   inkscape:zoom="0.59047979"
   inkscape:cx="178.23883"
   inkscape:cy="256.31361"
   inkscape:window-x="0"
   inkscape:window-y="0"
   inkscape:window-maximized="1"
   inkscape:current-layer="Calque_1" />
<circle
   cx="235"
   cy="235"
   r="235"
   id="circle2"
   fill="#FFFFFF" />
<g
   id="g14">
	<path
   fill="#080C0E"
   d="M143.826,242.948l-13.48-23.079h13.378l6.127,11.744l6.178-11.744h13.225l-13.48,22.927v12.815h-11.948   V242.948z"
   id="path4" />
	<path
   fill="#080C0E"
   d="M169.667,237.843v-0.102c0-10.366,8.527-18.638,19.556-18.638c11.029,0,19.455,8.17,19.455,18.536v0.103   c0,10.364-8.527,18.637-19.556,18.637C178.092,256.378,169.667,248.208,169.667,237.843z M196.627,237.843v-0.102   c0-4.239-2.911-8.069-7.506-8.069c-4.545,0-7.404,3.779-7.404,7.966v0.103c0,4.237,2.91,8.066,7.505,8.066   C193.768,245.808,196.627,242.029,196.627,237.843z"
   id="path6" />
	<path
   fill="#080C0E"
   d="M211.644,239.579v-19.71h12.153v19.557c0,4.441,2.298,6.331,5.515,6.331s5.515-1.736,5.515-6.076v-19.812   h12.152v19.454c0,12.203-7.098,17.003-17.77,17.003C218.538,256.326,211.644,251.425,211.644,239.579z"
   id="path8" />
	<path
   fill="#080C0E"
   d="M259.901,229.979h-10.519v-10.11h32.985v10.11h-10.518v25.632h-11.949V229.979z"
   id="path10" />
	<path
   fill="#080C0E"
   d="M285.079,219.869h11.948v12.612h10.927v-12.612h11.949v35.742h-11.949v-12.815h-10.927v12.815h-11.948   V219.869z"
   id="path12" />
</g>
<g
   id="g36"
   transform="matrix(1,0,0,0.90186216,0,25.861663)">
	<path
   d="m 132.245,263.93 h 15.84 v 8.72147 h -9.515 v 3.87926 h 8.84 v 7.93594 h -8.84 v 9.98444 h -6.325 z"
   id="path16"
   inkscape:connector-curvature="0"
   style="fill:#d400aa;stroke-width:1.27003789" />
	<path
   d="m 149.142,278.96967 v -0.0841 c 0,-8.54253 4.514,-15.3616 10.353,-15.3616 5.839,0 10.3,6.73345 10.3,15.27753 v 0.0841 c 0,8.54408 -4.515,15.36003 -10.354,15.36003 -5.839,0.002 -10.299,-6.73188 -10.299,-15.27596 z m 14.273,0 v -0.0841 c 0,-3.49361 -1.541,-6.64938 -3.974,-6.64938 -2.406,0 -3.919,3.11373 -3.919,6.56686 v 0.0841 c 0,3.49205 1.541,6.64938 3.973,6.64938 2.406,0 3.92,-3.11529 3.92,-6.56686 z"
   id="path18"
   inkscape:connector-curvature="0"
   style="fill:#d400aa;stroke-width:1.24774432" />
	<path
   d="m 171.526,263.93 h 9.245 c 3.352,0 5.488,1.34348 6.812,3.46771 1.135,1.81963 1.73,4.07373 1.73,7.19355 v 0.0882 c 0,4.42002 -1.433,7.49655 -3.73,9.2745 l 4.406,10.31336 h -7.218 l -3.568,-8.66688 h -1.352 v 8.66688 h -6.326 V 263.93 Z m 9.056,14.43358 c 1.514,0 2.434,-1.08536 2.434,-2.94828 v -0.0866 c 0,-1.95109 -0.946,-2.90339 -2.406,-2.90339 h -2.757 v 5.93664 h 2.729 z"
   id="path20"
   inkscape:connector-curvature="0"
   style="fill:#d400aa;stroke-width:1.26617408" />
	
	
	
	
	
	
	
<text
   xml:space="preserve"
   style="font-style:normal;font-weight:normal;font-size:43.73661804px;line-height:1.25;font-family:sans-serif;letter-spacing:0px;word-spacing:0px;fill:#000000;fill-opacity:1;stroke:none;stroke-width:1.0934155"
   x="220.47353"
   y="258.15012"
   id="text165"
   transform="scale(0.8776137,1.1394535)"><tspan
     sodipodi:role="line"
     id="tspan163"
     x="220.47353"
     y="258.15012"
     style="font-style:normal;font-variant:normal;font-weight:normal;font-stretch:normal;font-size:36.91027832px;font-family:Gotham;-inkscape-font-specification:Gotham;fill:#a02c89;stroke-width:1.0934155">DATING</tspan></text>
</g>
<rect
   fill="none"
   width="470"
   height="470"
   id="rect38" />



<path
   fill="#B4B930"
   d="M67.748,321.628c6.803-1.488,5.803-6.215,7.196-11.471c1.393-5.257,3.482-16.059-1.161-18.317  c-4.642-2.26-7.66,18.466-12.302,18.317c-4.643-0.15-14.624-2.472-14.856,1.475C46.392,315.578,57.07,323.963,67.748,321.628"
   id="path46"
   style="fill:#ab37c8" />
<path
   fill="#B4B930"
   d="M50.803,277.045c-3.737,0.208-10.678-9.749-15.088-4.874c-4.41,4.874,10.393,14.061,19.267,16.48  c2.553,0.696,7.428-13.695,8.124-19.498c0.697-5.804,1.167-10.208-3.714-10.214C52.66,258.932,54.981,276.813,50.803,277.045"
   id="path48"
   style="fill:#ab37c8" />
<path
   fill="#B4B930"
   d="M91.192,353.879c-9.285,0.696-28.907-1.955-27.656-9.518c0.729-4.41,19.3,0.571,19.764-2.5  c0.464-3.071,1.476-20.348,7.892-15.874c3.714,2.59,4.875,10.125,3.25,15.874C92.817,347.611,91.192,353.879,91.192,353.879"
   id="path50" />
<path
   fill="#B4B930"
   d="M48.296,250.815c-7.01,0-15.134-7.196-17.688-12.535c-2.554-5.339-3.946-6.5,0-6.964  c3.946-0.464,11.606,5.804,13.463,8.124c0,0,4.643-6.035,7.428-9.285c2.786-3.25,8.655-7.892,10.13-3.482  c1.476,4.411-2.47,14.16-5.488,17.178S48.296,250.815,48.296,250.815"
   id="path52" />
<path
   fill="#B4B930"
   d="M113.012,377.556c-3.289,5.415-7.893,6.731-13.231,6.035s-10.213-3.018-11.142-6.035  c-0.929-3.019,3.946-4.411,7.892-4.875s9.981,0.232,9.285-5.571c-0.697-5.803-2.089-15.784,0.928-18.569  c3.018-2.786,6.035,3.018,7.428,10.445C114.173,358.985,116.958,371.056,113.012,377.556"
   id="path54" />
<path
   fill="#B4B930"
   d="M142.26,400.071c-4.643,4.875-11.097,6.262-15.785,6.964c-2.993,0.448-10.213,0.281-11.348-3.479  c-1.305-4.323,12.543-5.927,16.036-7.432c4.032-1.735,1.438-6.683-0.001-11.117c-1.437-4.435-3.202-7.917,0.001-9.542  c3.205-1.625,7.664,6.268,9.496,11.606C142.492,392.411,144.926,397.272,142.26,400.071"
   id="path56" />
<path
   fill="#B4B930"
   d="M170.347,415.159c-4.967,4.067-13.399,11.182-22.052,8.821c-2.553-0.696-1.939-3.714,1.584-6.268  c3.523-2.554,10.951-3.714,11.183-8.124c0.232-4.411-4.093-9.278-2.522-14.16c0.897-2.785,3.915-0.696,6.932,3.482  C168.49,403.089,173.984,412.182,170.347,415.159"
   id="path58" />
<path
   fill="#B4B930"
   d="M198.202,424.449c-4.148,3.513-11.606,10.44-15.552,10.673c-3.946,0.232-6.5-0.696-6.964-3.481  c-0.464-2.786,6.721-8.485,10.214-9.75c4.489-1.624,0-5.106-1.625-7.428s-3.339-6.499-2.714-9.285  c0.625-2.785,3.41-3.249,6.892-2.321c3.482,0.929,6.268,8.125,7.892,11.839C197.97,418.409,199.543,423.313,198.202,424.449"
   id="path60" />
<path
   fill="none"
   stroke="#B3BB2F"
   stroke-width="4"
   stroke-miterlimit="10"
   d="M419.354,175.381  c-5.046-21.712-18.585-46.095-41.952-68.948c-42.246-41.318-104.456-60.352-138.346-59.888  c-33.891,0.464-72.888,2.786-118.384,37.604c-45.497,34.819-71.401,83.23-75.625,128.894  c-4.226,45.664,11.095,77.548,24.094,105.246s47.789,73.776,90.001,91.016c42.212,17.239,23.208,10.305,31.247,12.354  C265.054,440.693,472.108,402.423,419.354,175.381z"
   id="path62" />



























<path
   style="fill:#ab37c8;fill-opacity:1;stroke-width:0.37871853"
   d="m 236.83611,439.93227 c -1.00108,-1.20652 -0.54681,-3.58748 1.5033,-7.8792 1.07441,-2.24917 1.95365,-4.19533 1.95386,-4.32477 2.2e-4,-0.12946 -3.3679,-0.18618 -7.48469,-0.12605 l -7.48509,0.10931 -1.11732,2.13404 c -1.71391,3.27357 -4.74269,6.30528 -7.85425,7.86193 -3.58124,1.79164 -4.75005,1.75934 -6.50181,-0.17966 -2.0684,-2.28947 -1.84541,-3.4763 1.52286,-8.1053 l 1.66773,-2.29193 -5.59388,-0.62768 c -3.07663,-0.34523 -6.5991,-0.81648 -7.82772,-1.04723 l -2.23385,-0.41955 -2.31077,1.92899 c -3.99377,3.33394 -8.31234,6.48003 -9.88514,7.20134 -0.92401,0.42379 -2.40118,0.69779 -3.78719,0.70252 -3.89831,0.0133 -6.00066,-1.69775 -5.33668,-4.34325 0.33745,-1.34453 3.99882,-5.01151 6.78052,-6.79095 1.18469,-0.75783 2.15399,-1.44261 2.15399,-1.52173 0,-0.12717 -11.91317,-5.25691 -14.43667,-6.21635 -0.87177,-0.33144 -1.34361,-0.0951 -4.40389,2.20617 -6.54936,4.92493 -12.13145,6.82598 -17.11602,5.82906 -1.55279,-0.31055 -2.44358,-1.59598 -1.96219,-2.83147 0.69349,-1.77981 2.94287,-3.49498 7.48425,-5.70678 2.52832,-1.23137 4.89413,-2.56725 5.25736,-2.96862 0.63515,-0.70183 0.61866,-0.74537 -0.43104,-1.13828 -3.24356,-1.21408 -10.27611,-4.61337 -14.22649,-6.8766 -2.47759,-1.41944 -4.68484,-2.58081 -4.90499,-2.58081 -0.22014,0 -0.88698,0.34658 -1.48186,0.77017 -4.47447,3.1861 -14.58381,5.1455 -19.59113,3.79717 -2.18056,-0.58716 -3.87154,-2.08851 -3.87154,-3.43736 0,-1.99724 2.53502,-3.25875 10.68131,-5.31537 2.5445,-0.64239 4.86166,-1.29965 5.14923,-1.46059 0.37075,-0.20748 -0.83668,-1.34829 -4.1507,-3.92165 -2.57045,-1.99599 -7.05948,-5.75231 -9.97561,-8.34741 l -5.30206,-4.71834 -1.46852,1.32332 c -2.33462,2.10379 -4.47395,2.86815 -7.99312,2.85587 -6.779573,-0.0237 -13.450832,-3.24961 -13.450832,-6.50427 0,-2.24542 3.008748,-3.60658 9.392174,-4.24903 5.514618,-0.55501 6.619828,-1.04562 5.123758,-2.27446 -0.96429,-0.79204 -7.916985,-8.77471 -11.204887,-12.86477 l -2.921673,-3.63449 -4.313324,-0.24635 c -9.513721,-0.54337 -17.530029,-2.91469 -20.074126,-5.93818 -1.017302,-1.20899 -1.408904,-3.85785 -0.640542,-4.33273 1.18969,-0.73527 4.886346,-0.94629 10.417614,-0.59468 3.289185,0.20908 6.120727,0.29339 6.292321,0.18733 0.171594,-0.10604 -1.018685,-2.27632 -2.645057,-4.82284 C 72.439139,329.13093 69.971219,324.52159 64.013588,311.64552 53.184432,288.24074 47.631517,271.91759 44.80646,255.18492 l -0.869836,-5.15199 -2.845041,-1.55523 c -1.879847,-1.02762 -3.899479,-2.60644 -5.953144,-4.65379 -2.671592,-2.66338 -3.387069,-3.67233 -5.094429,-7.184 -1.905755,-3.91974 -1.957247,-4.10672 -1.269455,-4.60964 1.964851,-1.43674 6.022878,-0.0432 11.029308,3.78736 l 2.693476,2.06088 0.247449,-11.99142 c 0.136097,-6.59528 0.378937,-13.05688 0.539645,-14.35911 l 0.292197,-2.36769 -2.845837,-1.4195 c -3.314734,-1.65338 -5.441402,-4.00792 -7.709211,-8.53524 -1.837818,-3.66891 -1.913149,-5.75996 -0.266814,-7.4063 3.218132,-3.21813 8.542981,-2.1488 11.552411,2.31995 0.728406,1.08162 1.329849,1.88365 1.336539,1.78228 0.09422,-1.42764 4.251697,-16.14544 5.933972,-21.00675 l 2.22552,-6.43114 -2.704523,-4.00191 c -3.91442,-5.79221 -5.468379,-10.5226 -4.914096,-14.95893 0.464312,-3.71622 2.052355,-4.18598 4.736593,-1.40113 1.194635,1.23941 2.199583,2.87255 3.198598,5.19802 0.801173,1.86495 1.878728,4.05939 2.394566,4.87653 l 0.937886,1.4857 4.057133,-7.91456 c 2.231423,-4.35302 4.779776,-9.08442 5.663005,-10.51424 l 1.605869,-2.59966 -0.835639,-0.5853 c -2.111894,-1.47923 -3.426415,-2.95463 -4.401416,-4.94008 -0.939119,-1.91237 -1.054051,-2.55193 -1.033232,-5.74955 0.0341,-5.23699 1.455578,-9.56319 3.967625,-12.07523 1.532507,-1.53251 3.060618,-1.58451 4.067683,-0.13844 1.137584,1.63348 1.586058,3.34678 2.160873,8.25515 0.293882,2.50946 0.730814,5.06581 0.970959,5.68078 l 0.436628,1.11813 0.81398,-1.1035 c 7.749816,-10.50632 12.937931,-16.86961 18.823747,-23.08757 l 3.042462,-3.21415 -0.963475,-3.323354 c -2.12218,-7.320133 -0.504499,-15.101125 3.540954,-17.031854 1.08872,-0.519601 1.52318,-0.542291 2.84039,-0.148334 3.58266,1.071515 5.28356,3.510838 5.32,7.629588 0.0259,2.923529 -0.57167,3.11382 5.05342,-1.609308 1.8868,-1.584262 5.21441,-4.225824 7.39468,-5.870138 l 3.96414,-2.989664 -0.19626,-3.976544 c -0.22698,-4.599168 0.32471,-7.348548 2.27431,-11.334197 1.39362,-2.849026 4.8827,-6.664736 6.44797,-7.051604 2.49606,-0.616919 3.19173,1.872295 2.51998,9.016926 -0.24217,2.575751 -0.3791,4.953483 -0.30428,5.28385 0.10582,0.467263 1.18741,-0.02881 4.87001,-2.233641 4.89697,-2.931892 15.34203,-8.290133 19.75017,-10.131695 2.34796,-0.980891 2.51849,-1.132712 2.51856,-2.242246 5e-5,-0.654564 0.58051,-2.638715 1.28991,-4.409224 l 1.28983,-3.219108 4.6036,-0.106219 4.60359,-0.10622 -0.55357,1.324891 c -0.69583,1.665357 -0.70677,2.829077 -0.029,3.089144 0.28849,0.110703 2.29097,-0.313055 4.44995,-0.941685 2.15898,-0.62863 6.05143,-1.661882 8.64989,-2.296117 l 4.72448,-1.153153 13.64337,0.06537 c 7.50385,0.03595 12.55174,0.16377 11.21753,0.284039 l -2.42584,0.218673 2.6152,2.175927 c 4.12038,3.428289 6.59174,6.812912 6.59174,9.027644 0,2.60233 -2.70676,3.312902 -7.69547,2.020197 -4.72196,-1.223581 -7.68997,-3.035833 -12.10753,-7.392776 l -4.08618,-4.030114 -2.92011,0.540754 c -4.49153,0.831753 -11.29738,2.378571 -13.66468,3.105677 l -2.13186,0.654794 2.46167,0.486285 c 3.12211,0.616751 5.93277,1.813179 6.64359,2.828011 0.79693,1.137773 0.70265,3.758771 -0.17404,4.83827 -0.68922,0.84867 -0.94404,0.892283 -5.01802,0.858842 -4.8019,-0.03941 -8.22433,-0.779254 -14.21894,-3.073757 l -3.52727,-1.3501 -3.49826,1.4331 c -7.76787,3.182198 -25.03775,12.415229 -24.76932,13.242472 0.066,0.203391 2.32264,1.32113 5.01476,2.483864 7.78162,3.360911 9.25001,4.290656 9.25001,5.85686 0,0.958274 -1.26667,2.245428 -2.77036,2.815162 -1.71374,0.649318 -7.32647,0.461971 -11.24222,-0.375255 -1.97881,-0.423087 -4.876,-1.038904 -6.43822,-1.368483 -1.56221,-0.329579 -3.42512,-0.895435 -4.1398,-1.257457 l -1.29942,-0.658223 -2.29841,1.68243 c -2.54847,1.865475 -12.32357,9.850732 -14.98548,12.241609 -1.60385,1.440547 -1.66299,1.56179 -1.00395,2.058381 0.38515,0.290223 1.84399,0.875067 3.24185,1.299652 4.37219,1.328008 6.85135,3.706728 6.85135,6.573788 0,1.40788 -1.02626,2.76359 -2.5227,3.33253 -1.17912,0.4483 -5.2697,0.44567 -8.38916,-0.005 -1.35035,-0.19525 -3.72368,-0.97122 -5.45386,-1.78314 l -3.063156,-1.43745 -3.211715,3.40031 c -5.716222,6.05189 -17.478091,20.78373 -16.986318,21.2755 0.101516,0.10152 2.082971,-0.0251 4.40324,-0.28129 5.054741,-0.55818 9.987345,-0.32335 11.688757,0.55648 4.140348,2.14106 1.019189,5.54362 -7.038719,7.67332 -3.142875,0.83067 -4.566951,0.9846 -9.451871,1.02167 l -5.751474,0.0436 -2.552089,4.33594 c -2.845661,4.83471 -8.568119,15.96234 -8.33079,16.19967 0.08407,0.0841 1.917227,-0.44049 4.073687,-1.16569 5.188493,-1.74485 5.77114,-1.85135 7.532848,-1.37697 1.263212,0.34015 1.500683,0.56093 1.500683,1.39522 0,1.44522 -1.588603,3.30131 -4.973801,5.81128 -3.636353,2.69619 -8.432907,5.15012 -10.744093,5.49671 -0.94186,0.14124 -1.813753,0.42067 -1.937539,0.62096 -1.184469,1.91651 -7.681319,24.32877 -7.193744,24.81635 0.08705,0.0871 0.984482,-0.43369 1.994288,-1.15721 1.009806,-0.72351 2.725352,-1.60519 3.812325,-1.95929 2.714733,-0.88437 4.913161,-0.2444 5.866877,1.70786 1.044244,2.13757 0.354285,3.94282 -2.945653,7.70717 -2.896088,3.30367 -3.885923,3.92464 -8.586078,5.38647 -1.212623,0.37715 -2.249366,0.93905 -2.344885,1.27089 -0.669224,2.32499 -1.405774,19.06406 -1.048874,23.83703 l 0.265365,3.54883 2.557993,-3.23117 c 4.092261,-5.16918 7.91442,-8.22173 10.294619,-8.22173 3.404154,0 2.805394,8.32408 -1.103287,15.33811 -1.214183,2.17882 -4.113793,5.23226 -8.498016,8.94886 l -2.05075,1.73846 0.869309,4.69238 c 3.165141,17.08489 8.720128,32.99534 19.68522,56.38189 1.90297,4.0587 4.446792,9.25661 5.652935,11.55092 2.62661,4.9963 9.17301,15.72238 9.595774,15.72238 0.164988,0 0.299979,-0.44189 0.299979,-0.98198 0,-2.0044 1.578124,-8.63598 2.477448,-10.4107 1.473268,-2.90736 3.084851,-3.36583 5.225282,-1.4865 2.029109,1.78158 2.99002,4.4621 3.196217,8.91606 0.164875,3.56145 0.07536,4.17541 -1.422466,9.75677 l -1.598412,5.95616 2.945347,3.68774 c 3.269981,4.09419 6.555767,7.95064 9.384647,11.01451 l 1.86942,2.02471 -0.24759,-2.40343 c -0.60219,-5.84572 -0.72329,-12.01439 -0.27129,-13.81841 0.53903,-2.15132 1.6925,-3.5444 2.93476,-3.5444 4.14152,0 8.05059,16.63745 5.96183,25.37414 l -0.58854,2.46167 2.58241,2.4217 c 6.72122,6.30294 16.84287,14.44507 17.07844,13.73836 0.0692,-0.20746 -0.73563,-3.00384 -1.78841,-6.21419 -2.10046,-6.40514 -2.35565,-8.55757 -1.15671,-9.75651 1.21177,-1.21177 2.47518,-0.95321 4.31053,0.88213 2.24383,2.24383 4.12929,5.76274 6.38248,11.91182 1.41024,3.84864 1.92727,5.81568 1.99479,7.58918 0.0501,1.3167 0.2409,2.53815 0.42393,2.71434 1.37121,1.31997 16.98348,9.0434 17.41275,8.61412 0.0993,-0.0993 -0.42243,-1.98271 -1.15939,-4.18539 -2.00878,-6.00402 -1.74646,-9.81701 0.63426,-9.21949 2.91141,0.73071 9.49041,10.48873 10.56259,15.6665 l 0.4544,2.19441 7.91743,3.3552 c 4.35458,1.84536 8.01541,3.25722 8.13516,3.13746 0.11976,-0.11976 -0.73128,-1.45918 -1.8912,-2.97648 -4.42101,-5.78316 -5.35774,-11.46905 -2.11105,-12.81387 1.41936,-0.58792 4.86019,-0.2577 6.15501,0.5907 2.02601,1.32749 5.85724,8.58548 7.97506,15.10819 0.73754,2.27156 1.01481,2.69549 1.92164,2.93801 1.1714,0.31328 8.6841,1.28589 12.96885,1.67897 2.67156,0.24508 2.74571,0.22881 2.74571,-0.60254 0,-0.46994 -0.66781,-2.06837 -1.48402,-3.55208 -1.88965,-3.43503 -2.20218,-5.02765 -1.34224,-6.83984 0.77911,-1.64186 1.87613,-2.48539 3.23226,-2.48539 3.10022,0 9.68947,7.85791 10.41997,12.42619 l 0.25368,1.5864 7.62064,-0.006 c 4.19136,-0.003 7.82302,-0.13447 8.07035,-0.29174 0.69839,-0.44408 1.18843,-2.08256 0.87379,-2.92157 -0.15624,-0.41659 -1.42934,-2.29124 -2.82912,-4.1659 -3.08127,-4.1266 -3.68803,-5.24577 -3.53512,-6.52059 0.21629,-1.80328 3.35623,-3.21539 5.79095,-2.60431 1.73404,0.43521 8.90712,12.12118 8.90712,14.51095 0,0.76351 0.18523,0.86212 1.60955,0.85688 1.85502,-0.007 10.02596,-1.11423 17.04234,-2.30974 3.47261,-0.59169 4.82866,-0.97044 4.82866,-1.34866 0,-1.0484 -1.17949,-3.30778 -3.02975,-5.80364 -2.30627,-3.11098 -3.10721,-4.94268 -2.95571,-6.75949 0.10682,-1.28094 0.2131,-1.39116 1.44084,-1.49423 0.99231,-0.0833 1.92134,0.2499 3.69579,1.32552 3.10576,1.8826 8.1452,6.52116 9.81186,9.03132 l 1.32347,1.99329 4.23004,-1.11755 c 2.32651,-0.61466 5.93426,-1.6317 8.01721,-2.26009 2.08295,-0.62839 4.08543,-1.22909 4.44995,-1.33489 0.45988,-0.13348 0.66275,-0.57813 0.66275,-1.45261 0,-1.29072 -0.16132,-1.49604 -3.18941,-4.05915 -2.50211,-2.1179 -3.62752,-3.96809 -3.62752,-5.96367 0,-2.13385 0.71273,-3.23743 2.46415,-3.81545 1.69465,-0.55928 2.87956,-0.28434 6.93132,1.60832 4.07381,1.90297 9.16174,6.50588 9.16174,8.28838 v 1.05401 l 4.82866,-2.01636 c 7.17631,-2.9967 9.5641,-4.08281 9.54965,-4.34373 -0.007,-0.129 -1.32792,-0.8245 -2.93507,-1.54557 -6.44727,-2.89266 -10.07263,-5.86785 -9.8549,-8.0875 0.23849,-2.43125 3.95559,-3.64564 9.59471,-3.13464 4.437,0.40207 6.86921,1.22836 11.45628,3.89204 l 4.30568,2.50028 1.58156,-0.87413 c 2.47813,-1.36968 10.05609,-6.14544 12.56439,-7.91831 l 2.27231,-1.60607 -7.38501,0.24749 c -6.95711,0.23314 -7.45407,0.20381 -8.57681,-0.50622 -1.57923,-0.99872 -2.28999,-3.05103 -1.61826,-4.67273 0.67329,-1.62547 2.87004,-2.49706 8.1718,-3.24226 3.72494,-0.52357 5.16581,-0.55152 9.54863,-0.18523 2.83894,0.23727 6.04811,0.63807 7.13149,0.89067 l 1.96978,0.45928 1.78036,-1.45887 c 3.20648,-2.62747 10.37562,-9.29944 10.37562,-9.65609 0,-0.74436 -2.45944,-1.55556 -6.3513,-2.09485 -11.55347,-1.60096 -12.85618,-2.02743 -12.69542,-4.15612 0.1452,-1.92243 2.34616,-3.51372 6.34331,-4.5862 1.95258,-0.52389 10.88375,-1.30702 15.41404,-1.35158 2.6271,-0.0258 4.76874,0.84797 5.60626,2.28741 0.44743,0.76898 0.63429,0.56588 6.03754,-6.56234 6.91228,-9.119 7.90993,-11.25222 6.106,-13.05616 -0.89664,-0.89664 -1.59143,-1.05951 -5.35137,-1.2544 -6.03007,-0.31257 -9.66362,-4.00242 -7.12253,-7.23289 1.15142,-1.4638 2.45875,-2.01663 6.91773,-2.92527 3.86241,-0.78707 4.09823,-0.79303 7.70055,-0.19461 3.10277,0.51543 3.85997,0.78059 4.58766,1.60651 0.47936,0.54405 0.92844,0.92691 0.99797,0.8508 0.0696,-0.0761 0.9785,-1.84294 2.01986,-3.92629 2.55821,-5.11791 6.50195,-15.16207 8.4013,-21.39687 0.85666,-2.81198 1.6486,-5.41094 1.75995,-5.77545 0.33156,-1.08581 -1.14351,-0.81827 -5.73596,1.04035 -4.44214,1.79779 -9.40461,3.22023 -11.23443,3.22023 -1.446,0 -3.21686,-0.94341 -3.51111,-1.87051 -1.14584,-3.61023 11.81615,-11.48929 20.33747,-12.36233 l 2.52643,-0.25884 0.3722,-1.74873 c 1.30878,-6.14915 3.07751,-18.58971 3.07751,-21.64593 0,-1.95905 -0.47673,-1.93272 -3.47887,0.19209 -4.40329,3.11651 -5.62863,3.73814 -7.7087,3.91063 -1.7696,0.14675 -2.01698,0.0763 -2.24402,-0.63903 -0.34282,-1.08021 1.19819,-4.38077 3.35268,-7.1807 2.5749,-3.34625 7.1769,-7.47156 9.19449,-8.24209 l 1.75028,-0.66843 -0.19602,-12.63049 c -0.10782,-6.94677 -0.28162,-12.71608 -0.38622,-12.82069 -0.1046,-0.10461 -1.20451,0.82412 -2.44425,2.06386 -2.67731,2.67731 -4.53352,3.43006 -6.69729,2.71596 -1.56218,-0.51557 -2.50364,-1.95646 -2.50364,-3.83179 0,-0.66249 0.79081,-2.97621 1.75737,-5.1416 1.5131,-3.38986 2.02633,-4.15177 3.69251,-5.48181 1.06431,-0.84961 2.5729,-1.91022 3.35241,-2.35691 0.8926,-0.51149 1.41777,-1.09257 1.41864,-1.5696 0,-1.03926 -1.85674,-13.83082 -2.14608,-14.77002 -0.15334,-0.49765 -0.50869,0.47769 -1.03614,2.84368 -1.25522,5.63102 -2.83486,7.56797 -5.72898,7.02503 -2.1687,-0.40685 -2.82566,-1.68201 -2.81801,-5.46984 0.0106,-5.19043 1.89393,-12.26238 4.91584,-18.45774 l 1.44015,-2.95251 -1.26673,-5.12817 c -0.69673,-2.8205 -1.50507,-5.80609 -1.7963,-6.63463 -0.62387,-1.77474 -0.56157,-1.85255 -2.72193,3.40004 -3.20203,7.78526 -4.79011,9.89663 -6.76651,8.99612 -2.77684,-1.26522 -3.08291,-7.21303 -0.8755,-17.01356 1.66352,-7.38571 1.73877,-7.59492 3.27077,-9.09273 l 1.21394,-1.18684 -1.5821,-3.15985 c -1.8108,-3.61666 -5.77149,-10.58451 -5.9277,-10.4283 -0.0575,0.0575 -0.2937,1.37563 -0.52482,2.92909 -1.45692,9.79278 -4.12945,13.3407 -7.69255,10.21226 -2.20598,-1.93688 -3.06347,-4.46969 -3.07814,-9.092 -0.0114,-3.60631 0.13725,-4.47474 1.59695,-9.32746 0.88525,-2.943 1.60583,-5.66977 1.60129,-6.05949 -0.0107,-0.92138 -9.47105,-12.63822 -10.20425,-12.63822 -0.13872,0 -0.63138,0.91476 -1.09478,2.0328 -1.53749,3.70947 -4.36475,6.299 -6.87729,6.299 -2.3434,0 -3.7811,-1.69502 -3.7811,-4.45785 0,-2.64087 1.45461,-8.41039 2.64495,-10.49089 l 1.14329,-1.99827 -4.54509,-4.08698 c -4.4853,-4.033205 -11.94352,-10.144703 -14.77366,-12.105992 -1.41545,-0.980908 -1.48851,-0.991281 -2.75361,-0.390947 -2.2055,1.046577 -2.35931,1.720022 -1.79727,7.869199 0.63622,6.96066 0.41743,11.67932 -0.60502,13.04878 -1.21558,1.62813 -1.89443,1.90298 -3.07038,1.24308 -2.40541,-1.34981 -4.65318,-7.39905 -5.4662,-14.710761 -0.5681,-5.109022 -0.10414,-8.986816 1.44637,-12.088866 0.59233,-1.185054 1.12737,-2.265349 1.18897,-2.400654 0.25349,-0.556802 -22.67785,-13.586593 -23.91127,-13.586593 -0.73676,0 -0.0295,3.583902 1.64423,8.331808 2.19625,6.230158 2.33268,7.552728 0.89573,8.683039 -1.55789,1.225439 -2.3728,0.981907 -4.66433,-1.393903 -2.38895,-2.476815 -4.27405,-6.050234 -6.53647,-12.390605 -1.11231,-3.117227 -1.45748,-4.626121 -1.38229,-6.042684 l 0.10021,-1.88801 -5.4733,-2.203346 c -5.97309,-2.404543 -18.27194,-6.730166 -19.13558,-6.730166 -0.92334,0 -0.62588,2.375269 0.78585,6.275244 1.49487,4.129658 1.78765,7.599824 0.73038,8.657087 -0.72415,0.724158 -0.70868,0.723724 -1.99967,0.05613 -3.47001,-1.794413 -9.61651,-11.511567 -10.15443,-16.05337 -0.22001,-1.857698 -0.30208,-1.977952 -1.59974,-2.344221 -2.639,-0.744859 -12.39746,-2.678044 -17.08466,-3.384529 l -4.73399,-0.713537 10.2254,-0.03093 c 8.98581,-0.02718 10.6081,0.06081 13.38222,0.725857 l 3.15683,0.756791 0.96547,-0.759444 c 0.89965,-0.707662 1.53162,-0.759444 9.26857,-0.759444 4.72775,0 8.21377,0.14451 8.09567,0.3356 -0.11408,0.18458 -1.87098,1.057725 -3.90422,1.940322 -2.03324,0.882598 -3.83321,1.728622 -3.99993,1.880055 -0.16672,0.151433 2.04879,1.082959 4.92334,2.070058 2.87456,0.9871 8.40042,3.057676 12.27969,4.60128 3.87927,1.543604 7.16331,2.806552 7.29786,2.806552 0.13455,0 0.92669,-0.430563 1.76032,-0.956807 2.20574,-1.392424 7.62564,-3.097233 11.45117,-3.601925 3.60219,-0.475227 7.34669,-0.08151 9.4196,0.99044 1.39622,0.722015 2.34378,2.187842 2.03769,3.152227 -0.45408,1.430677 -4.23091,3.054521 -10.23725,4.401492 -1.45807,0.326983 -2.96921,0.689591 -3.35809,0.805796 -0.50801,0.151801 0.61147,0.904672 3.97655,2.674308 5.25669,2.764405 10.19715,5.612295 15.37418,8.862322 l 3.49492,2.19404 1.76311,-0.779906 c 3.2954,-1.457716 9.81403,-0.897919 14.34503,1.231902 3.75204,1.763667 5.04797,4.369362 2.98151,5.994843 -1.07388,0.844713 -4.26508,1.920285 -5.69743,1.920285 -1.06799,0 -1.12908,0.418472 -0.15034,1.029709 1.29429,0.808295 9.61332,7.843416 12.81068,10.833554 1.70952,1.59872 3.38351,2.90676 3.71998,2.90676 0.33647,0 2.34277,-0.35627 4.45844,-0.79171 6.927,-1.42571 12.50963,-0.53653 16.13968,2.57067 0.89583,0.76679 1.8694,1.97005 2.16349,2.6739 0.49284,1.17953 0.46235,1.43775 -0.38938,3.29817 -1.29311,2.82453 -3.47161,4.10063 -7.00036,4.10063 -1.8409,0 -2.95846,-0.22199 -4.13228,-0.82083 -1.72788,-0.88149 -2.11189,-0.61555 -0.80292,0.55607 0.44332,0.3968 2.75628,3.14999 5.13992,6.11819 l 4.33388,5.39674 h 1.97099 c 4.9958,0 13.18103,1.5759 16.93462,3.26042 3.93481,1.76583 5.89771,4.81103 4.12902,6.40561 -0.77649,0.70005 -1.32014,0.74272 -8.36195,0.65621 -4.14231,-0.0509 -7.53146,0.003 -7.53146,0.11948 0,0.11661 0.86007,1.66812 1.91124,3.44781 1.05117,1.77969 2.84205,5.09178 3.97972,7.36021 l 2.06845,4.1244 h 2.94704 c 5.44775,0 11.09118,2.25489 14.71639,5.88009 1.67613,1.67613 2.02361,2.25161 2.02361,3.35147 0,0.73032 -0.19989,1.4514 -0.4442,1.6024 -1.12203,0.69343 -3.95625,0.83391 -8.92659,0.44246 -2.9668,-0.23367 -5.47365,-0.3454 -5.57076,-0.24829 -0.0971,0.0971 0.25458,1.53263 0.78149,3.19006 0.52695,1.65743 1.50548,5.19541 2.17453,7.86219 l 1.21652,4.84869 3.1751,1.2997 c 5.30524,2.17165 11.09766,5.93546 13.36175,8.68218 0.63421,0.7694 1.20834,1.98965 1.31688,2.79881 0.16918,1.2614 0.0468,1.5572 -1.01352,2.44941 -2.03626,1.71338 -3.67096,1.2933 -9.29031,-2.38736 -1.87466,-1.22789 -3.90345,-2.35321 -4.50842,-2.5007 -1.08324,-0.26408 -1.09601,-0.24858 -0.83844,1.01841 0.42947,2.11295 2.43914,14.72966 2.7687,17.38199 l 0.30585,2.46155 2.46167,0.30174 c 3.47592,0.42606 5.90729,1.67271 9.05671,4.64373 4.74198,4.47331 5.61629,7.15551 3.17117,9.72836 -1.52806,1.6079 -2.84589,2.17938 -5.0256,2.17938 -2.37494,0 -4.2084,-0.73828 -6.11816,-2.46363 -2.00312,-1.80968 -2.37316,-1.72491 -2.07511,0.47536 0.13399,0.9894 0.35592,7.59331 0.49316,14.67535 l 0.24954,12.87643 2.80722,2.23273 c 5.23339,4.1624 8.61588,9.25092 9.06924,13.64351 0.24886,2.41103 -0.20083,3.2524 -1.73316,3.24281 -1.78945,-0.0112 -3.92144,-1.63288 -7.35994,-5.59822 -1.86012,-2.14512 -3.43347,-3.84878 -3.49637,-3.78589 -0.0629,0.0629 -0.39375,2.67009 -0.73528,5.79381 -0.51892,4.74632 -1.22974,9.40591 -2.72246,17.84569 -0.19523,1.10402 -0.089,1.24344 1.58482,2.07938 3.9981,1.99675 6.12699,6.07524 6.50756,12.46721 0.16202,2.72116 0.0642,4.12963 -0.39689,5.71578 -2.02069,6.95095 -5.80905,4.98269 -9.53871,-4.95588 -0.83905,-2.2359 -1.11999,-2.67014 -1.3476,-2.08296 -0.15811,0.40802 -1.07101,3.1865 -2.02864,6.17443 -2.36264,7.37189 -4.66078,13.13481 -8.04875,20.18329 l -2.84676,5.92252 1.37498,2.78801 c 2.38187,4.82978 2.69451,9.63553 0.8628,13.26274 -1.04686,2.07295 -2.18521,2.68216 -4.54766,2.43375 -2.2027,-0.23162 -3.95982,-1.25414 -5.23504,-3.04641 l -0.94866,-1.33331 -2.0449,2.93127 c -1.1247,1.6122 -3.72904,5.02823 -5.78742,7.59117 l -3.74252,4.65989 0.3944,1.58896 c 0.78465,3.16114 0.87609,6.08746 0.29226,9.3527 -0.64972,3.63374 -2.50758,7.66141 -4.06475,8.81198 -2.13039,1.57412 -3.52101,-0.19199 -4.80043,-6.09663 -0.4211,-1.94342 -0.84407,-3.61192 -0.93992,-3.70777 -0.0958,-0.0958 -1.77223,1.30245 -3.72528,3.10735 -1.95304,1.8049 -4.68103,4.21497 -6.06219,5.35572 l -2.5112,2.07408 -0.25675,2.60566 c -0.64327,6.52819 -3.4257,14.53786 -5.83257,16.79002 -2.01707,1.88739 -4.15914,1.37914 -5.25701,-1.24735 -0.6397,-1.5304 -0.4552,-2.8761 1.02571,-7.48119 0.5938,-1.84647 1.0342,-3.40265 0.97869,-3.45817 -0.0555,-0.0555 -2.23361,1.3075 -4.84021,3.02892 -2.6066,1.72142 -6.37965,4.06718 -8.38456,5.2128 -3.34533,1.91156 -3.662,2.19202 -3.84854,3.40847 -0.67348,4.39193 -2.2013,9.57769 -3.67353,12.46882 -1.28731,2.52799 -2.15998,3.66444 -4.20407,5.47485 -2.91816,2.58454 -3.48359,2.58565 -4.36297,0.009 -0.82108,-2.40627 0.27982,-7.27779 3.13329,-13.86499 0.19964,-0.46086 -1.22673,0.0378 -4.96159,1.73439 -2.88297,1.30965 -7.11643,3.12303 -9.40768,4.02971 -2.29124,0.90669 -4.29111,1.83045 -4.44414,2.05279 -0.15303,0.22235 -0.28085,0.85499 -0.28404,1.40586 -0.0211,3.6444 -3.32182,9.41331 -6.6455,11.61482 -2.54367,1.68486 -4.23379,1.64579 -6.21451,-0.14368 -1.86224,-1.68242 -2.46342,-3.40192 -2.14288,-6.12915 0.22142,-1.88393 0.18192,-2.05174 -0.42724,-1.81523 -0.60868,0.23633 -7.79929,2.21263 -11.72335,3.2221 -1.35043,0.3474 -1.94823,0.87375 -4.05139,3.56715 -5.15065,6.59612 -9.98896,9.97739 -14.83327,10.36626 -1.91393,0.15361 -2.60089,0.0752 -2.85493,-0.32604 -1.09959,-1.73654 0.49538,-4.67058 4.24534,-7.80955 1.64221,-1.37465 2.93734,-2.54786 2.87807,-2.60713 -0.0593,-0.0593 -2.57368,0.29011 -5.58758,0.7764 -3.01388,0.48629 -7.65945,1.1096 -10.32347,1.38511 l -4.84368,0.50094 -1.76361,3.60143 c -3.3317,6.80368 -10.16189,12.16304 -12.26725,9.62562 z"
   id="path137"
   inkscape:connector-curvature="0" /><path
   style="fill:#ab37c8;fill-opacity:1;stroke-width:0.37871853"
   d="m 247.81559,64.205171 c -2.3205,-1.53567 -6.05151,-4.8554 -6.90297,-6.142043 -0.50486,-0.762898 -1.45787,-2.456706 -2.1178,-3.764018 -1.18868,-2.354761 -1.19437,-2.393059 -0.61064,-4.106221 l 0.58923,-1.72929 -10.12842,0.292353 c -5.57063,0.160795 -10.7249,0.309031 -11.45394,0.329414 -0.72903,0.02038 -6.69385,-0.01689 -13.25515,-0.08284 -8.64848,-0.08692 -11.46089,-0.21757 -10.2254,-0.475014 0.93733,-0.195313 2.58743,-0.527598 3.66689,-0.73841 1.94759,-0.380355 1.97161,-0.402435 3.12976,-2.877359 3.19996,-6.838147 6.29567,-10.626899 10.69149,-13.085014 4.55857,-2.549118 5.23498,-2.414104 5.23498,1.044932 0,2.560978 -3.28666,8.330277 -6.63917,11.654189 -0.62042,0.615123 -0.91789,1.18506 -0.71486,1.369614 0.19125,0.173848 1.71112,0.179143 3.37748,0.01177 5.14115,-0.516401 17.16038,-1.107673 22.5344,-1.108553 l 5.11335,-8.39e-4 0.93832,-1.768737 c 1.49048,-2.80958 4.22959,-5.528766 6.9709,-6.920181 4.08088,-2.071344 6.59955,-1.614505 8.18015,1.483717 1.01072,1.98118 0.9625,4.030379 -0.1464,6.220723 -0.59214,1.169628 -0.75705,1.832951 -0.47339,1.904086 0.23941,0.06004 3.24729,0.563758 6.68416,1.119373 11.92901,1.928478 11.89674,2.037541 -0.61681,2.085045 l -11.03157,0.04188 -0.48186,1.163311 c -0.54697,1.320496 -0.24124,2.105437 2.10511,5.404678 2.31673,3.257598 2.60648,6.565868 0.73864,8.433707 -1.11361,1.113612 -3.65729,1.231871 -5.15648,0.239731 z"
   id="path139"
   inkscape:connector-curvature="0" /><path
   style="fill:#ab37c8;fill-opacity:1;stroke-width:0.37871853"
   d="m 165.15876,47.732909 c 2.1772,-4.260095 6.1643,-9.318603 8.15717,-10.349157 2.65435,-1.372619 4.86711,0.0083 4.86711,3.037498 0,1.542211 -0.62468,2.839315 -3.42782,7.117611 l -0.92744,1.415507 -4.64903,0.0047 -4.64903,0.0047 z"
   id="path141"
   inkscape:connector-curvature="0" /><path
   style="fill:#782167;fill-opacity:1;stroke-width:0.37871853"
   d="m 336.29803,218.78092 c -2.69637,-0.40253 -6.6289,-1.3619 -6.81467,-1.66248 -0.30122,-0.48739 1.14136,-10.22841 2.21811,-14.97777 2.69337,-11.87999 7.54216,-21.32084 13.49444,-26.27437 6.85093,-5.70141 27.88744,-14.04443 35.41231,-14.04443 h 1.24196 l -1.31178,3.03413 c -2.63423,6.09293 -3.0765,8.70503 -3.91075,23.09745 -0.85222,14.70248 -2.57429,21.78875 -5.98461,24.62652 -3.12308,2.59875 -8.66441,4.52216 -15.85314,5.50266 -4.08908,0.55773 -16.33568,1.02019 -18.49187,0.69829 z"
   id="path145"
   inkscape:connector-curvature="0" /><path
   style="fill:#ff55dd;fill-opacity:1;stroke-width:0.37871853"
   d="m 315.0669,212.02788 c -10.85049,-4.17891 -18.71397,-12.5938 -21.96604,-23.50635 -1.37788,-4.62355 -1.7065,-12.45359 -0.74645,-17.7856 0.3577,-1.9866 0.73562,-3.612 0.83983,-3.612 0.1042,0 1.20983,0.92338 2.45695,2.05195 2.95693,2.67587 6.05511,4.26155 13.00039,6.65374 9.76737,3.3642 13.55101,5.63465 15.44223,9.26642 1.09798,2.10847 1.34189,7.72888 0.5126,11.81183 -0.85199,4.19466 -4.10313,14.37143 -4.88169,15.28073 -0.83082,0.97032 -1.80871,0.93658 -4.65782,-0.16072 z"
   id="path147"
   inkscape:connector-curvature="0" /><path
   style="fill:#ff2a7f;fill-opacity:1;stroke-width:0.37871853"
   d="m 363.87096,267.6792 c -8.41558,-1.52655 -16.12933,-5.89866 -22.88782,-12.97269 -7.27183,-7.61134 -10.8999,-15.01662 -11.49886,-23.47039 -0.29447,-4.1562 -1.37026,-3.61065 8.86324,-4.49462 18.35804,-1.58576 25.3115,0.72778 27.97919,9.3092 0.55177,1.77493 0.63224,3.48306 0.54418,11.55092 l -0.10334,9.46796 1.41202,2.38086 c 0.77662,1.30948 2.47401,3.7239 3.77199,5.36538 1.81784,2.29891 2.22784,3.03521 1.78478,3.20524 -0.99593,0.38217 -7.02583,0.17322 -9.86538,-0.34186 z"
   id="path149"
   inkscape:connector-curvature="0" /><path
   style="fill:#ab37c8;fill-opacity:1;stroke-width:0.37871853"
   d="m 284.53829,47.412649 c 3.61617,-2.316024 6.89487,-3.430194 10.66878,-3.625473 4.9961,-0.258521 6.39249,0.968006 4.27629,3.756114 l -1.05718,1.39285 -8.14245,0.0058 -8.14245,0.0059 z"
   id="path157"
   inkscape:connector-curvature="0" /></svg>