<?xml version="1.0" encoding="UTF-8" standalone="no"?>
<!-- Generator: Adobe Illustrator 14.0.0, SVG Export Plug-In . SVG Version: 6.00 Build 43363)  -->

<svg
   xmlns:dc="http://purl.org/dc/elements/1.1/"
   xmlns:cc="http://creativecommons.org/ns#"
   xmlns:rdf="http://www.w3.org/1999/02/22-rdf-syntax-ns#"
   xmlns:svg="http://www.w3.org/2000/svg"
   xmlns="http://www.w3.org/2000/svg"
   xmlns:sodipodi="http://sodipodi.sourceforge.net/DTD/sodipodi-0.dtd"
   xmlns:inkscape="http://www.inkscape.org/namespaces/inkscape"
   version="1.1"
   id="Calque_1"
   x="0px"
   y="0px"
   width="470px"
   height="470px"
   viewBox="0 0 470 470"
   enable-background="new 0 0 470 470"
   xml:space="preserve"
   sodipodi:docname="yfc_logo_template.svg"
   inkscape:version="0.92.4 (unknown)"><metadata
   id="metadata135"><rdf:RDF><cc:Work
       rdf:about=""><dc:format>image/svg+xml</dc:format><dc:type
         rdf:resource="http://purl.org/dc/dcmitype/StillImage" /><dc:title></dc:title></cc:Work></rdf:RDF></metadata><defs
   id="defs133" /><sodipodi:namedview
   pagecolor="#ffffff"
   bordercolor="#666666"
   borderopacity="1"
   objecttolerance="10"
   gridtolerance="10"
   guidetolerance="10"
   inkscape:pageopacity="0"
   inkscape:pageshadow="2"
   inkscape:window-width="1920"
   inkscape:window-height="995"
   id="namedview131"
   showgrid="false"
   inkscape:zoom="3"
   inkscape:cx="238.98305"
   inkscape:cy="235"
   inkscape:window-x="1920"
   inkscape:window-y="0"
   inkscape:window-maximized="1"
   inkscape:current-layer="Calque_1" />
<circle
   fill="#FFFFFF"
   cx="235"
   cy="235"
   r="235"
   id="circle2" />
<g
   id="g14">
	<path
   fill="#080C0E"
   d="M143.826,242.948l-13.48-23.079h13.378l6.127,11.744l6.178-11.744h13.225l-13.48,22.927v12.815h-11.948   V242.948z"
   id="path4" />
	<path
   fill="#080C0E"
   d="M169.667,237.843v-0.102c0-10.366,8.527-18.638,19.556-18.638c11.029,0,19.455,8.17,19.455,18.536v0.103   c0,10.364-8.527,18.637-19.556,18.637C178.092,256.378,169.667,248.208,169.667,237.843z M196.627,237.843v-0.102   c0-4.239-2.911-8.069-7.506-8.069c-4.545,0-7.404,3.779-7.404,7.966v0.103c0,4.237,2.91,8.066,7.505,8.066   C193.768,245.808,196.627,242.029,196.627,237.843z"
   id="path6" />
	<path
   fill="#080C0E"
   d="M211.644,239.579v-19.71h12.153v19.557c0,4.441,2.298,6.331,5.515,6.331s5.515-1.736,5.515-6.076v-19.812   h12.152v19.454c0,12.203-7.098,17.003-17.77,17.003C218.538,256.326,211.644,251.425,211.644,239.579z"
   id="path8" />
	<path
   fill="#080C0E"
   d="M259.901,229.979h-10.519v-10.11h32.985v10.11h-10.518v25.632h-11.949V229.979z"
   id="path10" />
	<path
   fill="#080C0E"
   d="M285.079,219.869h11.948v12.612h10.927v-12.612h11.949v35.742h-11.949v-12.815h-10.927v12.815h-11.948   V219.869z"
   id="path12" />
</g>
<g
   id="g36">
	<path
   fill="#457828"
   d="M132.245,263.93h15.84v5.407h-9.515v2.405h8.84v4.92h-8.84v6.19h-6.325V263.93z"
   id="path16" />
	<path
   fill="#457828"
   d="M149.142,273.445v-0.054c0-5.487,4.514-9.867,10.353-9.867s10.3,4.325,10.3,9.813v0.054   c0,5.488-4.515,9.866-10.354,9.866C153.602,283.258,149.142,278.933,149.142,273.445z M163.415,273.445v-0.054   c0-2.244-1.541-4.271-3.974-4.271c-2.406,0-3.919,2-3.919,4.218v0.054c0,2.243,1.541,4.271,3.973,4.271   C161.901,277.663,163.415,275.662,163.415,273.445z"
   id="path18" />
	<path
   fill="#457828"
   d="M171.526,263.93h9.245c3.352,0,5.488,0.838,6.812,2.163c1.135,1.135,1.73,2.541,1.73,4.487v0.055   c0,2.757-1.433,4.676-3.73,5.785l4.406,6.433h-7.218l-3.568-5.406h-1.352v5.406h-6.326V263.93z M180.582,272.933   c1.514,0,2.434-0.677,2.434-1.839v-0.054c0-1.217-0.946-1.811-2.406-1.811h-2.757v3.703H180.582z"
   id="path20" />
	<path
   fill="#457828"
   d="M197.291,273.445v-0.054c0-5.649,4.406-9.867,10.056-9.867c4.163,0,6.974,2.027,8.569,4.92l-5.217,3.055   c-0.703-1.352-1.703-2.297-3.433-2.297c-2.136,0-3.541,1.865-3.541,4.136v0.054c0,2.46,1.459,4.19,3.541,4.19   c1.784,0,2.784-0.974,3.568-2.38l5.217,2.947c-1.595,2.811-4.244,5.108-8.947,5.108   C201.859,283.258,197.291,279.312,197.291,273.445z"
   id="path22" />
	<path
   fill="#457828"
   d="M217.269,263.93h6.326v13.517h8.894v5.406h-15.219V263.93z"
   id="path24" />
	<path
   fill="#457828"
   d="M233.923,263.93h6.326v18.923h-6.326V263.93z"
   id="path26" />
	<path
   fill="#457828"
   d="M242.466,263.93h6.597l4.055,6.65l4.054-6.65h6.597v18.923h-6.299v-9.38l-4.352,6.73h-0.109l-4.351-6.73   v9.38h-6.191V263.93z"
   id="path28" />
	<path
   fill="#457828"
   d="M272.527,263.795h6.271l7.975,19.058h-6.866l-1-2.54h-6.623l-0.974,2.54h-6.758L272.527,263.795z    M277.339,275.824l-1.73-4.595l-1.729,4.595H277.339z"
   id="path30" />
	<path
   fill="#457828"
   d="M292.398,269.282h-5.568v-5.353h17.462v5.353h-5.567v13.57h-6.326V269.282z"
   id="path32" />
	<path
   fill="#457828"
   d="M305.727,263.93h16.14v5.19h-9.922v1.92h9.245v4.568h-9.245v2.055h10.057v5.189h-16.274V263.93z"
   id="path34" />
</g>
<g
    id="additional"
    transform="matrix(0.64,-0.23,0.23,0.64,-150,200)">

      <defs
   id="defs991">
        <path
   id="circlePath"
   d="m 130,750 a 620,620 0 0 0 1240,0"
   style="fill:none;stroke:#ff0000;stroke-width:10px" />

   </defs>

   <text font-variant="small-caps" v-bind:transform="'rotate(' + (-125 + textInfo(title, { fontFamily: 'Montserrat', fontVariant: 'small-caps', fontSize: ([ { max: 1500, value: 170 }, { max: 1700, value: 160 }, { max: 1870, value: 130 }, { max: 2050, value: 120 }, { max: 2385, value: 110 }, { max: 2650, value: 100 }, { max: 2840, value: 90 }, { max: Infinity, value: 80 } ].filter(record => textInfo(title, { fontFamily: 'Montserrat', fontSize: '160px' }).width <= record.max)[0].value) + 'px' }).width / 17.5) + ', 750, 750)'" v-bind:data-size="textInfo(title, { fontFamily: 'Montserrat', fontSize: '160px' }).width" v-bind:data-length="textInfo(title, { fontFamily: 'Montserrat', fontSize: '160px' }).width" v-bind:style="{ 'fill': '#000' }">
      <textPath alignment-baseline="middle" text-anchor="middles" xlink:href="#circlePath" style="font-family: 'Montserrat'; font-weight: bold; font-variant: small-caps; font-variant-caps:small-caps; font-size: 160px;" v-bind:style="{ 'font-size': ([ { max: 1500, value: 170 }, { max: 1700, value: 160 }, { max: 1870, value: 130 }, { max: 2050, value: 120 }, { max: 2385, value: 110 }, { max: 2650, value: 100 }, { max: 2840, value: 90 }, { max: Infinity, value: 80 } ].filter(record => textInfo(title, { fontFamily: 'Montserrat', fontSize: '160px' }).width <= record.max)[0].value) + 'px' }">
         {{ title }}
      </textPath>
   </text>
</g>
<rect
   fill="none"
   width="470"
   height="470"
   id="rect38" />
<path
   fill="#B3BB2F"
   d="M329.121,217.234c1.238-11.142,4.331-35.902,20.427-44.568c16.095-8.666,27.236-11.142,32.808-11.142  c0,0-4.335,6.809-4.953,16.094s-0.618,29.712-6.189,34.665c-5.57,4.952-14.855,6.189-25.997,6.809  C334.073,219.711,329.121,217.234,329.121,217.234"
   id="path40" />
<path
   fill="#CBD239"
   d="M332.835,227.138c8.666-0.619,24.141-3.714,30.95,3.714c6.808,7.428,1.239,22.905,3.714,27.237  c2.476,4.332,4.953,7.427,7.429,9.903c0,0-8.667,1.858-19.19-2.476c-10.521-4.333-21.407-16.046-24.76-25.688  c-2.476-7.119-1.239-8.976-1.856-12.381L332.835,227.138z"
   id="path42" />
<path
   fill-rule="evenodd"
   clip-rule="evenodd"
   fill="#457828"
   d="M293.176,166.348c5.374,7.153,13.569,8.342,20.928,11.225  c9.816,3.845,12.447,7.725,10.939,17.992c-0.752,5.125-2.811,10.058-4.235,15.089c-0.736,2.601-2.25,2.763-4.585,1.973  C297.137,206.155,287.21,186.775,293.176,166.348"
   id="path44" />
<path
   fill="#B4B930"
   d="M67.748,321.628c6.803-1.488,5.803-6.215,7.196-11.471c1.393-5.257,3.482-16.059-1.161-18.317  c-4.642-2.26-7.66,18.466-12.302,18.317c-4.643-0.15-14.624-2.472-14.856,1.475C46.392,315.578,57.07,323.963,67.748,321.628"
   id="path46" />
<path
   fill="#B4B930"
   d="M50.803,277.045c-3.737,0.208-10.678-9.749-15.088-4.874c-4.41,4.874,10.393,14.061,19.267,16.48  c2.553,0.696,7.428-13.695,8.124-19.498c0.697-5.804,1.167-10.208-3.714-10.214C52.66,258.932,54.981,276.813,50.803,277.045"
   id="path48" />
<path
   fill="#B4B930"
   d="M91.192,353.879c-9.285,0.696-28.907-1.955-27.656-9.518c0.729-4.41,19.3,0.571,19.764-2.5  c0.464-3.071,1.476-20.348,7.892-15.874c3.714,2.59,4.875,10.125,3.25,15.874C92.817,347.611,91.192,353.879,91.192,353.879"
   id="path50" />
<path
   fill="#B4B930"
   d="M48.296,250.815c-7.01,0-15.134-7.196-17.688-12.535c-2.554-5.339-3.946-6.5,0-6.964  c3.946-0.464,11.606,5.804,13.463,8.124c0,0,4.643-6.035,7.428-9.285c2.786-3.25,8.655-7.892,10.13-3.482  c1.476,4.411-2.47,14.16-5.488,17.178S48.296,250.815,48.296,250.815"
   id="path52" />
<path
   fill="#B4B930"
   d="M113.012,377.556c-3.289,5.415-7.893,6.731-13.231,6.035s-10.213-3.018-11.142-6.035  c-0.929-3.019,3.946-4.411,7.892-4.875s9.981,0.232,9.285-5.571c-0.697-5.803-2.089-15.784,0.928-18.569  c3.018-2.786,6.035,3.018,7.428,10.445C114.173,358.985,116.958,371.056,113.012,377.556"
   id="path54" />
<path
   fill="#B4B930"
   d="M142.26,400.071c-4.643,4.875-11.097,6.262-15.785,6.964c-2.993,0.448-10.213,0.281-11.348-3.479  c-1.305-4.323,12.543-5.927,16.036-7.432c4.032-1.735,1.438-6.683-0.001-11.117c-1.437-4.435-3.202-7.917,0.001-9.542  c3.205-1.625,7.664,6.268,9.496,11.606C142.492,392.411,144.926,397.272,142.26,400.071"
   id="path56" />
<path
   fill="#B4B930"
   d="M170.347,415.159c-4.967,4.067-13.399,11.182-22.052,8.821c-2.553-0.696-1.939-3.714,1.584-6.268  c3.523-2.554,10.951-3.714,11.183-8.124c0.232-4.411-4.093-9.278-2.522-14.16c0.897-2.785,3.915-0.696,6.932,3.482  C168.49,403.089,173.984,412.182,170.347,415.159"
   id="path58" />
<path
   fill="#B4B930"
   d="M198.202,424.449c-4.148,3.513-11.606,10.44-15.552,10.673c-3.946,0.232-6.5-0.696-6.964-3.481  c-0.464-2.786,6.721-8.485,10.214-9.75c4.489-1.624,0-5.106-1.625-7.428s-3.339-6.499-2.714-9.285  c0.625-2.785,3.41-3.249,6.892-2.321c3.482,0.929,6.268,8.125,7.892,11.839C197.97,418.409,199.543,423.313,198.202,424.449"
   id="path60" />
<path
   fill="none"
   stroke="#B3BB2F"
   stroke-width="4"
   stroke-miterlimit="10"
   d="M419.354,175.381  c-5.046-21.712-18.585-46.095-41.952-68.948c-42.246-41.318-104.456-60.352-138.346-59.888  c-33.891,0.464-72.888,2.786-118.384,37.604c-45.497,34.819-71.401,83.23-75.625,128.894  c-4.226,45.664,11.095,77.548,24.094,105.246s47.789,73.776,90.001,91.016c42.212,17.239,23.208,10.305,31.247,12.354  C265.054,440.693,472.108,402.423,419.354,175.381z"
   id="path62" />
<path
   fill="#B4B930"
   d="M412.293,152.783c-6.803,1.417-5.803,5.924-7.195,10.936c-1.394,5.013-3.482,15.311,1.16,17.464  c4.643,2.155,7.66-17.606,12.303-17.464c4.643,0.143,14.624,2.356,14.855-1.405C433.648,158.551,422.971,150.556,412.293,152.783"
   id="path64" />
<path
   fill="#B4B930"
   d="M424.607,190.099c3.735-0.199,10.678,9.294,15.088,4.647c4.411-4.647-10.393-13.406-19.266-15.714  c-2.554-0.663-7.429,13.059-8.125,18.591s-1.167,9.731,3.714,9.738C422.751,207.369,420.43,190.32,424.607,190.099"
   id="path66" />
<path
   fill="#B4B930"
   d="M394.43,127.19c9.285-0.665,28.906,1.863,27.654,9.072c-0.729,4.206-19.298-0.543-19.763,2.384  c-0.464,2.929-1.479,19.4-7.892,15.136c-3.714-2.47-4.875-9.653-3.25-15.136C392.805,133.166,394.43,127.19,394.43,127.19"
   id="path68" />
<path
   fill="#B4B930"
   d="M344.552,85.181c3.288-5.164,7.893-6.418,13.231-5.754c5.339,0.665,10.213,2.877,11.142,5.754  s-3.946,4.204-7.893,4.647c-3.946,0.442-9.981-0.221-9.285,5.312c0.697,5.533,2.09,15.049-0.928,17.705  c-3.018,2.656-6.035-2.877-7.429-9.959C343.391,102.886,340.605,91.378,344.552,85.181"
   id="path70" />
<path
   fill="#B4B930"
   d="M312.421,64.446c4.642-4.647,11.094-5.97,15.784-6.639c2.992-0.427,10.213-0.268,11.347,3.316  c1.306,4.121-12.542,5.651-16.037,7.084c-4.031,1.656-1.437,6.372,0.002,10.601c1.438,4.228,3.202,7.547-0.002,9.098  c-3.202,1.549-7.662-5.977-9.495-11.065C312.188,71.749,309.755,67.114,312.421,64.446"
   id="path72" />
<path
   fill="#B4B930"
   d="M277.354,52.057c4.967-3.878,13.397-10.659,22.052-8.41c2.554,0.665,1.938,3.541-1.585,5.976  c-3.521,2.435-10.95,3.541-11.182,7.747c-0.232,4.204,4.092,8.845,2.521,13.5c-0.896,2.655-3.914,0.665-6.932-3.32  C279.21,63.566,273.715,54.897,277.354,52.057"
   id="path74" />
<path
   fill="#B4B930"
   d="M237.381,51.866c2.321-6.418,3.714-12.205,10.073-15.713c5.239-2.892,7.668-1.549,9.243,1.992  c1.574,3.541-1.097,8.188-3.823,9.516s-3.868,3.542-1.904,5.755c1.963,2.214,4.631,6.417,2.833,9.737  c-1.798,3.319-5.977,1.992-8.065-0.221s-2.554-1.771-4.41-3.983C239.47,56.735,237.381,51.866,237.381,51.866"
   id="path76" />
<path
   fill="#B4B930"
   d="M377.849,104.346c6.972-1.448,12.901-3.354,19.313,0.229c5.287,2.955,5.318,5.762,2.931,9.013  c-2.387,3.252-7.942,3.449-10.533,1.819c-2.592-1.632-5.168-1.427-6.16,1.448c-0.99,2.874-3.416,7.423-7.328,7.657  c-3.914,0.235-4.852-4.068-3.925-7.051c0.927-2.981,0.291-3.144,1.336-5.926C374.528,108.752,377.849,104.346,377.849,104.346"
   id="path78" />
<path
   fill="#B4B930"
   d="M123.746,77.888c1.417,6.803,5.924,5.803,10.936,7.196c5.013,1.393,15.311,3.482,17.464-1.161  c2.155-4.642-17.606-7.66-17.464-12.302c0.144-4.643,2.356-14.624-1.405-14.856C129.514,56.533,121.519,67.21,123.746,77.888"
   id="path80" />
<path
   fill="#B4B930"
   d="M172.578,52.422c-0.199-3.736,9.294-10.678,4.647-15.088c-4.647-4.41-13.406,10.393-15.714,19.267  c-0.663,2.553,13.058,7.428,18.591,8.124c5.533,0.696,9.731,1.166,9.738-3.714C189.848,54.279,172.799,56.601,172.578,52.422"
   id="path82" />
<path
   fill="#B4B930"
   d="M198.081,50.844c1.328-5.385,6.861-16.063,11.951-18.617c5.09-2.553,6.197-3.946,6.64,0  c0.442,3.946-5.533,11.606-7.747,13.463c0,0,5.755,4.643,8.854,7.428c3.099,2.785,7.524,8.655,3.32,10.13  c-4.205,1.476-13.5-2.47-16.377-5.488C201.843,54.743,198.081,50.844,198.081,50.844"
   id="path84" />
<path
   fill="#B4B930"
   d="M68.107,138.333c-5.165-3.289-6.418-7.893-5.755-13.231c0.665-5.339,2.877-10.213,5.755-11.142  c2.877-0.929,4.204,3.946,4.647,7.892c0.442,3.946-0.221,9.981,5.312,9.285c5.533-0.697,15.049-2.089,17.705,0.928  s-2.877,6.035-9.959,7.428C85.812,139.493,74.304,142.278,68.107,138.333"
   id="path86" />
<path
   fill="#B4B930"
   d="M54.75,169.8c-3.878-4.968-10.659-13.399-8.41-22.052c0.665-2.554,3.541-1.939,5.976,1.584  c2.435,3.522,3.541,10.951,7.747,11.183c4.204,0.232,8.845-4.093,13.5-2.521c2.655,0.897,0.665,3.915-3.32,6.932  C66.259,167.943,57.59,173.437,54.75,169.8"
   id="path88" />
<path
   fill="#B4B930"
   d="M44.331,209.481c-6.418-2.32-7.916-3.713-11.424-10.072c-2.892-5.241-1.549-7.669,1.991-9.244  c3.542-1.574,8.19,1.096,9.516,3.823c1.329,2.727,3.542,3.869,5.756,1.906c2.212-1.964,6.417-4.633,9.737-2.834  c3.319,1.798,1.992,5.977-0.221,8.066c-2.214,2.089-1.772,2.553-3.983,4.41C53.488,207.393,44.331,209.481,44.331,209.481"
   id="path90" />
<path
   fill="#B4B930"
   d="M97.914,106.15c-2.323-6.729-4.969-12.367-2.232-19.186c2.257-5.619,5.037-6.007,8.566-4.054  c3.53,1.955,4.433,7.437,3.145,10.215c-1.288,2.778-0.757,5.308,2.221,5.926c2.977,0.617,7.797,2.444,8.528,6.294  c0.73,3.852-3.417,5.329-6.494,4.79c-3.075-0.54-3.155,0.113-6.048-0.57C102.707,108.883,97.914,106.15,97.914,106.15"
   id="path92" />
<path
   fill="#B4B930"
   d="M284.923,421.111c-3.718,5.089-9.976,13.916-18.915,14.115c-2.639,0.058-2.832-2.876-0.106-6.182  c2.721-3.304,9.565-6.396,8.639-10.505c-0.925-4.109-6.353-7.391-6.112-12.299c0.137-2.8,3.583-1.71,7.575,1.301  C279.993,410.549,287.647,417.387,284.923,421.111"
   id="path94" />
<path
   fill="#B4B930"
   d="M314.229,406.355c-0.479,6.809-0.237,12.755-5.396,17.866c-4.251,4.214-6.953,3.585-9.435,0.61  c-2.483-2.978-1.184-8.179,1.078-10.199c2.258-2.023,2.753-4.464,0.26-6.058c-2.494-1.592-6.21-4.906-5.387-8.593  c0.823-3.684,5.204-3.549,7.819-1.989c2.613,1.558,2.939,1.005,5.33,2.626C310.889,402.241,314.229,406.355,314.229,406.355"
   id="path96" />
<path
   fill="#B4B930"
   d="M388.49,358.944c-3.223-6.157-7.284-3.964-12.484-3.936c-5.203,0.029-15.679,0.834-16.483,5.888  c-0.804,5.055,19.03,2.559,20.161,7.064c1.13,4.505,1.729,14.711,5.411,13.906C388.776,381.063,393.551,368.607,388.49,358.944"
   id="path98" />
<path
   fill="#B4B930"
   d="M358.688,386.568c1.212,3.541-6.024,12.812-0.348,15.783c5.673,2.974,10.055-13.66,9.853-22.826  c-0.062-2.636-14.592-3.577-20.104-2.736c-5.513,0.842-9.681,1.537-8.352,6.232C341.566,389.501,357.331,382.609,358.688,386.568"
   id="path100" />
<path
   fill="#B4B930"
   d="M342.013,395.981c0.195,5.543-2.212,17.327-6.409,21.174c-4.198,3.847-4.883,5.489-6.388,1.813  c-1.503-3.674,2.151-12.677,3.774-15.067c0,0-6.806-2.895-10.545-4.727c-3.743-1.833-9.604-6.271-5.962-8.84  c3.642-2.567,13.663-1.311,17.255,0.806C337.329,393.257,342.013,395.981,342.013,395.981"
   id="path102" />
<path
   fill="#B4B930"
   d="M424.573,287.456c5.864,1.754,8.33,5.84,9.149,11.156c0.82,5.316,0.023,10.611-2.49,12.289  c-2.516,1.681-5.125-2.646-6.629-6.32c-1.503-3.676-2.514-9.663-7.645-7.481c-5.133,2.182-13.905,6.12-17.285,3.943  c-3.381-2.177,1.12-6.592,7.551-9.867C407.225,291.176,417.535,285.354,424.573,287.456"
   id="path104" />
<path
   fill="#B4B930"
   d="M427.896,251.68c5.089,3.72,13.915,9.978,14.116,18.916c0.057,2.639-2.877,2.833-6.182,0.108  c-3.306-2.724-6.397-9.566-10.507-8.64c-4.108,0.924-7.39,6.353-12.299,6.112c-2.799-0.137-1.708-3.584,1.303-7.575  C417.334,256.61,424.171,248.958,427.896,251.68"
   id="path106" />
<path
   fill="#B4B930"
   d="M427.08,210.661c6.808,0.48,8.63,1.41,13.742,6.569c4.213,4.25,3.585,6.953,0.608,9.435  c-2.976,2.484-8.177,1.184-10.196-1.078c-2.024-2.259-4.466-2.753-6.06-0.26c-1.592,2.494-4.906,6.209-8.592,5.385  c-3.685-0.823-3.549-5.204-1.989-7.818c1.558-2.614,1.005-2.94,2.627-5.33C418.843,215.172,427.08,210.661,427.08,210.661"
   id="path108" />
<path
   fill="#B4B930"
   d="M405.62,326.559c4.073,5.839,8.159,10.539,7.387,17.845c-0.635,6.022-3.203,7.155-7.133,6.239  c-3.929-0.915-6.294-5.943-5.814-8.966c0.479-3.025-0.724-5.314-3.754-5.096c-3.033,0.22-8.171-0.221-9.926-3.725  c-1.753-3.505,1.832-6.061,4.939-6.382c3.104-0.321,3.004-0.971,5.974-1.104C400.263,325.236,405.62,326.559,405.62,326.559"
   id="path110" />
<path
   fill="#B4B930"
   d="M226.289,424.212c-0.863,5.509-4.875,11.374-9.75,13.695c-4.875,2.321-5.671,1.625-7.942-1.624  c-2.271-3.25,7.228-10.91,6.656-13.695c-0.571-2.786-4.981-6.604-2.892-10.498c2.089-3.895,5.339-2.373,7.66,0  S226.988,419.747,226.289,424.212"
   id="path112" />
<path
   fill="#B4B930"
   d="M251.59,423.284c-1.029,5.519-3.249,10.445-7.892,14.623c-4.643,4.179-7.552,3.482-7.605,0  c-0.055-3.481,6.909-14.159,6.909-16.48s-7.66-9.049-6.732-11.721c0.929-2.671,6.091-3.6,7.571-1.511  C245.323,410.285,252.235,419.825,251.59,423.284"
   id="path114" />
</svg>