<svg
  id="Calque_1"
  data-name="Calque 1"
  xmlns="http://www.w3.org/2000/svg"
  viewBox="0 0 447.74 443.08"
>
  <defs>
    <style>
      .cls-1 {
        font-size: 23.15px;
        fill: #34b06f;
        font-family: GothamBold;
        font-weight: 700;
        letter-spacing: 0.01em;
        text-align:right;
      }
      .cls-2 {
        font-size: 29.12px;
        letter-spacing: -0.01em;
      }
      .cls-2,
      .cls-6 {
        fill: #457b2f;
      }
      .cls-2,
      .cls-3 {
        font-family: GothamUltra;
      }
      .cls-3 {
        font-size: 57px;
        letter-spacing: -0.03em;
      }
      .cls-4 {
        fill: #c6d62f;
      }
      .cls-5 {
        fill: #b1bb34;
      }
      .cls-7 {
        fill: none;
        stroke: #b1bb34;
        stroke-miterlimit: 10;
        stroke-width: 5px;
      }
    </style>
  </defs>
  <title>logo_national</title>
  <g id="Texte" class="main">
    <text class="cls-1"  transform="translate(312.86 299.1) " v-bind:arg="title" text-anchor="end">
      {{ title.toUpperCase() }}
    </text>
    <text class="cls-2" transform="translate(111.52 272.76)">
      FOR CLIMATE
    </text>
    <text class="cls-3" transform="translate(111.52 244.43)">YOUTH</text>
  </g>
  <g id="Feuilles">
    <path
      id="Feuille_basse"
      data-name="Feuille basse"
      class="cls-4"
      d="M901,791.5s29.3-5.67,37.6,2.67c5.61,5.62,2.18,27,3.93,30s5.74,7.89,8,10.81c-10.67,1.58-25.62-2.37-37.62-14.37S901,791.5,901,791.5Z"
      transform="translate(-576.81 -577.9)"
    />
    <path
      id="Feuille_centrale"
      data-name="Feuille centrale"
      class="cls-5"
      d="M901.77,780.91c0-42.59,27.36-58.41,56.48-60.41,2.47-.17-4.37,7-5.25,17-.66,7.51,2.06,31.63-7.12,38.25C932,785.75,901.77,782.38,901.77,780.91Z"
      transform="translate(-576.81 -577.9)"
    />
    <path
      id="Feuille_haute"
      data-name="Feuille haute"
      class="cls-6"
      d="M891.25,775.75s9.13-25.75,4.63-31-8-5.87-23.13-11.62a24,24,0,0,1-10.25-7.38s-5.62,23.13,5,35.88C876.33,772.22,891.25,775.75,891.25,775.75Z"
      transform="translate(-576.81 -577.9)"
    />
  </g>
  <g id="Cercle">
    <path
      id="Cercle-2"
      data-name="Cercle"
      class="cls-7"
      d="M594.5,807c-16-120,119-228,222.5-210.55,113,19,186.27,88.63,190.5,203.55,3.5,95-52.88,185.82-190.5,204.17C687,1021.5,606.79,899.17,594.5,807Z"
      transform="translate(-576.81 -577.9)"
    />
    <path
      class="cls-5"
      d="M779.25,578.38c-7.1-4.13-20.19,20.19-20.19,20.19s10.77,19.76,26.11,15.83c8.83-2.57-11.29-16.94-11.29-16.94S783.53,580.87,779.25,578.38Z"
      transform="translate(-576.81 -577.9)"
    />
    <path
      class="cls-5"
      d="M736.58,585.76c7,2.24-5,18.24-5,18.24s22.27,2.25,19,10.92c-2.2,5.85-30.65-5.29-30.65-5.29S727.67,582.92,736.58,585.76Z"
      transform="translate(-576.81 -577.9)"
    />
    <path
      class="cls-5"
      d="M690.75,607.42c4.08-2,0,19.41,0,19.41s23.16,5.56,19.67,10.09c-5.92,7.66-30.09-2.28-30.09-2.28S674.83,615.08,690.75,607.42Z"
      transform="translate(-576.81 -577.9)"
    />
    <path
      class="cls-5"
      d="M654.75,634.75c11.92-1.83,6.67,16.5,6.67,16.5s15.88,5.56,12.25,11.17c-5.25,8.08-22.84-2.68-22.84-2.68S644.8,636.28,654.75,634.75Z"
      transform="translate(-576.81 -577.9)"
    />
    <path
      class="cls-5"
      d="M620.25,669.17c5.42,0,5.83,17.91,5.83,17.91s24.17-2.08,24.25,2.25S632.73,701.17,621,697,614.58,669.17,620.25,669.17Z"
      transform="translate(-576.81 -577.9)"
    />
    <path
      class="cls-5"
      d="M597.42,704.17c6.58-1.92,10.83,16.22,10.83,16.22s16.65-6.76,18.25-3.72c2.5,4.75-16.08,17.08-20.17,14.58S591.34,705.93,597.42,704.17Z"
      transform="translate(-576.81 -577.9)"
    />
    <path
      class="cls-5"
      d="M581.42,752.08c5.83-6.91,14.65,6,14.65,6s12.71-7.05,15.85-3.41C620.91,765.08,594,772,594,772S573.33,761.67,581.42,752.08Z"
      transform="translate(-576.81 -577.9)"
    />
    <path
      class="cls-5"
      d="M577.58,795.5c2.75-3.08,16.09,8,16.09,8s14.11-17.93,17.75-14.92c5.33,4.42-.31,22.55-14.34,27.84C591.33,818.58,572.82,800.84,577.58,795.5Z"
      transform="translate(-576.81 -577.9)"
    />
    <path
      class="cls-5"
      d="M584.25,839.83c-2,9.92,22.67,16.93,22.67,16.93s14.33-30.51,5.16-31.34-10.5,18.25-10.5,18.25S585.3,834.6,584.25,839.83Z"
      transform="translate(-576.81 -577.9)"
    />
    <path
      class="cls-5"
      d="M626.25,859.92c5.69,1.12,2.46,27.18-3.17,31.66-6.58,5.25-28.88-3.61-26.75-10.16,1.25-3.84,18.58-.82,19.35-1.49S621.17,858.92,626.25,859.92Z"
      transform="translate(-576.81 -577.9)"
    />
    <path
      class="cls-5"
      d="M613.75,917c0-3.58,22.08-1.17,22.08-1.17s1.17-19.58,6.92-19.58c9,0,7,24.42,1.86,30.29S613.76,923.93,613.75,917Z"
      transform="translate(-576.81 -577.9)"
    />
    <path
      class="cls-5"
      d="M662.17,920.83c6.25-1.08,10.22,22.62,6.57,33-2.93,8.35-25.24,6.12-27.41-1.11s17.5-4.9,17.84-5.9S657.91,921.57,662.17,920.83Z"
      transform="translate(-576.81 -577.9)"
    />
    <path
      class="cls-5"
      d="M670.13,980c-1-4.67,20.12-7.17,20.12-7.17s-6.5-21-3.25-22.25c6.71-2.58,17.8,21.67,13.67,27.42C695.33,985.42,671.75,987.19,670.13,980Z"
      transform="translate(-576.81 -577.9)"
    />
    <path
      class="cls-5"
      d="M704.17,1001.92c-3.58-4.4,16.76-11.84,16.76-11.84s-6.76-16.91-2.93-19.33c2.65-1.67,16.17,12.92,12.25,21.83S707.83,1006.42,704.17,1001.92Z"
      transform="translate(-576.81 -577.9)"
    />
    <path
      class="cls-5"
      d="M737.33,1014.42c4.43,4.15,23-8,23.13-11.58s-6.46-27.42-15-23.09,2.81,19.58,2.81,19.58S730.58,1008.08,737.33,1014.42Z"
      transform="translate(-576.81 -577.9)"
    />
    <path
      class="cls-5"
      d="M771.49,1017.83c-4.53-4.11,7.15-12.55,7.15-12.55s-6.24-13.77-3.31-16.45c5.84-5.33,14.75,7.92,15.42,13.17C791.26,1006,780.75,1026.25,771.49,1017.83Z"
      transform="translate(-576.81 -577.9)"
    />
    <path
      class="cls-5"
      d="M801.33,1020.42c3.09,3.41,17.95-9.41,16.6-16.38s-6.93-23-15.6-18.37c-5.66,3.05,5.95,13.32,5.84,14.75C807.92,1003.5,798.88,1017.7,801.33,1020.42Z"
      transform="translate(-576.81 -577.9)"
    />
    <path
      class="cls-5"
      d="M831.21,1014.25c-4-2.42,11.54-16.17,11.54-16.17s-10.12-13.3-6.92-16,19.8,11.86,19.28,14.68S840.3,1019.79,831.21,1014.25Z"
      transform="translate(-576.81 -577.9)"
    />
    <path
      class="cls-5"
      d="M870.5,1005.83c-9-6.83,2-14.25,1.17-15.5s-10.59-11.46-5.75-15.39C872,970,887,984.28,887.12,986.2S878.85,1012.16,870.5,1005.83Z"
      transform="translate(-576.81 -577.9)"
    />
    <path
      class="cls-5"
      d="M902.42,999.75c-5.34-2.5,2-18.5,2-18.5s-18.72-7.73-18.75-12.42c0-5.08,25-6.93,29.41,3.74C918.25,980.33,906,1001.42,902.42,999.75Z"
      transform="translate(-576.81 -577.9)"
    />
    <path
      class="cls-5"
      d="M932.5,980.33c8,0,13.66-23.39,9.62-26.57s-29.62-3-30.2,2.91c-1.07,10.82,20.91,1.41,21.08,5.33S926.91,980.33,932.5,980.33Z"
      transform="translate(-576.81 -577.9)"
    />
    <path
      class="cls-5"
      d="M961,957.83c-5.5-.75-4.17-16.91-6.5-17.41s-21.57-1-21.33-5.09c.41-7.08,26.91-8.66,30.25-5.75C970.34,935.64,967.14,958.67,961,957.83Z"
      transform="translate(-576.81 -577.9)"
    />
    <path
      class="cls-5"
      d="M986.58,924.58c-10.5,1.5-8.58-13.91-10.33-14.91s-11.17.33-14.17-5.59c-2.59-5.11,14.25-10.83,20.92-6.33S997.11,923.08,986.58,924.58Z"
      transform="translate(-576.81 -577.9)"
    />
    <path
      class="cls-5"
      d="M1011.5,881c-6.92,3.58-9.42-16.42-12.5-15.75s-19.33,10.25-23,4.5c-2.46-3.85,13.4-16.61,26.45-14.68S1016.92,878.19,1011.5,881Z"
      transform="translate(-576.81 -577.9)"
    />
    <path
      class="cls-5"
      d="M1021.92,839.75c-7.09,1.58-13-11.53-15.15-11.89s-14,9.38-16.19,7.47c-3.41-3,6.5-16.41,14.25-18.41S1026.72,838.68,1021.92,839.75Z"
      transform="translate(-576.81 -577.9)"
    />
    <path
      class="cls-5"
      d="M1022.89,789.62c-4,3.72-7.16,3.6-15.24-2.7-2.2-1.72-6,7.65-11.65,7.91-9,.42-1.57-20.34,9.26-20.93C1018.83,773.17,1028.58,784.36,1022.89,789.62Z"
      transform="translate(-576.81 -577.9)"
    />
    <path
      class="cls-5"
      d="M1020.58,755.92c-5.18,6-16.75-6.59-17.66-6.09s-1.83,20.29-9.09,20c-8.5-.33-.23-28.55,4.21-29.62C1004.42,738.67,1025.25,750.5,1020.58,755.92Z"
      transform="translate(-576.81 -577.9)"
    />
    <path
      class="cls-5"
      d="M1012.92,721.5c-2.25,4.77-16.25-.67-16.67,0s-8.14,20.47-11.5,20.75c-6.08.5-3.08-30,1.93-31.55C992.5,708.83,1017,712.85,1012.92,721.5Z"
      transform="translate(-576.81 -577.9)"
    />
    <path
      class="cls-5"
      d="M1001.08,693.25c-1.25,3.67-18.08.8-19.5,1.3s-2.06,17.52-8.25,18.28c-9.5,1.17-6.08-25.67-2.29-28.79S1003.89,685,1001.08,693.25Z"
      transform="translate(-576.81 -577.9)"
    />
    <path
      class="cls-5"
      d="M978.75,664.92c-1.25,8.58-10,6.83-15.83,4.33-1.65-.71-4.59,10.89-12.17,11.42-8.42.58-.67-20.34,1.67-22S980.31,654.23,978.75,664.92Z"
      transform="translate(-576.81 -577.9)"
    />
    <path
      class="cls-5"
      d="M944.17,637.58c5.33,6.25-17.5,4.84-17.92,6.84s1.83,23.62-3,24.45c-7,1.21-9-26.08-6.08-31.29C918.58,635.08,933.22,624.76,944.17,637.58Z"
      transform="translate(-576.81 -577.9)"
    />
    <path
      class="cls-5"
      d="M912.08,611.33c3.34,7.34-20.91,7.5-20.83,8.75s9,19.93,4.08,20.92c-7.41,1.5-16.16-22.83-13.83-25.83S908.77,604,912.08,611.33Z"
      transform="translate(-576.81 -577.9)"
    />
    <path
      class="cls-5"
      d="M871.25,595.58c.58,4.67-16.9,8.25-16.7,9.5s5.62,16.5,3.28,18.09-17.07-14.44-13.53-20.93S870.41,588.84,871.25,595.58Z"
      transform="translate(-576.81 -577.9)"
    />
    <path
      class="cls-5"
      d="M821,583.92c9.67,8.54-5.75,14.83-5.5,15.66s7.08,10.44,4.42,14.67c-5.25,8.33-17.34-9.47-17.92-12.17C800.43,594.72,816,579.5,821,583.92Z"
      transform="translate(-576.81 -577.9)"
    />
  </g>
</svg>
