<svg width="100%" height="100%" viewBox="0 0 476 476" version="1.1" xmlns="http://www.w3.org/2000/svg" xmlns:xlink="http://www.w3.org/1999/xlink" xml:space="preserve" xmlns:serif="http://www.serif.com/" style="fill-rule:evenodd;clip-rule:evenodd;stroke-miterlimit:10;">

  <defs>
    <clipPath id="frame">
      <path d="M433.839,173.574c-5.434,-23.384 -20.016,-49.644 -45.182,-74.257c-45.5,-44.5 -112.5,-65 -149,-64.5c-36.5,0.5 -78.5,3 -127.5,40.5c-49,37.5 -76.899,89.64 -81.449,138.82c-4.551,49.18 11.949,83.52 25.949,113.35c14,29.83 51.469,79.458 96.932,98.024c45.463,18.567 24.995,11.099 33.653,13.306c80.415,20.5 303.415,-20.718 246.597,-265.243Z" style=""/>
    </clipPath>

    <filter id="f3" x="0" y="0" width="200%" height="200%">
      <feOffset result="offOut" in="SourceAlpha" dx="0" dy="0" />
      <feGaussianBlur result="blurOut" in="offOut" stdDeviation="5" />
      <feBlend in="SourceGraphic" in2="blurOut" mode="normal" />
    </filter>
  </defs>

  <g class="main">
    <g clip-path="url(#frame)">
      <g v-dynamic data-dynamic-width="450" data-dynamic-height="450" style="transform-origin: 50% 50%;">
        <image v-bind:xlink:href="pic.data" width="450" height="450" x="13" y="13" />
      </g>
      <rect x="0" y="300" width="315" height="110" style="fill: #fff;" />
    </g>

  </g>

  <!--<path d="M433.839,173.574c-5.434,-23.384 -20.016,-49.644 -45.182,-74.257c-45.5,-44.5 -112.5,-65 -149,-64.5c-36.5,0.5 -78.5,3 -127.5,40.5c-49,37.5 -76.899,89.64 -81.449,138.82c-4.551,49.18 11.949,83.52 25.949,113.35c14,29.83 51.469,79.458 96.932,98.024c45.463,18.567 24.995,11.099 33.653,13.306c80.415,20.5 303.415,-20.718 246.597,-265.243Z" style="fill:none;fill-rule:nonzero;stroke:#fff;stroke-width:15px;"/>
-->
  <g id="Calque-1" serif:id="Calque 1">
    <path d="M433.839,173.574c-5.434,-23.384 -20.016,-49.644 -45.182,-74.257c-45.5,-44.5 -112.5,-65 -149,-64.5c-36.5,0.5 -78.5,3 -127.5,40.5c-49,37.5 -76.899,89.64 -81.449,138.82c-4.551,49.18 11.949,83.52 25.949,113.35c14,29.83 51.469,79.458 96.932,98.024c45.463,18.567 24.995,11.099 33.653,13.306c80.415,20.5 303.415,-20.718 246.597,-265.243Z" style="fill:none;fill-rule:nonzero;stroke:#a9bb46;stroke-width:4px;"/>
    <g style="transform: scale(0.8) translate(45px, 60px); transform-origin: 50px 426px;">
      <g>

        <text x="81.441px" y="268.429px" style="font-family:'Gotham-Ultra', 'Lucida Grande', sans-serif;font-weight:500;font-size:64.626px;fill:#000102;">
          Y
          <tspan x="124.597px 177.692px 225.36px 269.115px " y="268.429px 268.429px 268.429px 268.429px ">OUTH</tspan>
        </text>
        <text x="81.442px" y="302.902px" style="font-family:'Gotham-Ultra', 'Lucida Grande', sans-serif;font-weight:500;font-size:34.213px;fill:#477d3a;">
          F
          <tspan x="101.423px 129.64px " y="302.902px 302.902px ">OR</tspan>
        </text>
        <text x="164.306px" y="302.902px" style="font-family:'Gotham-Ultra', 'Lucida Grande', sans-serif;font-weight:500;font-size:34.213px;fill:#477d3a;">
          C
          <tspan x="189.616px 209.496px 220.99px 252.097px 277.34px 300.611px " y="302.902px 302.902px 302.902px 302.902px 302.902px 302.902px ">LIMATE</tspan>
        </text>
        <text x="200.356px" y="331.056px" style="font-family:'Gotham-Medium', 'Lucida Grande', sans-serif;font-weight:500;font-size:27.203px;fill:#30b070;">
          F
          <tspan x="217.16px 236.58px 257.569px 279.885px 300.926px " y="331.056px 331.056px 331.056px 331.056px 331.056px ">RANCE</tspan>
        </text>
      </g>
      <g style="stroke: #fff; stroke-width: 10px;">
        <path d="M331.956,219.863c1.567,-14.1 5.482,-45.434 25.851,-56.401c20.367,-10.967 34.467,-14.1 41.517,-14.1c0,0 -5.485,8.617 -6.267,20.367c-0.783,11.75 -0.783,37.6 -7.832,43.867c-7.051,6.267 -18.801,7.834 -32.902,8.617c-14.099,0.783 -20.367,-2.35 -20.367,-2.35" style="fill:#a9bb46;fill-rule:nonzero;"/>
        <path d="M336.657,232.397c10.968,-0.783 30.552,-4.7 39.168,4.7c8.616,9.4 1.567,28.985 4.7,34.468c3.132,5.483 6.268,9.399 9.4,12.533c0,0 -10.967,2.351 -24.284,-3.133c-13.317,-5.484 -27.09,-20.307 -31.335,-32.509c-3.131,-9.009 -1.567,-11.358 -2.349,-15.667l4.7,-0.392Z" style="fill:#c0d44e;fill-rule:nonzero;"/>
        <path d="M286.469,155.466c6.801,9.052 17.172,10.557 26.483,14.205c12.423,4.866 15.753,9.775 13.845,22.768c-0.953,6.486 -3.558,12.728 -5.361,19.095c-0.932,3.291 -2.848,3.497 -5.801,2.497c-24.155,-8.189 -36.715,-32.714 -29.166,-58.565" style="fill:#477d3a;"/>
      </g>

    </g>
    <g>

      <path d="M55.158,331.083c7.327,-1.603 6.25,-6.693 7.75,-12.354c1.5,-5.662 3.75,-17.294 -1.25,-19.728c-5,-2.434 -8.25,19.889 -13.25,19.728c-5,-0.162 -15.75,-2.662 -16,1.588c-0.25,4.25 11.25,13.282 22.75,10.766" style="fill:#aab946;fill-rule:nonzero;"/>
      <path d="M36.908,283.067c-4.025,0.224 -11.5,-10.5 -16.25,-5.25c-4.75,5.25 11.193,15.144 20.75,17.75c2.75,0.75 8,-14.75 8.75,-21c0.75,-6.25 1.256,-10.993 -4,-11c-7.25,-0.009 -4.75,19.25 -9.25,19.5" style="fill:#aab946;fill-rule:nonzero;"/>
      <path d="M80.408,365.817c-10,0.75 -31.133,-2.105 -29.786,-10.25c0.786,-4.75 20.786,0.615 21.286,-2.692c0.5,-3.308 1.59,-21.915 8.5,-17.097c4,2.789 5.25,10.904 3.5,17.097c-1.75,6.192 -3.5,12.942 -3.5,12.942" style="fill:#aab946;fill-rule:nonzero;"/>
      <path d="M34.208,254.817c-7.55,0 -16.3,-7.75 -19.05,-13.5c-2.75,-5.75 -4.25,-7 0,-7.5c4.25,-0.5 12.5,6.25 14.5,8.75c0,0 5,-6.5 8,-10c3,-3.5 9.322,-8.5 10.911,-3.75c1.589,4.75 -2.661,15.25 -5.911,18.5c-3.25,3.25 -8.45,7.5 -8.45,7.5" style="fill:#aab946;fill-rule:nonzero;"/>
      <path d="M103.908,391.317c-3.542,5.833 -8.5,7.25 -14.25,6.5c-5.75,-0.75 -11,-3.25 -12,-6.5c-1,-3.25 4.25,-4.75 8.5,-5.25c4.25,-0.5 10.75,0.25 10,-6c-0.75,-6.25 -2.25,-17 1,-20c3.25,-3 6.5,3.25 8,11.25c0,0 3,13 -1.25,20" style="fill:#aab946;fill-rule:nonzero;"/>
      <path d="M135.408,415.567c-5,5.25 -11.951,6.744 -17,7.5c-3.224,0.482 -11,0.303 -12.222,-3.746c-1.406,-4.656 13.509,-6.384 17.271,-8.004c4.342,-1.869 1.548,-7.197 -0.001,-11.974c-1.548,-4.776 -3.449,-8.526 0.001,-10.276c3.451,-1.75 8.254,6.75 10.227,12.5c1.974,5.75 4.595,10.985 1.724,14" style="fill:#aab946;fill-rule:nonzero;"/>
      <path d="M165.658,431.817c-5.35,4.381 -14.431,12.042 -23.75,9.5c-2.75,-0.75 -2.089,-4 1.706,-6.75c3.794,-2.75 11.794,-4 12.044,-8.75c0.25,-4.75 -4.408,-9.992 -2.716,-15.25c0.966,-3 4.216,-0.75 7.466,3.75c3.25,4.5 9.167,14.293 5.25,17.5" style="fill:#aab946;fill-rule:nonzero;"/>
      <path d="M195.658,441.822c-4.468,3.783 -12.5,11.245 -16.75,11.495c-4.25,0.25 -7,-0.75 -7.5,-3.75c-0.5,-3 7.239,-9.139 11,-10.5c4.835,-1.75 0,-5.5 -1.75,-8c-1.75,-2.5 -3.596,-7 -2.923,-10c0.673,-3 3.673,-3.5 7.423,-2.5c3.75,1 6.75,8.75 8.5,12.75c1.75,4 3.445,9.281 2,10.505" style="fill:#aab946;fill-rule:nonzero;"/>
      <path d="M426.236,149.236c-7.328,1.527 -6.25,6.381 -7.75,11.778c-1.5,5.398 -3.75,16.49 1.25,18.809c5,2.321 8.25,-18.962 13.25,-18.809c5,0.154 15.75,2.537 16,-1.514c0.25,-4.052 -11.25,-12.663 -22.75,-10.264" style="fill:#aab946;fill-rule:nonzero;"/>
      <path d="M439.498,189.425c4.023,-0.214 11.5,10.01 16.25,5.005c4.75,-5.005 -11.193,-14.438 -20.75,-16.924c-2.75,-0.714 -8,14.064 -8.75,20.023c-0.75,5.959 -1.256,10.481 4,10.488c7.25,0.008 4.75,-18.354 9.25,-18.592" style="fill:#aab946;fill-rule:nonzero;"/>
      <path d="M406.996,121.673c10,-0.716 31.133,2.007 29.785,9.771c-0.785,4.53 -20.785,-0.585 -21.285,2.568c-0.5,3.154 -1.592,20.894 -8.5,16.301c-4,-2.661 -5.25,-10.398 -3.5,-16.302c1.75,-5.903 3.5,-12.339 3.5,-12.339" style="fill:#aab946;fill-rule:nonzero;"/>
      <path d="M353.277,76.428c3.541,-5.562 8.5,-6.912 14.25,-6.198c5.75,0.716 11,3.099 12,6.198c1,3.099 -4.25,4.528 -8.5,5.005c-4.25,0.476 -10.75,-0.238 -10,5.721c0.75,5.959 2.25,16.208 -1,19.068c-3.25,2.86 -6.5,-3.099 -8,-10.726c0,0 -3,-12.394 1.25,-19.068" style="fill:#aab946;fill-rule:nonzero;"/>
      <path d="M318.671,54.096c5,-5.005 11.949,-6.43 17,-7.15c3.223,-0.46 11,-0.288 12.221,3.572c1.406,4.438 -13.508,6.086 -17.272,7.63c-4.342,1.783 -1.547,6.862 0.002,11.417c1.549,4.553 3.449,8.128 -0.002,9.798c-3.449,1.668 -8.252,-6.437 -10.226,-11.918c-1.973,-5.484 -4.594,-10.475 -1.723,-13.349" style="fill:#aab946;fill-rule:nonzero;"/>
      <path d="M280.904,40.754c5.35,-4.177 14.43,-11.48 23.75,-9.058c2.75,0.716 2.088,3.814 -1.707,6.436c-3.793,2.622 -11.793,3.813 -12.043,8.343c-0.25,4.528 4.408,9.526 2.715,14.54c-0.965,2.86 -4.215,0.716 -7.465,-3.576c-3.25,-4.29 -9.168,-13.626 -5.25,-16.685" style="fill:#aab946;fill-rule:nonzero;"/>
      <path d="M237.854,40.548c2.5,-6.913 4,-13.145 10.848,-16.923c5.644,-3.115 8.259,-1.669 9.955,2.145c1.697,3.813 -1.18,8.819 -4.117,10.249c-2.936,1.43 -4.166,3.814 -2.051,6.198c2.115,2.384 4.988,6.911 3.051,10.487c-1.936,3.575 -6.436,2.146 -8.686,-0.238c-2.25,-2.384 -2.75,-1.907 -4.75,-4.29c-2,-2.384 -4.25,-7.628 -4.25,-7.628" style="fill:#aab946;fill-rule:nonzero;"/>
      <path d="M389.138,97.069c7.508,-1.559 13.895,-3.612 20.801,0.247c5.695,3.182 5.728,6.205 3.156,9.707c-2.57,3.503 -8.553,3.715 -11.344,1.959c-2.791,-1.758 -5.566,-1.537 -6.634,1.559c-1.067,3.095 -3.68,7.995 -7.893,8.247c-4.215,0.253 -5.225,-4.381 -4.227,-7.594c0.998,-3.211 0.313,-3.386 1.438,-6.383c1.127,-2.997 4.703,-7.742 4.703,-7.742" style="fill:#aab946;fill-rule:nonzero;"/>
      <path d="M115.468,68.574c1.527,7.327 6.381,6.25 11.778,7.75c5.398,1.5 16.49,3.75 18.809,-1.25c2.321,-5 -18.962,-8.25 -18.809,-13.25c0.154,-5 2.537,-15.75 -1.514,-16c-4.052,-0.25 -12.663,11.25 -10.264,22.75" style="fill:#aab946;fill-rule:nonzero;"/>
      <path d="M168.061,41.147c-0.215,-4.024 10.009,-11.5 5.004,-16.25c-5.005,-4.75 -14.438,11.193 -16.924,20.75c-0.714,2.75 14.065,8 20.023,8.75c5.959,0.75 10.482,1.256 10.488,-4c0.008,-7.25 -18.353,-4.75 -18.591,-9.25" style="fill:#aab946;fill-rule:nonzero;"/>
      <path d="M195.527,39.446c1.43,-5.8 7.389,-17.3 12.871,-20.05c5.482,-2.75 6.674,-4.25 7.151,0c0.476,4.25 -5.959,12.5 -8.343,14.5c0,0 6.198,5 9.535,8c3.337,3 8.103,9.322 3.575,10.911c-4.528,1.589 -14.54,-2.661 -17.638,-5.911c-3.099,-3.25 -7.151,-7.45 -7.151,-7.45" style="fill:#aab946;fill-rule:nonzero;"/>
      <path d="M55.545,133.673c-5.562,-3.542 -6.912,-8.5 -6.198,-14.25c0.716,-5.75 3.099,-11 6.198,-12c3.099,-1 4.528,4.25 5.005,8.5c0.476,4.25 -0.238,10.75 5.721,10c5.959,-0.75 16.208,-2.25 19.068,1c2.86,3.25 -3.099,6.5 -10.726,8c0,0 -12.394,3 -19.068,-1.25" style="fill:#aab946;fill-rule:nonzero;"/>
      <path d="M41.159,167.563c-4.177,-5.351 -11.48,-14.431 -9.058,-23.75c0.716,-2.75 3.814,-2.089 6.436,1.706c2.622,3.794 3.813,11.794 8.343,12.044c4.528,0.25 9.526,-4.408 14.54,-2.716c2.86,0.966 0.716,4.216 -3.576,7.466c-4.29,3.25 -13.626,9.167 -16.685,5.25" style="fill:#aab946;fill-rule:nonzero;"/>
      <path d="M29.938,210.3c-6.914,-2.499 -8.527,-3.999 -12.305,-10.847c-3.115,-5.645 -1.669,-8.26 2.144,-9.956c3.814,-1.696 8.82,1.18 10.249,4.117c1.431,2.937 3.815,4.167 6.199,2.052c2.383,-2.115 6.911,-4.989 10.487,-3.052c3.575,1.937 2.145,6.437 -0.237,8.687c-2.385,2.25 -1.909,2.75 -4.291,4.75c-2.383,2 -12.246,4.249 -12.246,4.249" style="fill:#aab946;fill-rule:nonzero;"/>
      <path d="M87.647,99.012c-2.502,-7.248 -5.352,-13.32 -2.404,-20.663c2.431,-6.052 5.425,-6.47 9.226,-4.366c3.802,2.105 4.774,8.01 3.387,11.002c-1.387,2.992 -0.815,5.717 2.392,6.382c3.206,0.665 8.398,2.633 9.185,6.779c0.787,4.148 -3.68,5.74 -6.994,5.159c-3.312,-0.581 -3.398,0.122 -6.514,-0.614c-3.116,-0.735 -8.278,-3.679 -8.278,-3.679" style="fill:#aab946;fill-rule:nonzero;"/>
      <path d="M289.057,438.227c-4.004,5.48 -10.744,14.987 -20.372,15.202c-2.841,0.063 -3.05,-3.098 -0.115,-6.657c2.931,-3.559 10.302,-6.89 9.304,-11.315c-0.996,-4.425 -6.841,-7.959 -6.583,-13.246c0.147,-3.014 3.859,-1.84 8.159,1.402c4.297,3.238 12.541,10.602 9.607,14.614" style="fill:#aab946;fill-rule:nonzero;"/>
      <path d="M320.62,422.335c-0.516,7.333 -0.256,13.737 -5.812,19.242c-4.579,4.539 -7.489,3.862 -10.162,0.657c-2.674,-3.206 -1.274,-8.807 1.161,-10.984c2.433,-2.179 2.966,-4.808 0.28,-6.523c-2.686,-1.715 -6.688,-5.285 -5.801,-9.255c0.886,-3.968 5.605,-3.823 8.421,-2.143c2.815,1.678 3.166,1.082 5.741,2.828c2.575,1.747 6.172,6.178 6.172,6.178" style="fill:#aab946;fill-rule:nonzero;"/>
      <path d="M400.6,371.273c-3.471,-6.632 -7.846,-4.27 -13.447,-4.238c-5.603,0.031 -16.886,0.897 -17.752,6.341c-0.866,5.443 20.495,2.755 21.713,7.608c1.218,4.851 1.862,15.844 5.828,14.976c3.966,-0.866 9.108,-14.28 3.658,-24.687" style="fill:#aab946;fill-rule:nonzero;"/>
      <path d="M368.501,401.024c1.305,3.813 -6.488,13.798 -0.375,16.999c6.111,3.202 10.83,-14.712 10.612,-24.584c-0.066,-2.839 -15.715,-3.853 -21.653,-2.947c-5.937,0.906 -10.425,1.655 -8.995,6.713c1.972,6.977 18.951,-0.445 20.411,3.819" style="fill:#aab946;fill-rule:nonzero;"/>
      <path d="M350.543,411.162c0.209,5.971 -2.382,18.662 -6.904,22.805c-4.52,4.142 -5.258,5.912 -6.878,1.953c-1.62,-3.957 2.317,-13.653 4.065,-16.228c0,0 -7.329,-3.117 -11.358,-5.091c-4.031,-1.973 -10.343,-6.753 -6.421,-9.52c3.923,-2.765 14.716,-1.411 18.584,0.868c3.868,2.279 8.911,5.213 8.911,5.213" style="fill:#aab946;fill-rule:nonzero;"/>
      <path d="M439.461,294.28c6.316,1.889 8.971,6.289 9.854,12.015c0.883,5.726 0.024,11.428 -2.683,13.236c-2.709,1.81 -5.519,-2.851 -7.138,-6.808c-1.619,-3.959 -2.708,-10.407 -8.234,-8.057c-5.528,2.349 -14.976,6.592 -18.616,4.247c-3.641,-2.345 1.206,-7.1 8.132,-10.627c0,0 11.104,-6.271 18.685,-4.006" style="fill:#aab946;fill-rule:nonzero;"/>
      <path d="M443.041,255.749c5.481,4.006 14.986,10.745 15.202,20.372c0.062,2.842 -3.099,3.052 -6.657,0.117c-3.56,-2.933 -6.891,-10.303 -11.317,-9.305c-4.423,0.995 -7.957,6.841 -13.245,6.583c-3.014,-0.147 -1.839,-3.86 1.403,-8.159c3.238,-4.298 10.601,-12.54 14.613,-9.608" style="fill:#aab946;fill-rule:nonzero;"/>
      <path d="M442.162,211.571c7.332,0.517 9.294,1.519 14.8,7.075c4.537,4.578 3.861,7.489 0.656,10.162c-3.205,2.675 -8.807,1.275 -10.983,-1.161c-2.179,-2.433 -4.809,-2.965 -6.525,-0.28c-1.715,2.686 -5.284,6.687 -9.254,5.8c-3.968,-0.886 -3.822,-5.605 -2.143,-8.42c1.678,-2.816 1.083,-3.167 2.829,-5.741c1.747,-2.576 10.62,-7.435 10.62,-7.435" style="fill:#aab946;fill-rule:nonzero;"/>
      <path d="M419.049,336.393c4.386,6.289 8.787,11.351 7.955,19.219c-0.684,6.486 -3.45,7.707 -7.682,6.719c-4.231,-0.985 -6.779,-6.4 -6.263,-9.656c0.517,-3.258 -0.779,-5.723 -4.043,-5.487c-3.266,0.236 -8.799,-0.238 -10.69,-4.012c-1.888,-3.775 1.974,-6.527 5.32,-6.873c3.344,-0.347 3.236,-1.046 6.434,-1.189c3.198,-0.145 8.969,1.279 8.969,1.279" style="fill:#aab946;fill-rule:nonzero;"/>
      <path d="M225.908,441.567c-0.929,5.933 -5.25,12.25 -10.5,14.75c-5.25,2.5 -6.108,1.75 -8.554,-1.75c-2.446,-3.5 7.784,-11.75 7.169,-14.75c-0.615,-3 -5.365,-7.111 -3.115,-11.306c2.25,-4.194 5.75,-2.555 8.25,0c2.5,2.556 7.503,8.246 6.75,13.056" style="fill:#aab946;fill-rule:nonzero;"/>
      <path d="M253.158,440.567c-1.109,5.944 -3.5,11.25 -8.5,15.75c-5,4.5 -8.133,3.75 -8.191,0c-0.059,-3.75 7.441,-15.25 7.441,-17.75c0,-2.5 -8.25,-9.746 -7.25,-12.623c1,-2.877 6.559,-3.877 8.154,-1.627c1.596,2.25 9.041,12.525 8.346,16.25" style="fill:#aab946;fill-rule:nonzero;"/>
    </g>
  </g>
</svg>
